<?xml version="1.0" standalone="no"?>
<!DOCTYPE svg PUBLIC "-//W3C//DTD SVG 1.1//EN" "http://www.w3.org/Graphics/SVG/1.1/DTD/svg11.dtd" >
<svg>
<metadata>
Created by FontForge 20090622 at Thu Mar  3 20:50:55 2016
 By deploy user
&#194;&#172;&#194;&#169;2012 Kai Bernau and Susana Carvalho with Christian Schwartz under exclusive license to Schwartzco Inc./Commercial Type. All rights reserved.
</metadata>
<defs>
<font id="AtlasGrotesk-Bold" horiz-adv-x="600" >
  <font-face 
    font-family="Atlas Grotesk Bold"
    font-weight="700"
    font-stretch="normal"
    units-per-em="1000"
    panose-1="0 0 0 0 0 0 0 0 0 0"
    ascent="812"
    descent="-188"
    x-height="536"
    cap-height="765"
    bbox="-212 -232 1261 1202"
    underline-thickness="50"
    underline-position="-50"
    unicode-range="U+0020-U+FB02"
  />
<missing-glyph horiz-adv-x="500" 
 />
    <glyph glyph-name="f_f" unicode="ff" horiz-adv-x="735" 
d="M251 426v-426h-155v426h-77v110h77v64q0 102 49.5 144t143.5 42q48 0 78 -6v-111q-12 4 -44 4q-37 0 -54.5 -18t-17.5 -62v-57h209v72q0 101 50 143.5t143 42.5q48 0 78 -6v-111q-9 3 -44 3q-37 0 -54.5 -18t-17.5 -62v-64h105v-110h-105v-426h-155v426h-209z" />
    <glyph glyph-name="fi" unicode="fi" horiz-adv-x="665" 
d="M437 629v144h161v-144h-161zM438 0v536h159v-536h-159zM250 426v-426h-155v426h-76v110h76v72q0 101 49 143.5t140 42.5q39 0 75 -6v-111q-12 3 -41 3q-34 0 -51 -18t-17 -62v-64h103v-110h-103z" />
    <glyph glyph-name="fl" unicode="fl" horiz-adv-x="665" 
d="M438 0v788h159v-788h-159zM250 426v-426h-155v426h-76v110h76v72q0 101 49 143.5t140 42.5q39 0 75 -6v-111q-12 3 -41 3q-34 0 -51 -18t-17 -62v-64h103v-110h-103z" />
    <glyph glyph-name=".notdef" horiz-adv-x="500" 
 />
    <glyph glyph-name=".null" horiz-adv-x="0" 
 />
    <glyph glyph-name="nonmarkingreturn" horiz-adv-x="333" 
 />
    <glyph glyph-name="space" unicode=" " horiz-adv-x="228" 
 />
    <glyph glyph-name="exclam" unicode="!" horiz-adv-x="330" 
d="M105 243l-32 545h184l-33 -545h-119zM252 0h-175v152h175v-152z" />
    <glyph glyph-name="quotedbl" unicode="&#x22;" horiz-adv-x="481" 
d="M293 504l-20 261h142l-25 -261h-97zM86 504l-20 261h142l-24 -261h-98z" />
    <glyph glyph-name="numbersign" unicode="#" horiz-adv-x="667" 
d="M266 373h111l21 142h-111zM136 99l25 179h-107v95h122l20 142h-112v95h125l24 155h90l-22 -155h109l24 155h92l-24 -155h112v-95h-125l-20 -142h115v-95h-130l-25 -179h-92l25 179h-110l-26 -179h-90z" />
    <glyph glyph-name="dollar" unicode="$" horiz-adv-x="663" 
d="M294 455v180q-46 -6 -68.5 -30t-22.5 -57q0 -75 91 -93zM364 108h2q99 13 99 96q0 39 -24 60t-77 32v-188zM364 -116h-70v105q-119 8 -186.5 66t-73.5 160h156q12 -91 104 -106v200l-34 6q-103 18 -158.5 68.5t-55.5 148.5q0 87 66.5 146.5t181.5 68.5v81h70v-81
q114 -9 175.5 -67t69.5 -145h-156q-2 35 -24.5 62.5t-64.5 36.5v-191l37 -6q223 -37 223 -208q0 -107 -67 -169.5t-193 -70.5v-105z" />
    <glyph glyph-name="percent" unicode="%" horiz-adv-x="918" 
d="M138 -40l534 821h114l-534 -821h-114zM230 381q-76 0 -125.5 47t-49.5 134q0 86 50.5 133t124.5 47q76 0 126.5 -46.5t50.5 -133.5q0 -86 -51 -133.5t-126 -47.5zM229 466q32 0 50.5 24.5t18.5 71.5t-18.5 72t-50.5 25q-67 0 -67 -97q0 -96 67 -96zM686 -7
q-76 0 -125.5 47t-49.5 134t50 133.5t125 46.5q76 0 126 -46.5t50 -133.5q0 -86 -50.5 -133.5t-125.5 -47.5zM685 78q32 0 50.5 24.5t18.5 71.5t-18.5 72t-50.5 25q-68 0 -68 -97q0 -96 68 -96z" />
    <glyph glyph-name="ampersand" unicode="&#x26;" horiz-adv-x="769" 
d="M266 600q0 -31 14 -57.5t48 -61.5q48 33 71.5 63t23.5 66q0 34 -21 55.5t-56 21.5q-37 0 -58.5 -24.5t-21.5 -62.5zM272 346l-4 -3q-70 -51 -70 -121q0 -57 32 -89t91 -32q70 0 123 55zM728 -1h-36q-57 0 -92 15t-76 56q-89 -86 -217 -86q-132 0 -197.5 58.5t-65.5 163.5
q0 68 38 120t121 102q-42 44 -60 82.5t-18 90.5q0 81 59.5 133.5t162.5 52.5q96 0 153 -46t57 -120q0 -63 -39 -113t-115 -105l117 -128q20 46 52 137h136q-58 -159 -101 -234q34 -38 54.5 -47t66.5 -9v-123z" />
    <glyph glyph-name="quotesingle" unicode="'" horiz-adv-x="275" 
d="M86 504l-20 261h142l-24 -261h-98z" />
    <glyph glyph-name="parenleft" unicode="(" horiz-adv-x="358" 
d="M343 -130h-114q-161 224 -161 459t161 459h114q-132 -233 -132 -459q0 -224 132 -459z" />
    <glyph glyph-name="parenright" unicode=")" horiz-adv-x="349" 
d="M15 -130q132 235 132 459q0 226 -132 459h113q161 -221 161 -459t-161 -459h-113z" />
    <glyph glyph-name="asterisk" unicode="*" horiz-adv-x="455" 
d="M230 542h-4l-62 -125l-95 66l103 97v4l-137 20l37 112l122 -69l2 2l-27 139h117l-26 -140l2 -2l122 68l37 -111l-137 -21v-3l103 -98l-95 -66z" />
    <glyph glyph-name="plus" unicode="+" horiz-adv-x="633" 
d="M378 300v-196h-125v196h-190v116h190v194h125v-194h191v-116h-191z" />
    <glyph glyph-name="comma" unicode="," horiz-adv-x="288" 
d="M40 -117l52 276h164l-110 -276h-106z" />
    <glyph glyph-name="hyphen" unicode="-" horiz-adv-x="425" 
d="M57 255v121h312v-121h-312z" />
    <glyph glyph-name="period" unicode="." horiz-adv-x="291" 
d="M61 0v159h169v-159h-169z" />
    <glyph glyph-name="slash" unicode="/" horiz-adv-x="572" 
d="M-14 -130l455 918h120l-454 -918h-121z" />
    <glyph glyph-name="zero" unicode="0" horiz-adv-x="702" 
d="M50 367q0 190 80.5 287t219.5 97q146 0 224 -95.5t78 -288.5q0 -189 -79.5 -285.5t-222.5 -96.5q-146 0 -223 95t-77 287zM350 105q127 0 127 263q0 137 -34.5 201t-92.5 64q-126 0 -126 -265q0 -142 32 -202.5t94 -60.5z" />
    <glyph glyph-name="one" unicode="1" horiz-adv-x="429" 
d="M171 0v508h-145v102h19q70 0 107 31q37 32 37 101h141v-742h-159z" />
    <glyph glyph-name="two" unicode="2" horiz-adv-x="639" 
d="M215 495h-159q2 120 73.5 188.5t200.5 68.5q130 0 193.5 -59t63.5 -151q0 -77 -36.5 -132t-129.5 -142l-151 -140v-1h319v-127h-548v92l261 250q66 63 93 104.5t27 85.5q0 47 -26 74.5t-71 27.5q-47 0 -78.5 -32.5t-31.5 -106.5z" />
    <glyph glyph-name="three" unicode="3" horiz-adv-x="650" 
d="M326 320h-66v112h53q48 0 78 28t30 74q0 45 -30 71.5t-72 26.5q-104 0 -109 -108h-155q3 95 68.5 161.5t200.5 66.5q122 0 190 -56.5t68 -141.5q0 -60 -32.5 -104.5t-92.5 -63.5v-2q144 -35 144 -180q0 -92 -73.5 -155.5t-204.5 -63.5q-139 0 -205.5 65.5t-72.5 164.5
h164q6 -53 38 -80.5t79 -27.5q51 0 83 29.5t32 77.5q0 49 -31 77.5t-84 28.5z" />
    <glyph glyph-name="four" unicode="4" horiz-adv-x="666" 
d="M185 284h203v320h-2q-13 -36 -42 -80zM631 164h-90v-164h-156v164h-350v111l318 466h188v-455h90v-122z" />
    <glyph glyph-name="five" unicode="5" horiz-adv-x="644" 
d="M435 240q0 62 -32 97.5t-85 35.5q-78 0 -116 -54h-133l37 422h443v-126h-321l-16 -189h2q22 28 62 46.5t90 18.5q103 0 166.5 -65t63.5 -182q0 -111 -74 -185t-207 -74q-74 0 -127.5 19t-82.5 52t-43 70.5t-17 82.5h155q10 -102 114 -102q52 0 86.5 35.5t34.5 97.5z" />
    <glyph glyph-name="six" unicode="6" horiz-adv-x="662" 
d="M598 565h-148q-17 73 -94 73q-65 0 -102 -62t-40 -185h4q22 45 68.5 70t105.5 25q96 0 161 -62.5t65 -175.5t-73.5 -188t-205.5 -75t-210.5 85t-78.5 265q0 204 80.5 310.5t227.5 106.5q114 0 172.5 -51t67.5 -136zM343 105q47 0 80.5 34t33.5 99q0 61 -32 96t-82 35
q-52 0 -83 -33.5t-31 -97.5q0 -66 33 -99.5t81 -33.5z" />
    <glyph glyph-name="seven" unicode="7" horiz-adv-x="566" 
d="M80 0l279 614h-336v127h518v-90l-298 -651h-163z" />
    <glyph glyph-name="eight" unicode="8" horiz-adv-x="658" 
d="M69 549q0 90 68.5 146.5t191.5 56.5t191.5 -56.5t68.5 -147.5q0 -121 -119 -163v-3q144 -36 144 -179q0 -94 -79.5 -156.5t-205.5 -62.5q-132 0 -208.5 60.5t-76.5 158.5q0 73 39.5 118t103.5 61v3q-53 18 -85.5 59t-32.5 105zM329 641q-47 0 -77 -27t-30 -79
q0 -50 30 -77.5t77 -27.5q46 0 76 27.5t30 77.5q0 52 -30 79t-76 27zM329 92q54 0 89.5 30t35.5 85q0 56 -35 85t-90 29t-90 -29t-35 -85q0 -55 36 -85t89 -30z" />
    <glyph glyph-name="nine" unicode="9" horiz-adv-x="661" 
d="M321 628q-46 0 -81 -32t-35 -94q0 -59 33.5 -92.5t82.5 -33.5q51 0 84 33t33 93t-35 93t-82 33zM59 179h147q7 -37 35 -57t67 -20q134 0 139 245h-3q-22 -40 -65.5 -63t-99.5 -23q-97 0 -166.5 62.5t-69.5 173.5q0 109 75.5 182t205.5 73q137 0 212 -90.5t75 -268.5
q0 -204 -81.5 -306t-225.5 -102q-107 0 -170.5 52t-74.5 142z" />
    <glyph glyph-name="colon" unicode=":" horiz-adv-x="298" 
d="M69 368v159h167v-159h-167zM236 0h-167v159h167v-159z" />
    <glyph glyph-name="semicolon" unicode=";" horiz-adv-x="319" 
d="M93 368v159h168v-159h-168zM148 -117h-106l52 276h164z" />
    <glyph glyph-name="less" unicode="&#x3c;" horiz-adv-x="633" 
d="M560 45l-496 252v72l496 253v-130l-316 -156l316 -157v-134z" />
    <glyph glyph-name="equal" unicode="=" horiz-adv-x="633" 
d="M76 400v115h480v-115h-480zM556 195h-480v115h480v-115z" />
    <glyph glyph-name="greater" unicode="&#x3e;" horiz-adv-x="633" 
d="M73 618l496 -252v-71l-496 -253v130l316 156l-316 157v133z" />
    <glyph glyph-name="question" unicode="?" horiz-adv-x="591" 
d="M404 580q0 42 -27 67t-75 25q-53 0 -85.5 -33.5t-32.5 -109.5h-152q-2 120 69.5 193.5t203.5 73.5q128 0 191.5 -58t63.5 -150q0 -65 -25 -108.5t-79 -87.5l-67 -56q-17 -13 -22.5 -23.5t-5.5 -30.5v-43h-137v64q0 47 10.5 68.5t50.5 53.5l57 47q32 27 47 50t15 58z
M380 0h-175v152h175v-152z" />
    <glyph glyph-name="at" unicode="@" horiz-adv-x="1009" 
d="M717 54q-58 0 -95.5 25t-43.5 72h-3q-54 -95 -155 -95q-74 0 -115 47t-41 131q0 109 62.5 193t162.5 84q46 0 77 -21t42 -53h2l11 58h128l-59 -277q-9 -43 5.5 -66.5t49.5 -23.5q54 0 92.5 54t38.5 160q0 143 -100.5 238t-254.5 95q-164 0 -278 -118.5t-114 -292.5
t102.5 -279t263.5 -105q153 0 257 84l44 -45q-124 -104 -308 -104q-191 0 -314 124.5t-123 324.5q0 204 136 340t336 136q188 0 310.5 -109.5t122.5 -282.5q0 -146 -69 -220t-170 -74zM465 146q36 0 66.5 32t40.5 84l9 44q9 48 -8 82t-57 34q-56 0 -87 -59t-31 -129
q0 -88 67 -88z" />
    <glyph glyph-name="A" unicode="A" horiz-adv-x="761" 
d="M373 624q-20 -80 -30 -111l-71 -223h202l-70 222q-9 30 -16.5 58t-9.5 41l-3 13h-2zM570 0l-56 170h-281l-56 -170h-157l267 765h184l271 -765h-172z" />
    <glyph glyph-name="B" unicode="B" horiz-adv-x="728" 
d="M402 0h-325v765h318q264 0 264 -195q0 -63 -39 -104.5t-94 -54.5v-4q74 -12 120 -61t46 -123q0 -108 -78 -165.5t-212 -57.5zM241 449h134q121 0 121 102q0 49 -30.5 74.5t-86.5 25.5h-138v-202zM241 117h149q66 0 100 27t34 90q0 107 -137 107h-146v-224z" />
    <glyph glyph-name="C" unicode="C" horiz-adv-x="766" 
d="M404 654q-80 0 -128.5 -71.5t-48.5 -204.5q0 -130 46.5 -200.5t129.5 -70.5q67 0 105 40t45 113h167q-6 -125 -90 -200.5t-223 -75.5q-176 0 -266.5 101.5t-90.5 286.5q0 189 94 296.5t260 107.5q141 0 225 -71t92 -199h-169q-6 68 -45.5 108t-102.5 40z" />
    <glyph glyph-name="D" unicode="D" horiz-adv-x="770" 
d="M77 0v765h261q178 0 280.5 -92t102.5 -281q0 -191 -102.5 -291.5t-276.5 -100.5h-265zM241 124h89q105 0 161 61t56 203q0 255 -212 255h-94v-519z" />
    <glyph glyph-name="E" unicode="E" horiz-adv-x="648" 
d="M77 0v765h504v-125h-340v-197h322v-122h-322v-197h349v-124h-513z" />
    <glyph glyph-name="F" unicode="F" horiz-adv-x="603" 
d="M241 295v-295h-164v765h481v-125h-317v-222h299v-123h-299z" />
    <glyph glyph-name="G" unicode="G" horiz-adv-x="810" 
d="M412 658q-90 0 -138.5 -71.5t-48.5 -207.5q0 -276 187 -276q78 0 123 45.5t51 127.5l1 14h-181v118h334v-408h-130v104h-4q-63 -120 -222 -120q-161 0 -247.5 103.5t-86.5 283.5q0 185 99 295t263 110q138 0 218.5 -63t94.5 -180h-167q-8 56 -47 90.5t-99 34.5z" />
    <glyph glyph-name="H" unicode="H" horiz-adv-x="792" 
d="M241 318v-318h-164v765h164v-319h308v319h166v-765h-166v318h-308z" />
    <glyph glyph-name="I" unicode="I" horiz-adv-x="318" 
d="M77 0v765h164v-765h-164z" />
    <glyph glyph-name="J" unicode="J" horiz-adv-x="448" 
d="M96 -3h-63v130h37q90 0 118 31.5t28 106.5v500h162v-520q0 -136 -70.5 -192t-211.5 -56z" />
    <glyph glyph-name="K" unicode="K" horiz-adv-x="735" 
d="M241 232v-232h-164v765h164v-341l279 341h183l-275 -320l287 -445h-188l-210 321z" />
    <glyph glyph-name="L" unicode="L" horiz-adv-x="610" 
d="M77 0v765h164v-637h330v-128h-494z" />
    <glyph glyph-name="M" unicode="M" horiz-adv-x="971" 
d="M77 0v765h238l138 -411q10 -28 18 -56.5t11 -42.5l3 -14h2q11 49 32 113l137 411h238v-765h-162v599h-3q-17 -71 -47 -162l-143 -437h-122l-144 437q-13 41 -24.5 81t-16.5 60l-4 20h-3v-598h-148z" />
    <glyph glyph-name="N" unicode="N" horiz-adv-x="789" 
d="M77 0v765h181l247 -414q17 -29 31 -57.5t19 -42.5l5 -14h3v528h150v-765h-173l-254 422q-18 30 -32.5 59t-19.5 43l-6 14h-3v-538h-148z" />
    <glyph glyph-name="O" unicode="O" horiz-adv-x="822" 
d="M50 380q0 186 99 291t262 105q170 0 265.5 -103t95.5 -293q0 -187 -97.5 -291.5t-263.5 -104.5q-172 0 -266.5 103t-94.5 293zM411 104q88 0 136 70.5t48 205.5q0 134 -50.5 206t-133.5 72q-88 0 -135.5 -70.5t-47.5 -207.5q0 -276 183 -276z" />
    <glyph glyph-name="P" unicode="P" horiz-adv-x="668" 
d="M329 262h-88v-262h-164v765h266q133 0 212.5 -60.5t79.5 -186.5q0 -132 -84 -194t-222 -62zM241 383h99q65 0 99.5 33.5t34.5 99.5q0 131 -132 131h-101v-264z" />
    <glyph glyph-name="Q" unicode="Q" horiz-adv-x="822" 
d="M50 380q0 188 97.5 292t263.5 104q168 0 264.5 -104t96.5 -292q0 -111 -36.5 -194.5t-101.5 -121.5v-5q55 -9 89 -34t62 -77l-144 -82q-38 70 -75.5 97.5t-97.5 27.5q-8 0 -27 -1.5t-32 -1.5q-172 0 -265.5 101t-93.5 291zM411 102q184 0 184 276q0 136 -49.5 208
t-134.5 72q-86 0 -134.5 -71.5t-48.5 -208.5q0 -276 183 -276z" />
    <glyph glyph-name="R" unicode="R" horiz-adv-x="714" 
d="M241 408h114q59 0 96.5 29.5t37.5 93.5t-39 92t-92 28h-117v-243zM503 0l-144 291h-118v-291h-164v765h299q89 0 154 -28q127 -56 127 -197q0 -152 -148 -210v-2l171 -328h-177z" />
    <glyph glyph-name="S" unicode="S" horiz-adv-x="699" 
d="M635 557h-168q-3 42 -32 71t-82 29t-84 -25.5t-31 -66.5q0 -39 23.5 -62t77.5 -33l116 -21q202 -37 202 -211q0 -123 -80 -188.5t-227 -65.5q-141 0 -220.5 63t-85.5 172h171q6 -52 42 -83.5t97 -31.5q65 0 99 29t34 75q0 40 -25 62.5t-84 33.5l-114 22
q-92 18 -144.5 72.5t-52.5 143.5q0 104 76.5 169t210.5 65q138 0 207.5 -61t73.5 -158z" />
    <glyph glyph-name="T" unicode="T" horiz-adv-x="662" 
d="M639 765v-129h-226v-636h-164v636h-226v129h616z" />
    <glyph glyph-name="U" unicode="U" horiz-adv-x="761" 
d="M69 267v498h164l-1 -446q0 -117 30 -155q40 -50 119 -50q84 0 123 50q13 17 19 48t6.5 47.5t0.5 59.5v446h162v-498q0 -141 -83.5 -212t-229.5 -71t-228 71t-82 212z" />
    <glyph glyph-name="V" unicode="V" horiz-adv-x="742" 
d="M278 0l-258 765h172l157 -496q10 -33 17 -61.5t8 -40.5l2 -12h2q4 40 27 113l159 497h158l-256 -765h-188z" />
    <glyph glyph-name="W" unicode="W" horiz-adv-x="1067" 
d="M388 0h-164l-203 765h170l106 -435q8 -34 14 -66.5t7 -47.5l2 -15h2q5 52 26 128l119 436h150l120 -435l30 -129h1q5 52 23 128l105 436h150l-202 -765h-161l-123 452q-9 34 -15 64.5t-7 43.5l-2 13h-2q-4 -44 -24 -120z" />
    <glyph glyph-name="X" unicode="X" horiz-adv-x="751" 
d="M25 0l254 395l-236 370h189l147 -244h1l151 244h172l-237 -364l260 -401h-194l-167 274h-2l-167 -274h-171z" />
    <glyph glyph-name="Y" unicode="Y" horiz-adv-x="697" 
d="M267 0v320l-256 445h181l161 -301h2l163 301h168l-255 -442v-323h-164z" />
    <glyph glyph-name="Z" unicode="Z" horiz-adv-x="658" 
d="M53 638v127h560v-113l-383 -524h389v-128h-583v113l384 525h-367z" />
    <glyph glyph-name="bracketleft" unicode="[" horiz-adv-x="386" 
d="M97 -130v918h264v-96h-133v-726h133v-96h-264z" />
    <glyph glyph-name="backslash" unicode="\" horiz-adv-x="572" 
d="M466 -130l-454 918h120l454 -918h-120z" />
    <glyph glyph-name="bracketright" unicode="]" horiz-adv-x="386" 
d="M289 788v-918h-264v96h133v726h-133v96h264z" />
    <glyph glyph-name="asciicircum" unicode="^" horiz-adv-x="450" 
d="M278 788l155 -293h-110l-101 173h-1l-101 -173h-103l156 293h105z" />
    <glyph glyph-name="underscore" unicode="_" horiz-adv-x="390" 
d="M-2 -190v99h394v-99h-394z" />
    <glyph glyph-name="grave" unicode="`" horiz-adv-x="369" 
d="M226 788l51 -174h-121l-88 174h158z" />
    <glyph glyph-name="a" unicode="a" horiz-adv-x="584" 
d="M256 94q44 0 75 34.5t31 97.5v17q-119 -7 -151 -29q-26 -17 -26 -54q0 -30 19 -48t52 -18zM203 377h-152q5 80 65.5 125.5t165.5 45.5q127 0 180 -52t53 -162v-185q0 -22 9 -31t34 -9v-110h-53q-60 0 -89.5 15.5t-41.5 58.5h-2q-54 -79 -162 -79q-84 0 -133 42t-49 117
q0 91 81 134q39 21 94.5 28.5t157.5 11.5v29q0 90 -79 90q-38 0 -57.5 -19t-21.5 -50z" />
    <glyph glyph-name="b" unicode="b" horiz-adv-x="646" 
d="M68 0v788h159v-332h2q22 40 64 66t99 26q99 0 157 -68t58 -210q0 -135 -61 -209t-166 -74q-110 0 -158 87h-2v-74h-152zM335 93q53 0 81.5 44.5t28.5 130.5q0 171 -111 171q-49 0 -79 -38t-30 -104v-58q0 -66 28 -106t82 -40z" />
    <glyph glyph-name="c" unicode="c" horiz-adv-x="595" 
d="M557 344h-156q-9 99 -92 99q-58 0 -83 -48.5t-25 -124.5q0 -174 107 -174q49 0 72 29.5t25 73.5h154q-3 -102 -72 -157t-179 -55q-129 0 -199.5 74.5t-70.5 206.5q0 130 73 205.5t198 75.5q110 0 177.5 -53t70.5 -152z" />
    <glyph glyph-name="d" unicode="d" horiz-adv-x="649" 
d="M424 228v64q0 70 -29 108.5t-79 38.5q-55 0 -85 -43.5t-30 -129.5q0 -173 111 -173q53 0 82.5 37.5t29.5 97.5zM581 788v-788h-152v79h-2q-55 -93 -160 -93q-109 0 -168.5 69t-59.5 206t65 211.5t169 74.5q51 0 89.5 -22t57.5 -60h2v323h159z" />
    <glyph glyph-name="e" unicode="e" horiz-adv-x="601" 
d="M400 322v7q-8 121 -95 121q-95 0 -107 -128h202zM557 156q-12 -79 -79 -124.5t-175 -45.5q-128 0 -196.5 76t-68.5 207q0 125 71 202.5t196 77.5q130 0 193.5 -75.5t63.5 -200.5v-42h-364q10 -138 110 -138q73 0 93 63h156z" />
    <glyph glyph-name="f" unicode="f" horiz-adv-x="371" 
d="M251 426v-426h-155v426h-77v110h77v70q0 101 50 144.5t143 43.5q48 0 78 -6v-111q-9 3 -44 3q-37 0 -54.5 -18t-17.5 -62v-64h105v-110h-105z" />
    <glyph glyph-name="g" unicode="g" horiz-adv-x="646" 
d="M426 244v58q0 64 -30.5 100.5t-81.5 36.5t-82 -41t-31 -120q0 -160 113 -160q50 0 81 35.5t31 90.5zM309 -199q-121 0 -184 44t-69 123h153q8 -32 30.5 -47.5t71.5 -15.5q60 0 87.5 30t27.5 100v76h-3q-17 -39 -56 -66.5t-100 -27.5q-108 0 -168 65t-60 196
q0 127 65.5 198t166.5 71q57 0 96 -24t57 -60h2v73h152v-493q0 -242 -269 -242z" />
    <glyph glyph-name="h" unicode="h" horiz-adv-x="641" 
d="M420 0v314q0 65 -16 88q-22 31 -69 31q-53 0 -80.5 -32t-27.5 -91v-310h-159v788h159v-338h2q20 41 63.5 69t104.5 28q95 0 138.5 -49t43.5 -150v-348h-159z" />
    <glyph glyph-name="i" unicode="i" horiz-adv-x="295" 
d="M67 629v144h161v-144h-161zM68 0v536h159v-536h-159z" />
    <glyph glyph-name="j" unicode="j" horiz-adv-x="299" 
d="M71 629v144h161v-144h-161zM40 -206q-30 0 -75 9v111q10 -5 39 -5q36 0 52 18t16 58v551h159v-552q0 -190 -191 -190z" />
    <glyph glyph-name="k" unicode="k" horiz-adv-x="598" 
d="M224 139v-139h-156v788h156v-474l183 222h168l-179 -210l188 -326h-172l-122 219z" />
    <glyph glyph-name="l" unicode="l" horiz-adv-x="295" 
d="M68 0v788h159v-788h-159z" />
    <glyph glyph-name="m" unicode="m" horiz-adv-x="981" 
d="M68 0v536h153v-88h2q53 99 170 99q134 0 167 -111h2q19 44 64.5 77.5t112.5 33.5q93 0 136.5 -49.5t43.5 -149.5v-348h-159v314q0 65 -16 88q-20 31 -67 31q-50 0 -77 -32t-27 -91v-310h-159v314q0 65 -16 88q-21 31 -67 31q-50 0 -77 -32t-27 -90v-311h-159z" />
    <glyph glyph-name="n" unicode="n" horiz-adv-x="641" 
d="M420 0v313q0 66 -16 89q-22 31 -69 31q-53 0 -80.5 -32t-27.5 -91v-310h-159v536h153v-88h2q53 99 174 99q95 0 138.5 -49t43.5 -150v-348h-159z" />
    <glyph glyph-name="o" unicode="o" horiz-adv-x="619" 
d="M309 -14q-127 0 -199 75.5t-72 206.5q0 132 73 206.5t199 74.5q124 0 197.5 -74.5t73.5 -206.5q0 -130 -75 -206t-197 -76zM310 442q-108 0 -108 -174q0 -175 108 -175q106 0 106 175q0 174 -106 174z" />
    <glyph glyph-name="p" unicode="p" horiz-adv-x="646" 
d="M225 239q0 -66 28 -106t82 -40q53 0 81.5 44.5t28.5 130.5q0 171 -111 171q-48 0 -78.5 -38t-30.5 -104v-58zM68 -188v724h153v-87h2q21 41 65 70t104 29q99 0 157 -68t58 -210q0 -133 -62.5 -208t-167.5 -75t-147 80h-3v-255h-159z" />
    <glyph glyph-name="q" unicode="q" horiz-adv-x="649" 
d="M581 536v-724h-159v255h-2q-19 -32 -58 -56.5t-95 -24.5q-109 0 -168.5 68.5t-59.5 206.5q0 137 65 211.5t169 74.5q51 0 91.5 -22.5t61.5 -61.5h2v73h153zM312 93q53 0 82.5 37.5t29.5 97.5v64q0 70 -29 108.5t-79 38.5q-54 0 -84.5 -43.5t-30.5 -129.5q0 -173 111 -173
z" />
    <glyph glyph-name="r" unicode="r" horiz-adv-x="427" 
d="M68 0v536h150v-113h2q22 58 71 90t106 32h9v-144h-28q-76 0 -114 -31t-38 -105v-265h-158z" />
    <glyph glyph-name="s" unicode="s" horiz-adv-x="536" 
d="M484 387h-140q-2 27 -22 44t-55 17q-36 0 -55.5 -15.5t-19.5 -40.5q0 -46 62 -54l91 -12q155 -21 155 -158q0 -87 -64 -135t-169 -48q-114 0 -171.5 47t-63.5 124h146q4 -69 90 -69q39 0 62 15t23 44q0 25 -14 37.5t-50 17.5l-86 12q-157 22 -157 160q0 75 57 125.5
t165 50.5q101 0 156 -44t60 -118z" />
    <glyph glyph-name="t" unicode="t" horiz-adv-x="401" 
d="M119 687h136v-151h120v-110h-118v-237q0 -41 17 -59.5t57 -18.5l45 4v-116q-63 -6 -106 -6q-170 0 -170 166v267h-79v109h18q51 0 65.5 19.5t14.5 91.5v41z" />
    <glyph glyph-name="u" unicode="u" horiz-adv-x="637" 
d="M222 536v-313q0 -63 16 -88q21 -31 68 -31q105 0 105 139v293h159v-536h-153v87h-2q-50 -97 -168 -97q-96 0 -140 46.5t-44 142.5v357h159z" />
    <glyph glyph-name="v" unicode="v" horiz-adv-x="571" 
d="M203 0l-191 536h160l86 -271q8 -26 15.5 -56t10.5 -47l4 -16h2q11 60 30 119l86 271h153l-192 -536h-164z" />
    <glyph glyph-name="w" unicode="w" horiz-adv-x="860" 
d="M173 0l-156 536h153l71 -270q6 -24 11 -52.5t7 -44.5l2 -16h3q11 59 27 112l80 271h129l80 -271q7 -24 13.5 -52t9.5 -44l3 -16h4q9 59 23 112l70 271h139l-155 -536h-153l-65 213q-9 29 -18 69.5t-14 66.5l-5 26h-2q-20 -98 -40 -162l-66 -213h-151z" />
    <glyph glyph-name="x" unicode="x" horiz-adv-x="570" 
d="M10 0l182 279l-168 257h171l92 -155h2l86 155h168l-168 -255l185 -281h-174l-106 176h-2l-100 -176h-168z" />
    <glyph glyph-name="y" unicode="y" horiz-adv-x="571" 
d="M217 -3l-200 539h164l88 -282q8 -26 14 -52t8 -40l2 -13h3q6 47 23 105l83 282h155l-188 -553q-34 -99 -84 -140.5t-150 -41.5q-58 0 -79 7v116q22 -5 54 -5q45 0 68.5 14.5t34.5 50.5z" />
    <glyph glyph-name="z" unicode="z" horiz-adv-x="544" 
d="M54 421v115h448v-103l-268 -316h273v-117h-463v104l268 317h-258z" />
    <glyph glyph-name="braceleft" unicode="{" horiz-adv-x="413" 
d="M72 273h-30v109h30q33 0 46.5 15.5t13.5 52.5v153q0 107 59.5 148t196.5 41v-92q-78 0 -104 -24t-26 -88v-128q0 -113 -80 -129v-4q80 -17 80 -132v-125q0 -64 26 -88t104 -24v-92q-136 0 -196 40t-60 141v158q0 37 -13.5 52.5t-46.5 15.5z" />
    <glyph glyph-name="bar" unicode="|" horiz-adv-x="289" 
d="M89 -130v918h108v-918h-108z" />
    <glyph glyph-name="braceright" unicode="}" horiz-adv-x="413" 
d="M372 385v-109h-30q-34 0 -47 -15.5t-13 -52.5v-153q0 -107 -60 -148t-197 -41v92q78 0 104.5 24t26.5 88v129q0 112 80 128v4q-80 17 -80 132v125q0 64 -26.5 88t-104.5 24v92q136 0 196.5 -40t60.5 -141v-158q0 -37 13 -52.5t47 -15.5h30z" />
    <glyph glyph-name="asciitilde" unicode="~" horiz-adv-x="449" 
d="M17 254q0 72 31.5 121t90.5 49q35 0 89.5 -25.5t70.5 -25.5q37 0 40 52h93q0 -74 -28.5 -122t-87.5 -48q-34 0 -88.5 25.5t-71.5 25.5q-36 0 -39 -52h-100z" />
    <glyph glyph-name="uni00A0" unicode="&#xa0;" horiz-adv-x="228" 
 />
    <glyph glyph-name="exclamdown" unicode="&#xa1;" horiz-adv-x="330" 
d="M225 431l32 -545h-184l33 545h119zM78 674h175v-152h-175v152z" />
    <glyph glyph-name="cent" unicode="&#xa2;" horiz-adv-x="603" 
d="M421 199h146q-3 -94 -62 -148t-155 -62v-105h-68v104q-113 10 -174.5 83.5t-61.5 196.5q0 121 62.5 194.5t173.5 84.5v88h68v-87q96 -8 153.5 -60.5t61.5 -143.5h-148q-7 82 -67 99v-348q67 19 71 104zM282 96v347q-83 -27 -83 -173q0 -151 83 -174z" />
    <glyph glyph-name="sterling" unicode="&#xa3;" horiz-adv-x="649" 
d="M588 126v-126h-531v92l28 21q55 41 73 81t0 108h-123v97h92l-13 39q-47 139 23.5 226.5t210.5 87.5q125 0 188 -58t61 -165h-160q0 115 -89 115q-36 0 -59.5 -17.5t-33 -59.5t12.5 -113l16 -55h183v-97h-158q15 -98 -65 -167l-8 -7v-2h352z" />
    <glyph glyph-name="currency" unicode="&#xa4;" horiz-adv-x="631" 
d="M226 348q0 -42 24.5 -68.5t63.5 -26.5q40 0 64.5 26.5t24.5 68.5t-24.5 68.5t-64.5 26.5q-39 0 -63.5 -26.5t-24.5 -68.5zM129 348q0 42 18 83l-97 96l86 86l96 -98q38 19 82 19t84 -20l98 100l86 -86l-101 -98q19 -38 19 -82q0 -46 -19 -82l100 -98l-86 -86l-98 99
q-36 -18 -83 -18q-45 0 -82 17l-97 -99l-85 86l98 96q-19 40 -19 85z" />
    <glyph glyph-name="yen" unicode="&#xa5;" horiz-adv-x="654" 
d="M250 0v148h-198v76h198v81h-200v76h188l-217 360h177l135 -242h2l135 242h164l-218 -360h188v-76h-198v-81h200v-76h-200v-148h-156z" />
    <glyph glyph-name="brokenbar" unicode="&#xa6;" horiz-adv-x="289" 
d="M197 788v-404h-108v404h108zM197 -130h-108v417h108v-417z" />
    <glyph glyph-name="section" unicode="&#xa7;" horiz-adv-x="625" 
d="M183 365q0 -27 18.5 -43t55.5 -33l95 -44q36 -16 39 -18q51 11 51 62q0 24 -16.5 40.5t-57.5 35.5l-97 43q-27 12 -34 17q-54 -12 -54 -60zM44 340q0 99 101 138v1q-49 41 -49 117q0 78 60.5 125t158.5 47q209 0 219 -171h-143q-5 69 -75 69q-37 0 -56 -15.5t-19 -40.5
q0 -28 15.5 -42t56.5 -32l131 -57q77 -34 107.5 -72t30.5 -98q0 -97 -98 -134v-2q48 -40 48 -106q0 -88 -61.5 -134.5t-165.5 -46.5q-110 0 -166.5 46t-61.5 130h141q6 -74 88 -74q39 0 60 15.5t21 42.5q0 23 -13.5 37t-47.5 29l-143 62q-72 32 -105.5 66.5t-33.5 99.5z" />
    <glyph glyph-name="dieresis" unicode="&#xa8;" horiz-adv-x="369" 
d="M220 636v137h137v-137h-137zM12 636v137h136v-137h-136z" />
    <glyph glyph-name="copyright" unicode="&#xa9;" horiz-adv-x="899" 
d="M55 380q0 169 112.5 283t281.5 114t282 -114t113 -283q0 -168 -113 -282t-282 -114t-281.5 113.5t-112.5 282.5zM449 41q141 0 235.5 97.5t94.5 241.5t-94.5 242t-235.5 98t-235 -97.5t-94 -242.5q0 -144 94 -241.5t235 -97.5zM643 332q-2 -78 -55 -120.5t-136 -42.5
q-98 0 -151.5 56.5t-53.5 158.5q0 99 55.5 156.5t150.5 57.5q83 0 134.5 -40.5t54.5 -116.5h-120q-2 34 -19.5 55t-49.5 21q-44 0 -63.5 -37.5t-19.5 -94.5q0 -132 82 -132q70 0 74 79h117z" />
    <glyph glyph-name="ordfeminine" unicode="&#xaa;" horiz-adv-x="507" 
d="M229 405q34 0 55.5 24t21.5 67v12q-85 -3 -106 -18q-19 -13 -19 -39q0 -22 13 -34t35 -12zM195 614h-138q2 64 54.5 101t135.5 37q105 0 148.5 -42.5t43.5 -130.5v-133q0 -20 7.5 -27.5t24.5 -7.5v-92h-47q-49 0 -74.5 11.5t-37.5 45.5h-2q-40 -62 -127 -62
q-64 0 -103 34.5t-39 92.5q0 72 64 106q31 17 75.5 23.5t124.5 8.5v21q0 61 -54 61q-24 0 -39 -13t-17 -34z" />
    <glyph glyph-name="guillemotleft" unicode="&#xab;" horiz-adv-x="531" 
d="M364 464h116l-97 -206l98 -201h-116l-108 204zM145 464h116l-97 -206l99 -201h-117l-108 204z" />
    <glyph glyph-name="logicalnot" unicode="&#xac;" horiz-adv-x="632" 
d="M569 104h-125v196h-381v116h506v-312z" />
    <glyph glyph-name="registered" unicode="&#xae;" horiz-adv-x="513" 
d="M40 557q0 93 61.5 156t154.5 63t155 -63t62 -156t-62 -155.5t-155 -62.5t-154.5 62.5t-61.5 155.5zM256 377q74 0 123.5 51.5t49.5 128.5t-49.5 129t-123.5 52t-123 -52t-49 -129t49 -128.5t123 -51.5zM226 578h28q38 0 38 33q0 29 -37 29h-29v-62zM226 538v-86h-56v225
h101q33 0 56 -17t23 -51q0 -47 -46 -62l49 -95h-62l-41 86h-24z" />
    <glyph glyph-name="macron" unicode="&#xaf;" horiz-adv-x="369" 
d="M13 636v104h342v-104h-342z" />
    <glyph glyph-name="degree" unicode="&#xb0;" horiz-adv-x="445" 
d="M54 594q0 72 48 120.5t120 48.5q73 0 121 -48.5t48 -120.5t-48 -120t-121 -48t-120.5 48t-47.5 120zM222 503q39 0 62.5 25.5t23.5 65.5t-23.5 66t-62.5 26q-38 0 -61.5 -26t-23.5 -66t23.5 -65.5t61.5 -25.5z" />
    <glyph glyph-name="plusminus" unicode="&#xb1;" horiz-adv-x="633" 
d="M378 369v-170h-125v170h-190v116h190v168h125v-168h191v-116h-191zM63 0v115h506v-115h-506z" />
    <glyph glyph-name="twosuperior" unicode="&#xb2;" horiz-adv-x="430" 
d="M147 664h-113q2 73 48 115t132 42t128.5 -35t42.5 -91q0 -46 -24 -79.5t-81 -78.5l-79 -65v-2h187v-86h-358v61l174 151q35 30 49 49.5t14 42.5q0 24 -14.5 38t-39.5 14q-66 0 -66 -76z" />
    <glyph glyph-name="threesuperior" unicode="&#xb3;" horiz-adv-x="437" 
d="M218 567h-50v71h41q26 0 43.5 14t17.5 38t-16 37.5t-41 13.5q-29 0 -43.5 -15t-15.5 -39h-113q2 55 45 95.5t134 40.5q78 0 122 -33t44 -84q0 -76 -85 -97v-2q96 -17 96 -103q0 -54 -47.5 -91.5t-132.5 -37.5q-93 0 -135.5 39t-44.5 97h116q2 -25 19.5 -39t43.5 -14
q30 0 48 16t18 40q0 25 -17 39t-47 14z" />
    <glyph glyph-name="acute" unicode="&#xb4;" horiz-adv-x="369" 
d="M94 614l51 174h158l-88 -174h-121z" />
    <glyph glyph-name="paragraph" unicode="&#xb6;" horiz-adv-x="616" 
d="M440 765h99v-765h-99v765zM261 374q-97 2 -155 52.5t-58 144.5q0 98 60.5 146t161.5 48h89v-765h-98v374z" />
    <glyph glyph-name="periodcentered" unicode="&#xb7;" horiz-adv-x="291" 
d="M61 267v159h169v-159h-169z" />
    <glyph glyph-name="cedilla" unicode="&#xb8;" horiz-adv-x="536" 
d="M244 30h53l-35 -76h2q14 10 40 10q37 0 60.5 -24t23.5 -65q0 -39 -30 -66.5t-87 -27.5q-49 0 -76.5 22.5t-29.5 56.5h77q7 -21 31 -21q32 0 32 32q0 31 -32 31q-17 0 -27 -13h-65z" />
    <glyph glyph-name="onesuperior" unicode="&#xb9;" horiz-adv-x="305" 
d="M118 384v280h-94v76h14q42 0 66 17q24 18 24 58h105v-431h-115z" />
    <glyph glyph-name="ordmasculine" unicode="&#xba;" horiz-adv-x="528" 
d="M264 309q-102 0 -161 58t-59 163t59 163t161 58q98 0 159 -58t61 -163q0 -102 -61 -161.5t-159 -59.5zM264 653q-77 0 -77 -123t77 -123t77 123t-77 123z" />
    <glyph glyph-name="guillemotright" unicode="&#xbb;" horiz-adv-x="538" 
d="M168 57h-117l98 206l-99 201h117l107 -203zM393 57h-117l98 206l-99 201h117l107 -203z" />
    <glyph glyph-name="onequarter" unicode="&#xbc;" horiz-adv-x="873" 
d="M118 334v280h-94v76h14q42 0 66 17q24 18 24 58h105v-431h-115zM74 -40l547 821h111l-547 -821h-111zM556 170h126v184h-3q-12 -32 -35 -63zM841 90h-56v-90h-107v90h-226v76l196 265h137v-256h56v-85z" />
    <glyph glyph-name="onehalf" unicode="&#xbd;" horiz-adv-x="918" 
d="M73 -40l547 821h111l-547 -821h-111zM118 334v280h-94v76h14q42 0 66 17q24 18 24 58h105v-431h-115zM635 280h-113q2 73 48 115t132 42t128.5 -35t42.5 -91q0 -45 -24 -78t-81 -80l-79 -65v-2h187v-86h-358v61l174 151q36 31 49.5 50.5t13.5 41.5q0 24 -14.5 38
t-39.5 14q-66 0 -66 -76z" />
    <glyph glyph-name="threequarters" unicode="&#xbe;" horiz-adv-x="952" 
d="M218 517h-50v71h41q26 0 43.5 14t17.5 38t-16 37.5t-41 13.5q-29 0 -43.5 -15t-15.5 -39h-113q2 55 45 95.5t134 40.5q78 0 122 -33t44 -84q0 -76 -85 -97v-2q96 -17 96 -103q0 -54 -47.5 -91.5t-132.5 -37.5q-93 0 -135.5 39t-44.5 97h116q2 -25 19.5 -39t43.5 -14
q30 0 48 16t18 40q0 25 -17 39t-47 14zM171 -40l547 821h111l-547 -821h-111zM635 170h126v184h-3q-12 -32 -35 -63zM920 90h-56v-90h-107v90h-226v76l196 265h137v-256h56v-85z" />
    <glyph glyph-name="questiondown" unicode="&#xbf;" horiz-adv-x="591" 
d="M188 94q0 -42 27 -67t75 -25q53 0 85.5 33.5t32.5 109.5h152q2 -120 -69.5 -193.5t-203.5 -73.5q-128 0 -191.5 58t-63.5 150q0 65 25 108.5t79 87.5l67 56q17 13 22.5 23.5t5.5 30.5v43h137v-64q0 -47 -10.5 -68.5t-50.5 -53.5l-57 -47q-32 -27 -47 -50t-15 -58z
M212 674h175v-152h-175v152z" />
    <glyph glyph-name="Agrave" unicode="&#xc0;" horiz-adv-x="761" 
d="M373 624q-20 -80 -30 -111l-71 -223h202l-70 222q-9 30 -16.5 58t-9.5 41l-3 13h-2zM570 0l-56 170h-281l-56 -170h-157l267 765h184l271 -765h-172zM374 960l64 -133h-120l-103 133h159z" />
    <glyph glyph-name="Aacute" unicode="&#xc1;" horiz-adv-x="761" 
d="M373 624q-20 -80 -30 -111l-71 -223h202l-70 222q-9 30 -16.5 58t-9.5 41l-3 13h-2zM570 0l-56 170h-281l-56 -170h-157l267 765h184l271 -765h-172zM316 827l64 133h158l-103 -133h-119z" />
    <glyph glyph-name="Acircumflex" unicode="&#xc2;" horiz-adv-x="761" 
d="M373 624q-20 -80 -30 -111l-71 -223h202l-70 222q-9 30 -16.5 58t-9.5 41l-3 13h-2zM570 0l-56 170h-281l-56 -170h-157l267 765h184l271 -765h-172zM451 960l108 -133h-115l-66 56h-1l-64 -56h-106l108 133h136z" />
    <glyph glyph-name="Atilde" unicode="&#xc3;" horiz-adv-x="761" 
d="M373 624q-20 -80 -30 -111l-71 -223h202l-70 222q-9 30 -16.5 58t-9.5 41l-3 13h-2zM570 0l-56 170h-281l-56 -170h-157l267 765h184l271 -765h-172zM190 819q4 155 116 155q34 0 80 -26t63 -26q35 0 49 53h71q-4 -155 -116 -155q-34 0 -80 26t-64 26q-35 0 -47 -53h-72z
" />
    <glyph glyph-name="Adieresis" unicode="&#xc4;" horiz-adv-x="761" 
d="M373 624q-20 -80 -30 -111l-71 -223h202l-70 222q-9 30 -16.5 58t-9.5 41l-3 13h-2zM570 0l-56 170h-281l-56 -170h-157l267 765h184l271 -765h-172zM420 828v137h136v-137h-136zM205 828v137h136v-137h-136z" />
    <glyph glyph-name="Aring" unicode="&#xc5;" horiz-adv-x="761" 
d="M373 624q-20 -80 -30 -111l-71 -223h202l-70 222q-9 30 -16.5 58t-9.5 41l-3 13h-2zM570 0l-56 170h-281l-56 -170h-157l267 765h184l271 -765h-172zM379 797q-61 0 -96 33.5t-35 88.5t37 89.5t95 34.5q62 0 96.5 -34t34.5 -90q0 -55 -36.5 -88.5t-95.5 -33.5zM379 980
q-24 0 -38.5 -17t-14.5 -44t14.5 -44t39.5 -17q24 0 38 17t14 44q0 28 -14 44.5t-39 16.5z" />
    <glyph glyph-name="AE" unicode="&#xc6;" horiz-adv-x="1093" 
d="M525 303v337h-47l-156 -337h203zM267 183l-85 -183h-170l372 765h642v-125h-336v-197h318v-122h-318v-197h345v-124h-510v183h-258z" />
    <glyph glyph-name="Ccedilla" unicode="&#xc7;" horiz-adv-x="766" 
d="M390 -232q-49 0 -76.5 22.5t-29.5 56.5h77q7 -21 31 -21q32 0 32 32q0 31 -32 31q-17 0 -27 -13h-65l50 111q-148 16 -224 116t-76 269q0 189 94 296.5t260 107.5q141 0 225 -71t92 -199h-169q-6 68 -45.5 108t-102.5 40q-80 0 -128.5 -71.5t-48.5 -204.5
q0 -130 46.5 -200.5t129.5 -70.5q67 0 105 40t45 113h167q-6 -125 -90 -200.5t-223 -75.5h-6l-20 -43h2q14 10 40 10q37 0 60.5 -24t23.5 -65q0 -39 -30 -66.5t-87 -27.5z" />
    <glyph glyph-name="Egrave" unicode="&#xc8;" horiz-adv-x="648" 
d="M328 960l64 -133h-120l-103 133h159zM77 0v765h504v-125h-340v-197h322v-122h-322v-197h349v-124h-513z" />
    <glyph glyph-name="Eacute" unicode="&#xc9;" horiz-adv-x="648" 
d="M271 827l64 133h158l-103 -133h-119zM77 0v765h504v-125h-340v-197h322v-122h-322v-197h349v-124h-513z" />
    <glyph glyph-name="Ecircumflex" unicode="&#xca;" horiz-adv-x="648" 
d="M405 960l108 -133h-115l-66 56h-1l-64 -56h-106l108 133h136zM77 0v765h504v-125h-340v-197h322v-122h-322v-197h349v-124h-513z" />
    <glyph glyph-name="Edieresis" unicode="&#xcb;" horiz-adv-x="648" 
d="M77 0v765h504v-125h-340v-197h322v-122h-322v-197h349v-124h-513zM373 828v137h136v-137h-136zM158 828v137h136v-137h-136z" />
    <glyph glyph-name="Igrave" unicode="&#xcc;" horiz-adv-x="318" 
d="M77 0v765h164v-765h-164zM153 960l64 -133h-120l-103 133h159z" />
    <glyph glyph-name="Iacute" unicode="&#xcd;" horiz-adv-x="318" 
d="M77 0v765h164v-765h-164zM96 827l64 133h158l-103 -133h-119z" />
    <glyph glyph-name="Icircumflex" unicode="&#xce;" horiz-adv-x="318" 
d="M77 0v765h164v-765h-164zM230 960l108 -133h-115l-66 56h-1l-64 -56h-106l108 133h136z" />
    <glyph glyph-name="Idieresis" unicode="&#xcf;" horiz-adv-x="318" 
d="M77 0v765h164v-765h-164zM198 828v137h136v-137h-136zM-17 828v137h136v-137h-136z" />
    <glyph glyph-name="Eth" unicode="&#xd0;" horiz-adv-x="792" 
d="M364 0h-265v329h-75v111h75v325h262q177 0 279.5 -92t102.5 -281q0 -191 -102.5 -291.5t-276.5 -100.5zM263 124h89q105 0 161 61t56 203q0 255 -212 255h-94v-203h166v-111h-166v-205z" />
    <glyph glyph-name="Ntilde" unicode="&#xd1;" horiz-adv-x="789" 
d="M205 819q4 155 116 155q35 0 81 -26t62 -26q35 0 49 53h71q-4 -155 -116 -155q-34 0 -80 26t-64 26q-35 0 -47 -53h-72zM77 0v765h181l247 -414q17 -29 31 -57.5t19 -42.5l5 -14h3v528h150v-765h-173l-254 422q-18 30 -32.5 59t-19.5 43l-6 14h-3v-538h-148z" />
    <glyph glyph-name="Ograve" unicode="&#xd2;" horiz-adv-x="822" 
d="M405 960l64 -133h-120l-103 133h159zM50 380q0 186 99 291t262 105q170 0 265.5 -103t95.5 -293q0 -187 -97.5 -291.5t-263.5 -104.5q-172 0 -266.5 103t-94.5 293zM411 104q88 0 136 70.5t48 205.5q0 134 -50.5 206t-133.5 72q-88 0 -135.5 -70.5t-47.5 -207.5
q0 -276 183 -276z" />
    <glyph glyph-name="Oacute" unicode="&#xd3;" horiz-adv-x="822" 
d="M346 827l64 133h158l-103 -133h-119zM50 380q0 186 99 291t262 105q170 0 265.5 -103t95.5 -293q0 -187 -97.5 -291.5t-263.5 -104.5q-172 0 -266.5 103t-94.5 293zM411 104q88 0 136 70.5t48 205.5q0 134 -50.5 206t-133.5 72q-88 0 -135.5 -70.5t-47.5 -207.5
q0 -276 183 -276z" />
    <glyph glyph-name="Ocircumflex" unicode="&#xd4;" horiz-adv-x="822" 
d="M481 960l108 -133h-115l-66 56h-1l-64 -56h-106l108 133h136zM50 380q0 186 99 291t262 105q170 0 265.5 -103t95.5 -293q0 -187 -97.5 -291.5t-263.5 -104.5q-172 0 -266.5 103t-94.5 293zM411 104q88 0 136 70.5t48 205.5q0 134 -50.5 206t-133.5 72
q-88 0 -135.5 -70.5t-47.5 -207.5q0 -276 183 -276z" />
    <glyph glyph-name="Otilde" unicode="&#xd5;" horiz-adv-x="822" 
d="M221 819q4 155 116 155q35 0 81 -26t62 -26q35 0 49 53h71q-4 -155 -116 -155q-34 0 -80 26t-64 26q-35 0 -47 -53h-72zM50 380q0 186 99 291t262 105q170 0 265.5 -103t95.5 -293q0 -187 -97.5 -291.5t-263.5 -104.5q-172 0 -266.5 103t-94.5 293zM411 104
q88 0 136 70.5t48 205.5q0 134 -50.5 206t-133.5 72q-88 0 -135.5 -70.5t-47.5 -207.5q0 -276 183 -276z" />
    <glyph glyph-name="Odieresis" unicode="&#xd6;" horiz-adv-x="822" 
d="M450 828v137h136v-137h-136zM235 828v137h136v-137h-136zM50 380q0 186 99 291t262 105q170 0 265.5 -103t95.5 -293q0 -187 -97.5 -291.5t-263.5 -104.5q-172 0 -266.5 103t-94.5 293zM411 104q88 0 136 70.5t48 205.5q0 134 -50.5 206t-133.5 72q-88 0 -135.5 -70.5
t-47.5 -207.5q0 -276 183 -276z" />
    <glyph glyph-name="multiply" unicode="&#xd7;" horiz-adv-x="632" 
d="M149 95l-86 86l169 166l-168 166l86 87l166 -168l166 168l86 -85l-168 -167l168 -166l-86 -87l-167 169z" />
    <glyph glyph-name="Oslash" unicode="&#xd8;" horiz-adv-x="822" 
d="M411 660q-90 0 -138.5 -70.5t-48.5 -209.5q0 -82 14 -137l295 368q-46 49 -122 49zM411 101q90 0 139 71.5t49 207.5q0 89 -21 152l-300 -374q46 -57 133 -57zM772 380q0 -187 -97.5 -291.5t-263.5 -104.5q-133 0 -221 63l-58 -72h-108l105 131q-79 100 -79 274
q0 186 99 291t262 105q124 0 210 -56l58 73h108l-103 -129q88 -103 88 -284z" />
    <glyph glyph-name="Ugrave" unicode="&#xd9;" horiz-adv-x="761" 
d="M375 960l64 -133h-120l-103 133h159zM69 267v498h164l-1 -446q0 -117 30 -155q40 -50 119 -50q84 0 123 50q13 17 19 48t6.5 47.5t0.5 59.5v446h162v-498q0 -141 -83.5 -212t-229.5 -71t-228 71t-82 212z" />
    <glyph glyph-name="Uacute" unicode="&#xda;" horiz-adv-x="761" 
d="M317 827l64 133h158l-103 -133h-119zM69 267v498h164l-1 -446q0 -117 30 -155q40 -50 119 -50q84 0 123 50q13 17 19 48t6.5 47.5t0.5 59.5v446h162v-498q0 -141 -83.5 -212t-229.5 -71t-228 71t-82 212z" />
    <glyph glyph-name="Ucircumflex" unicode="&#xdb;" horiz-adv-x="761" 
d="M452 960l108 -133h-115l-66 56h-1l-64 -56h-106l108 133h136zM69 267v498h164l-1 -446q0 -117 30 -155q40 -50 119 -50q84 0 123 50q13 17 19 48t6.5 47.5t0.5 59.5v446h162v-498q0 -141 -83.5 -212t-229.5 -71t-228 71t-82 212z" />
    <glyph glyph-name="Udieresis" unicode="&#xdc;" horiz-adv-x="761" 
d="M69 267v498h164l-1 -446q0 -117 30 -155q40 -50 119 -50q84 0 123 50q13 17 19 48t6.5 47.5t0.5 59.5v446h162v-498q0 -141 -83.5 -212t-229.5 -71t-228 71t-82 212zM419 828v137h136v-137h-136zM204 828v137h136v-137h-136z" />
    <glyph glyph-name="Yacute" unicode="&#xdd;" horiz-adv-x="697" 
d="M267 0v320l-256 445h181l161 -301h2l163 301h168l-255 -442v-323h-164zM292 827l64 133h158l-103 -133h-119z" />
    <glyph glyph-name="Thorn" unicode="&#xde;" horiz-adv-x="668" 
d="M344 276h6q126 3 126 116t-130 113h-105v-229h103zM358 161h-117v-161h-164v765h164v-148h128q122 0 194 -54.5t72 -169.5q0 -120 -74.5 -176t-202.5 -56z" />
    <glyph glyph-name="germandbls" unicode="&#xdf;" horiz-adv-x="649" 
d="M68 0v555q0 113 65.5 175t196.5 62q112 0 174.5 -55.5t62.5 -145.5q0 -68 -33 -110.5t-83 -58.5v-3q72 -14 116.5 -63.5t44.5 -131.5q0 -107 -73 -165.5t-204 -58.5h-40v115h32q55 0 87.5 29.5t32.5 88.5q0 58 -34 92t-88 34h-16v115h15q44 0 69.5 27.5t25.5 82.5
q0 53 -26.5 77.5t-69.5 24.5q-42 0 -69 -28t-27 -88v-570h-159z" />
    <glyph glyph-name="agrave" unicode="&#xe0;" horiz-adv-x="584" 
d="M256 94q44 0 75 34.5t31 97.5v17q-119 -7 -151 -29q-26 -17 -26 -54q0 -30 19 -48t52 -18zM203 377h-152q5 80 65.5 125.5t165.5 45.5q127 0 180 -52t53 -162v-185q0 -22 9 -31t34 -9v-110h-53q-60 0 -89.5 15.5t-41.5 58.5h-2q-54 -79 -162 -79q-84 0 -133 42t-49 117
q0 91 81 134q39 21 94.5 28.5t157.5 11.5v29q0 90 -79 90q-38 0 -57.5 -19t-21.5 -50zM303 788l51 -174h-121l-88 174h158z" />
    <glyph glyph-name="aacute" unicode="&#xe1;" horiz-adv-x="584" 
d="M256 94q44 0 75 34.5t31 97.5v17q-119 -7 -151 -29q-26 -17 -26 -54q0 -30 19 -48t52 -18zM203 377h-152q5 80 65.5 125.5t165.5 45.5q127 0 180 -52t53 -162v-185q0 -22 9 -31t34 -9v-110h-53q-60 0 -89.5 15.5t-41.5 58.5h-2q-54 -79 -162 -79q-84 0 -133 42t-49 117
q0 91 81 134q39 21 94.5 28.5t157.5 11.5v29q0 90 -79 90q-38 0 -57.5 -19t-21.5 -50zM221 614l51 174h158l-88 -174h-121z" />
    <glyph glyph-name="acircumflex" unicode="&#xe2;" horiz-adv-x="584" 
d="M256 94q44 0 75 34.5t31 97.5v17q-119 -7 -151 -29q-26 -17 -26 -54q0 -30 19 -48t52 -18zM203 377h-152q5 80 65.5 125.5t165.5 45.5q127 0 180 -52t53 -162v-185q0 -22 9 -31t34 -9v-110h-53q-60 0 -89.5 15.5t-41.5 58.5h-2q-54 -79 -162 -79q-84 0 -133 42t-49 117
q0 91 81 134q39 21 94.5 28.5t157.5 11.5v29q0 90 -79 90q-38 0 -57.5 -19t-21.5 -50zM357 788l110 -174h-109l-69 77h-1l-66 -77h-101l110 174h126z" />
    <glyph glyph-name="atilde" unicode="&#xe3;" horiz-adv-x="584" 
d="M256 94q44 0 75 34.5t31 97.5v17q-119 -7 -151 -29q-26 -17 -26 -54q0 -30 19 -48t52 -18zM203 377h-152q5 80 65.5 125.5t165.5 45.5q127 0 180 -52t53 -162v-185q0 -22 9 -31t34 -9v-110h-53q-60 0 -89.5 15.5t-41.5 58.5h-2q-54 -79 -162 -79q-84 0 -133 42t-49 117
q0 91 81 134q39 21 94.5 28.5t157.5 11.5v29q0 90 -79 90q-38 0 -57.5 -19t-21.5 -50zM101 614q0 73 28.5 118.5t89.5 45.5q34 0 78.5 -25.5t61.5 -25.5q38 0 50 52h71q0 -74 -28.5 -119.5t-89.5 -45.5q-34 0 -78.5 25.5t-61.5 25.5q-38 0 -49 -51h-72z" />
    <glyph glyph-name="adieresis" unicode="&#xe4;" horiz-adv-x="584" 
d="M256 94q44 0 75 34.5t31 97.5v17q-119 -7 -151 -29q-26 -17 -26 -54q0 -30 19 -48t52 -18zM203 377h-152q5 80 65.5 125.5t165.5 45.5q127 0 180 -52t53 -162v-185q0 -22 9 -31t34 -9v-110h-53q-60 0 -89.5 15.5t-41.5 58.5h-2q-54 -79 -162 -79q-84 0 -133 42t-49 117
q0 91 81 134q39 21 94.5 28.5t157.5 11.5v29q0 90 -79 90q-38 0 -57.5 -19t-21.5 -50zM326 636v137h137v-137h-137zM118 636v137h136v-137h-136z" />
    <glyph glyph-name="aring" unicode="&#xe5;" horiz-adv-x="584" 
d="M256 94q44 0 75 34.5t31 97.5v17q-119 -7 -151 -29q-26 -17 -26 -54q0 -30 19 -48t52 -18zM203 377h-152q5 80 65.5 125.5t165.5 45.5q127 0 180 -52t53 -162v-185q0 -22 9 -31t34 -9v-110h-53q-60 0 -89.5 15.5t-41.5 58.5h-2q-54 -79 -162 -79q-84 0 -133 42t-49 117
q0 91 81 134q39 21 94.5 28.5t157.5 11.5v29q0 90 -79 90q-38 0 -57.5 -19t-21.5 -50zM292 602q-61 0 -96 33.5t-35 89.5q0 54 37 88.5t95 34.5q62 0 96.5 -34t34.5 -89t-36.5 -89t-95.5 -34zM292 785q-24 0 -38.5 -16.5t-14.5 -44.5q0 -27 14.5 -43.5t39.5 -16.5
q24 0 38 16.5t14 43.5q0 28 -14 44.5t-39 16.5z" />
    <glyph glyph-name="ae" unicode="&#xe6;" horiz-adv-x="915" 
d="M714 322v6q-10 122 -100 122q-92 0 -103 -128h203zM256 94q45 0 76 35t31 97v13q-115 0 -152 -25q-26 -17 -26 -54q0 -30 19.5 -48t51.5 -18zM871 156q-13 -81 -78 -125.5t-173 -44.5q-154 0 -210 101h-2q-66 -93 -198 -93q-84 0 -133 42t-49 117q0 91 81 134
q64 34 252 37v32q0 90 -79 90q-75 0 -79 -69h-152q5 81 65.5 126t167.5 45q118 0 163 -68h2q56 69 167 69q132 0 195.5 -75.5t63.5 -200.5v-42h-364q5 -72 32 -105t78 -33q75 0 93 63h157z" />
    <glyph glyph-name="ccedilla" unicode="&#xe7;" horiz-adv-x="595" 
d="M307 -232q-49 0 -76.5 22.5t-29.5 56.5h77q7 -21 31 -21q32 0 32 32q0 31 -32 31q-17 0 -27 -13h-65l51 113q-111 12 -170.5 85t-59.5 194q0 130 73 205.5t198 75.5q110 0 177.5 -53t70.5 -152h-156q-9 99 -92 99q-58 0 -83 -48.5t-25 -124.5q0 -174 107 -174
q49 0 72 29.5t25 73.5h154q-3 -100 -68.5 -154.5t-171.5 -57.5l-21 -46h2q14 10 40 10q37 0 60.5 -24t23.5 -65q0 -39 -30 -66.5t-87 -27.5z" />
    <glyph glyph-name="egrave" unicode="&#xe8;" horiz-adv-x="601" 
d="M400 322v7q-8 121 -95 121q-95 0 -107 -128h202zM557 156q-12 -79 -79 -124.5t-175 -45.5q-128 0 -196.5 76t-68.5 207q0 125 71 202.5t196 77.5q130 0 193.5 -75.5t63.5 -200.5v-42h-364q10 -138 110 -138q73 0 93 63h156zM318 788l51 -174h-121l-88 174h158z" />
    <glyph glyph-name="eacute" unicode="&#xe9;" horiz-adv-x="601" 
d="M234 614l51 174h158l-88 -174h-121zM400 322v7q-8 121 -95 121q-95 0 -107 -128h202zM557 156q-12 -79 -79 -124.5t-175 -45.5q-128 0 -196.5 76t-68.5 207q0 125 71 202.5t196 77.5q130 0 193.5 -75.5t63.5 -200.5v-42h-364q10 -138 110 -138q73 0 93 63h156z" />
    <glyph glyph-name="ecircumflex" unicode="&#xea;" horiz-adv-x="601" 
d="M371 788l110 -174h-109l-69 77h-1l-66 -77h-101l110 174h126zM400 322v7q-8 121 -95 121q-95 0 -107 -128h202zM557 156q-12 -79 -79 -124.5t-175 -45.5q-128 0 -196.5 76t-68.5 207q0 125 71 202.5t196 77.5q130 0 193.5 -75.5t63.5 -200.5v-42h-364q10 -138 110 -138
q73 0 93 63h156z" />
    <glyph glyph-name="edieresis" unicode="&#xeb;" horiz-adv-x="601" 
d="M339 636v137h137v-137h-137zM131 636v137h136v-137h-136zM400 322v7q-8 121 -95 121q-95 0 -107 -128h202zM557 156q-12 -79 -79 -124.5t-175 -45.5q-128 0 -196.5 76t-68.5 207q0 125 71 202.5t196 77.5q130 0 193.5 -75.5t63.5 -200.5v-42h-364q10 -138 110 -138
q73 0 93 63h156z" />
    <glyph glyph-name="igrave" unicode="&#xec;" horiz-adv-x="295" 
d="M68 0v536h159v-536h-159zM163 788l51 -174h-121l-88 174h158z" />
    <glyph glyph-name="iacute" unicode="&#xed;" horiz-adv-x="295" 
d="M78 614l51 174h158l-88 -174h-121zM68 0v536h159v-536h-159z" />
    <glyph glyph-name="icircumflex" unicode="&#xee;" horiz-adv-x="295" 
d="M205 788l99 -174h-98l-62 77h-1l-59 -77h-91l99 174h113zM68 0v536h159v-536h-159z" />
    <glyph glyph-name="idieresis" unicode="&#xef;" horiz-adv-x="295" 
d="M180 636v137h123v-137h-123zM-7 636v137h122v-137h-122zM68 0v536h159v-536h-159z" />
    <glyph glyph-name="eth" unicode="&#xf0;" horiz-adv-x="622" 
d="M308 -14q-127 0 -198.5 73t-71.5 206q0 127 64 203.5t167 76.5q64 0 109 -45h2q-31 61 -107 124l-133 -52l-24 63l94 37q-26 19 -106 68l117 55q76 -32 129 -68l108 42l23 -63l-70 -27q168 -152 168 -388q0 -153 -72.5 -229t-198.5 -76zM310 444q-108 0 -108 -179
q0 -172 107 -172q106 0 106 172q0 179 -105 179z" />
    <glyph glyph-name="ntilde" unicode="&#xf1;" horiz-adv-x="641" 
d="M420 0v313q0 66 -16 89q-22 31 -69 31q-53 0 -80.5 -32t-27.5 -91v-310h-159v536h153v-88h2q53 99 174 99q95 0 138.5 -49t43.5 -150v-348h-159zM137 613q0 73 28.5 118.5t89.5 45.5q34 0 78.5 -25.5t61.5 -25.5q38 0 50 52h71q0 -74 -28.5 -119.5t-89.5 -45.5
q-34 0 -78.5 25.5t-61.5 25.5q-38 0 -49 -51h-72z" />
    <glyph glyph-name="ograve" unicode="&#xf2;" horiz-adv-x="619" 
d="M309 -14q-127 0 -199 75.5t-72 206.5q0 132 73 206.5t199 74.5q124 0 197.5 -74.5t73.5 -206.5q0 -130 -75 -206t-197 -76zM310 442q-108 0 -108 -174q0 -175 108 -175q106 0 106 175q0 174 -106 174zM325 788l51 -174h-121l-88 174h158z" />
    <glyph glyph-name="oacute" unicode="&#xf3;" horiz-adv-x="619" 
d="M240 614l51 174h158l-88 -174h-121zM309 -14q-127 0 -199 75.5t-72 206.5q0 132 73 206.5t199 74.5q124 0 197.5 -74.5t73.5 -206.5q0 -130 -75 -206t-197 -76zM310 442q-108 0 -108 -174q0 -175 108 -175q106 0 106 175q0 174 -106 174z" />
    <glyph glyph-name="ocircumflex" unicode="&#xf4;" horiz-adv-x="619" 
d="M377 788l110 -174h-109l-69 77h-1l-66 -77h-101l110 174h126zM309 -14q-127 0 -199 75.5t-72 206.5q0 132 73 206.5t199 74.5q124 0 197.5 -74.5t73.5 -206.5q0 -130 -75 -206t-197 -76zM310 442q-108 0 -108 -174q0 -175 108 -175q106 0 106 175q0 174 -106 174z" />
    <glyph glyph-name="otilde" unicode="&#xf5;" horiz-adv-x="619" 
d="M309 -14q-127 0 -199 75.5t-72 206.5q0 132 73 206.5t199 74.5q124 0 197.5 -74.5t73.5 -206.5q0 -130 -75 -206t-197 -76zM310 442q-108 0 -108 -174q0 -175 108 -175q106 0 106 175q0 174 -106 174zM120 614q0 73 28.5 118.5t89.5 45.5q34 0 78.5 -25.5t61.5 -25.5
q38 0 50 52h71q0 -74 -28.5 -119.5t-89.5 -45.5q-34 0 -78.5 25.5t-61.5 25.5q-38 0 -49 -51h-72z" />
    <glyph glyph-name="odieresis" unicode="&#xf6;" horiz-adv-x="619" 
d="M345 636v137h137v-137h-137zM137 636v137h136v-137h-136zM309 -14q-127 0 -199 75.5t-72 206.5q0 132 73 206.5t199 74.5q124 0 197.5 -74.5t73.5 -206.5q0 -130 -75 -206t-197 -76zM310 442q-108 0 -108 -174q0 -175 108 -175q106 0 106 175q0 174 -106 174z" />
    <glyph glyph-name="divide" unicode="&#xf7;" horiz-adv-x="633" 
d="M239 492v143h153v-143h-153zM76 300v116h480v-116h-480zM392 78h-153v144h153v-144z" />
    <glyph glyph-name="oslash" unicode="&#xf8;" horiz-adv-x="619" 
d="M310 445q-113 0 -113 -177q0 -41 6 -74l180 223q-26 28 -73 28zM310 91q112 0 112 177q0 36 -5 73l-181 -222q26 -28 74 -28zM581 268q0 -130 -75 -206t-197 -76q-87 0 -150 37l-50 -61h-94l87 108q-64 75 -64 198q0 132 73 206.5t199 74.5q87 0 150 -37l49 60h95
l-87 -108q64 -73 64 -196z" />
    <glyph glyph-name="ugrave" unicode="&#xf9;" horiz-adv-x="637" 
d="M222 536v-313q0 -63 16 -88q21 -31 68 -31q105 0 105 139v293h159v-536h-153v87h-2q-50 -97 -168 -97q-96 0 -140 46.5t-44 142.5v357h159zM332 788l51 -174h-121l-88 174h158z" />
    <glyph glyph-name="uacute" unicode="&#xfa;" horiz-adv-x="637" 
d="M247 614l51 174h158l-88 -174h-121zM222 536v-313q0 -63 16 -88q21 -31 68 -31q105 0 105 139v293h159v-536h-153v87h-2q-50 -97 -168 -97q-96 0 -140 46.5t-44 142.5v357h159z" />
    <glyph glyph-name="ucircumflex" unicode="&#xfb;" horiz-adv-x="637" 
d="M384 788l110 -174h-109l-69 77h-1l-66 -77h-101l110 174h126zM222 536v-313q0 -63 16 -88q21 -31 68 -31q105 0 105 139v293h159v-536h-153v87h-2q-50 -97 -168 -97q-96 0 -140 46.5t-44 142.5v357h159z" />
    <glyph glyph-name="udieresis" unicode="&#xfc;" horiz-adv-x="637" 
d="M354 636v137h137v-137h-137zM146 636v137h136v-137h-136zM222 536v-313q0 -63 16 -88q21 -31 68 -31q105 0 105 139v293h159v-536h-153v87h-2q-50 -97 -168 -97q-96 0 -140 46.5t-44 142.5v357h159z" />
    <glyph glyph-name="yacute" unicode="&#xfd;" horiz-adv-x="571" 
d="M217 -3l-200 539h164l88 -282q8 -26 14 -52t8 -40l2 -13h3q6 47 23 105l83 282h155l-188 -553q-34 -99 -84 -140.5t-150 -41.5q-58 0 -79 7v116q22 -5 54 -5q45 0 68.5 14.5t34.5 50.5zM226 614l51 174h158l-88 -174h-121z" />
    <glyph glyph-name="thorn" unicode="&#xfe;" horiz-adv-x="646" 
d="M225 239q0 -66 28 -106t82 -40q53 0 81.5 44.5t28.5 130.5q0 171 -111 171q-49 0 -79 -38t-30 -104v-58zM68 -188v976h159v-332h2q22 40 64 66t99 26q99 0 157 -68t58 -210q0 -133 -62.5 -208t-167.5 -75t-147 80h-3v-255h-159z" />
    <glyph glyph-name="ydieresis" unicode="&#xff;" horiz-adv-x="571" 
d="M217 -3l-200 539h164l88 -282q8 -26 14 -52t8 -40l2 -13h3q6 47 23 105l83 282h155l-188 -553q-34 -99 -84 -140.5t-150 -41.5q-58 0 -79 7v116q22 -5 54 -5q45 0 68.5 14.5t34.5 50.5zM331 636v137h137v-137h-137zM123 636v137h136v-137h-136z" />
    <glyph glyph-name="Amacron" unicode="&#x100;" horiz-adv-x="761" 
d="M373 624q-20 -80 -30 -111l-71 -223h202l-70 222q-9 30 -16.5 58t-9.5 41l-3 13h-2zM570 0l-56 170h-281l-56 -170h-157l267 765h184l271 -765h-172zM208 838v104h342v-104h-342z" />
    <glyph glyph-name="amacron" unicode="&#x101;" horiz-adv-x="584" 
d="M256 94q44 0 75 34.5t31 97.5v17q-119 -7 -151 -29q-26 -17 -26 -54q0 -30 19 -48t52 -18zM203 377h-152q5 80 65.5 125.5t165.5 45.5q127 0 180 -52t53 -162v-185q0 -22 9 -31t34 -9v-110h-53q-60 0 -89.5 15.5t-41.5 58.5h-2q-54 -79 -162 -79q-84 0 -133 42t-49 117
q0 91 81 134q39 21 94.5 28.5t157.5 11.5v29q0 90 -79 90q-38 0 -57.5 -19t-21.5 -50zM119 636v104h342v-104h-342z" />
    <glyph glyph-name="Abreve" unicode="&#x102;" horiz-adv-x="761" 
d="M373 624q-20 -80 -30 -111l-71 -223h202l-70 222q-9 30 -16.5 58t-9.5 41l-3 13h-2zM570 0l-56 170h-281l-56 -170h-157l267 765h184l271 -765h-172zM379 815q-72 0 -118 38.5t-48 118.5h103q2 -29 20 -46t46 -17q27 0 45.5 16.5t21.5 46.5h97q-2 -80 -48 -118.5
t-119 -38.5z" />
    <glyph glyph-name="abreve" unicode="&#x103;" horiz-adv-x="584" 
d="M256 94q44 0 75 34.5t31 97.5v17q-119 -7 -151 -29q-26 -17 -26 -54q0 -30 19 -48t52 -18zM203 377h-152q5 80 65.5 125.5t165.5 45.5q127 0 180 -52t53 -162v-185q0 -22 9 -31t34 -9v-110h-53q-60 0 -89.5 15.5t-41.5 58.5h-2q-54 -79 -162 -79q-84 0 -133 42t-49 117
q0 91 81 134q39 21 94.5 28.5t157.5 11.5v29q0 90 -79 90q-38 0 -57.5 -19t-21.5 -50zM290 612q-74 0 -120 44t-46 132h105q0 -36 17.5 -55t46.5 -19t47 19t18 55h99q0 -88 -46 -132t-121 -44z" />
    <glyph glyph-name="Aogonek" unicode="&#x104;" horiz-adv-x="761" 
d="M20 0l267 765h184l268 -758q-64 -35 -64 -71q0 -34 51 -35v-89h-29q-142 0 -142 90q0 64 77 98h-63l-56 170h-280l-56 -170h-157zM272 290h202l-70 222q-9 30 -16.5 58t-9.5 41l-3 13h-2q-9 -46 -30 -111z" />
    <glyph glyph-name="aogonek" unicode="&#x105;" horiz-adv-x="584" 
d="M203 377h-152q5 80 65.5 125.5t165.5 45.5q127 0 180 -52t53 -162v-185q0 -22 9 -31t34 -9v-109q-54 -33 -54 -65q0 -33 51 -34v-89h-29q-143 0 -143 90q0 67 85 97v2q-40 6 -61.5 21t-32.5 51h-2q-54 -79 -162 -79q-84 0 -133 42t-49 117q0 91 81 134q39 21 94.5 28.5
t157.5 11.5v29q0 90 -79 90q-38 0 -57.5 -19t-21.5 -50zM256 94q44 0 75 34.5t31 97.5v17q-119 -7 -151 -29q-26 -17 -26 -54q0 -30 19 -48t52 -18z" />
    <glyph glyph-name="Cacute" unicode="&#x106;" horiz-adv-x="766" 
d="M404 654q-80 0 -128.5 -71.5t-48.5 -204.5q0 -130 46.5 -200.5t129.5 -70.5q67 0 105 40t45 113h167q-6 -125 -90 -200.5t-223 -75.5q-176 0 -266.5 101.5t-90.5 286.5q0 189 94 296.5t260 107.5q141 0 225 -71t92 -199h-169q-6 68 -45.5 108t-102.5 40zM345 827l64 133
h158l-103 -133h-119z" />
    <glyph glyph-name="cacute" unicode="&#x107;" horiz-adv-x="595" 
d="M244 614l51 174h158l-88 -174h-121zM557 344h-156q-9 99 -92 99q-58 0 -83 -48.5t-25 -124.5q0 -174 107 -174q49 0 72 29.5t25 73.5h154q-3 -102 -72 -157t-179 -55q-129 0 -199.5 74.5t-70.5 206.5q0 130 73 205.5t198 75.5q110 0 177.5 -53t70.5 -152z" />
    <glyph glyph-name="Ccircumflex" unicode="&#x108;" horiz-adv-x="766" 
d="M479 960l108 -133h-115l-66 56h-1l-64 -56h-106l108 133h136zM404 654q-80 0 -128.5 -71.5t-48.5 -204.5q0 -130 46.5 -200.5t129.5 -70.5q67 0 105 40t45 113h167q-6 -125 -90 -200.5t-223 -75.5q-176 0 -266.5 101.5t-90.5 286.5q0 189 94 296.5t260 107.5
q141 0 225 -71t92 -199h-169q-6 68 -45.5 108t-102.5 40z" />
    <glyph glyph-name="ccircumflex" unicode="&#x109;" horiz-adv-x="595" 
d="M381 788l110 -174h-109l-69 77h-1l-66 -77h-101l110 174h126zM557 344h-156q-9 99 -92 99q-58 0 -83 -48.5t-25 -124.5q0 -174 107 -174q49 0 72 29.5t25 73.5h154q-3 -102 -72 -157t-179 -55q-129 0 -199.5 74.5t-70.5 206.5q0 130 73 205.5t198 75.5q110 0 177.5 -53
t70.5 -152z" />
    <glyph glyph-name="Cdotaccent" unicode="&#x10a;" horiz-adv-x="766" 
d="M404 654q-80 0 -128.5 -71.5t-48.5 -204.5q0 -130 46.5 -200.5t129.5 -70.5q67 0 105 40t45 113h167q-6 -125 -90 -200.5t-223 -75.5q-176 0 -266.5 101.5t-90.5 286.5q0 189 94 296.5t260 107.5q141 0 225 -71t92 -199h-169q-6 68 -45.5 108t-102.5 40zM339 833v137h137
v-137h-137z" />
    <glyph glyph-name="cdotaccent" unicode="&#x10b;" horiz-adv-x="595" 
d="M557 344h-156q-9 99 -92 99q-58 0 -83 -48.5t-25 -124.5q0 -174 107 -174q49 0 72 29.5t25 73.5h154q-3 -102 -72 -157t-179 -55q-129 0 -199.5 74.5t-70.5 206.5q0 130 73 205.5t198 75.5q110 0 177.5 -53t70.5 -152zM244 636v137h137v-137h-137z" />
    <glyph glyph-name="Ccaron" unicode="&#x10c;" horiz-adv-x="766" 
d="M333 827l-108 133h115l66 -56h1l64 56h106l-108 -133h-136zM404 654q-80 0 -128.5 -71.5t-48.5 -204.5q0 -130 46.5 -200.5t129.5 -70.5q67 0 105 40t45 113h167q-6 -125 -90 -200.5t-223 -75.5q-176 0 -266.5 101.5t-90.5 286.5q0 189 94 296.5t260 107.5q141 0 225 -71
t92 -199h-169q-6 68 -45.5 108t-102.5 40z" />
    <glyph glyph-name="ccaron" unicode="&#x10d;" horiz-adv-x="595" 
d="M244 614l-110 174h109l69 -77h1l66 77h101l-110 -174h-126zM557 344h-156q-9 99 -92 99q-58 0 -83 -48.5t-25 -124.5q0 -174 107 -174q49 0 72 29.5t25 73.5h154q-3 -102 -72 -157t-179 -55q-129 0 -199.5 74.5t-70.5 206.5q0 130 73 205.5t198 75.5q110 0 177.5 -53
t70.5 -152z" />
    <glyph glyph-name="Dcaron" unicode="&#x10e;" horiz-adv-x="770" 
d="M280 827l-108 133h115l66 -56h1l64 56h106l-108 -133h-136zM77 0v765h261q178 0 280.5 -92t102.5 -281q0 -191 -102.5 -291.5t-276.5 -100.5h-265zM241 124h89q105 0 161 61t56 203q0 255 -212 255h-94v-519z" />
    <glyph glyph-name="dcaron" unicode="&#x10f;" horiz-adv-x="649" 
d="M645 601l6 187h125l-56 -187h-75zM424 228v64q0 70 -29 108.5t-79 38.5q-55 0 -85 -43.5t-30 -129.5q0 -173 111 -173q53 0 82.5 37.5t29.5 97.5zM581 788v-788h-152v79h-2q-55 -93 -160 -93q-109 0 -168.5 69t-59.5 206t65 211.5t169 74.5q51 0 89.5 -22t57.5 -60h2v323
h159z" />
    <glyph glyph-name="Dcroat" unicode="&#x110;" horiz-adv-x="792" 
d="M364 0h-265v329h-75v111h75v325h262q177 0 279.5 -92t102.5 -281q0 -191 -102.5 -291.5t-276.5 -100.5zM263 124h89q105 0 161 61t56 203q0 255 -212 255h-94v-203h166v-111h-166v-205z" />
    <glyph glyph-name="dcroat" unicode="&#x111;" horiz-adv-x="649" 
d="M424 228v64q0 70 -29 108.5t-79 38.5q-55 0 -85 -43.5t-30 -129.5q0 -173 111 -173q53 0 82.5 37.5t29.5 97.5zM427 79q-55 -93 -160 -93q-109 0 -168.5 69t-59.5 206t65 211.5t169 74.5q51 0 89.5 -22t57.5 -60h2v142h-149v93h149v88h159v-88h79v-93h-79v-607h-152v79
h-2z" />
    <glyph glyph-name="Emacron" unicode="&#x112;" horiz-adv-x="648" 
d="M77 0v765h504v-125h-340v-197h322v-122h-322v-197h349v-124h-513zM162 838v104h342v-104h-342z" />
    <glyph glyph-name="emacron" unicode="&#x113;" horiz-adv-x="601" 
d="M400 322v7q-8 121 -95 121q-95 0 -107 -128h202zM557 156q-12 -79 -79 -124.5t-175 -45.5q-128 0 -196.5 76t-68.5 207q0 125 71 202.5t196 77.5q130 0 193.5 -75.5t63.5 -200.5v-42h-364q10 -138 110 -138q73 0 93 63h156zM132 636v104h342v-104h-342z" />
    <glyph glyph-name="Ebreve" unicode="&#x114;" horiz-adv-x="648" 
d="M77 0v765h504v-125h-340v-197h322v-122h-322v-197h349v-124h-513zM333 815q-72 0 -118 38.5t-48 118.5h103q2 -29 20 -46t46 -17q27 0 45.5 16.5t21.5 46.5h97q-2 -80 -48 -118.5t-119 -38.5z" />
    <glyph glyph-name="ebreve" unicode="&#x115;" horiz-adv-x="601" 
d="M400 322v7q-8 121 -95 121q-95 0 -107 -128h202zM557 156q-12 -79 -79 -124.5t-175 -45.5q-128 0 -196.5 76t-68.5 207q0 125 71 202.5t196 77.5q130 0 193.5 -75.5t63.5 -200.5v-42h-364q10 -138 110 -138q73 0 93 63h156zM303 612q-74 0 -120 44t-46 132h105
q0 -36 17.5 -55t46.5 -19t47 19t18 55h99q0 -88 -46 -132t-121 -44z" />
    <glyph glyph-name="Edotaccent" unicode="&#x116;" horiz-adv-x="648" 
d="M264 833v137h137v-137h-137zM77 0v765h504v-125h-340v-197h322v-122h-322v-197h349v-124h-513z" />
    <glyph glyph-name="edotaccent" unicode="&#x117;" horiz-adv-x="601" 
d="M400 322v7q-8 121 -95 121q-95 0 -107 -128h202zM557 156q-12 -79 -79 -124.5t-175 -45.5q-128 0 -196.5 76t-68.5 207q0 125 71 202.5t196 77.5q130 0 193.5 -75.5t63.5 -200.5v-42h-364q10 -138 110 -138q73 0 93 63h156zM234 636v137h137v-137h-137z" />
    <glyph glyph-name="Eogonek" unicode="&#x118;" horiz-adv-x="648" 
d="M590 -99v-89h-29q-143 0 -143 90q0 65 80 98h-421v765h504v-125h-340v-197h322v-122h-322v-197h349v-124q-51 -34 -51 -64q0 -34 51 -35z" />
    <glyph glyph-name="eogonek" unicode="&#x119;" horiz-adv-x="601" 
d="M401 156h156q-11 -70 -67 -115q-82 -68 -82 -105q0 -34 51 -35v-89h-29q-143 0 -143 88q0 58 87 92v2q-56 -8 -71 -8q-128 0 -196.5 76t-68.5 207q0 125 71.5 202.5t194.5 77.5q131 0 194.5 -75.5t63.5 -200.5v-42h-364q9 -138 110 -138q73 0 93 63zM198 322h202
q-5 128 -96 128q-47 0 -74 -33.5t-32 -94.5z" />
    <glyph glyph-name="Ecaron" unicode="&#x11a;" horiz-adv-x="648" 
d="M259 827l-108 133h115l66 -56h1l64 56h106l-108 -133h-136zM77 0v765h504v-125h-340v-197h322v-122h-322v-197h349v-124h-513z" />
    <glyph glyph-name="ecaron" unicode="&#x11b;" horiz-adv-x="601" 
d="M234 614l-110 174h109l69 -77h1l66 77h101l-110 -174h-126zM400 322v7q-8 121 -95 121q-95 0 -107 -128h202zM557 156q-12 -79 -79 -124.5t-175 -45.5q-128 0 -196.5 76t-68.5 207q0 125 71 202.5t196 77.5q130 0 193.5 -75.5t63.5 -200.5v-42h-364q10 -138 110 -138
q73 0 93 63h156z" />
    <glyph glyph-name="Gcircumflex" unicode="&#x11c;" horiz-adv-x="810" 
d="M473 960l108 -133h-115l-66 56h-1l-64 -56h-106l108 133h136zM412 658q-90 0 -138.5 -71.5t-48.5 -207.5q0 -276 187 -276q78 0 123 45.5t51 127.5l1 14h-181v118h334v-408h-130v104h-4q-63 -120 -222 -120q-161 0 -247.5 103.5t-86.5 283.5q0 185 99 295t263 110
q138 0 218.5 -63t94.5 -180h-167q-8 56 -47 90.5t-99 34.5z" />
    <glyph glyph-name="gcircumflex" unicode="&#x11d;" horiz-adv-x="646" 
d="M359 788l110 -174h-109l-69 77h-1l-66 -77h-101l110 174h126zM426 244v58q0 64 -30.5 100.5t-81.5 36.5t-82 -41t-31 -120q0 -160 113 -160q50 0 81 35.5t31 90.5zM309 -199q-121 0 -184 44t-69 123h153q8 -32 30.5 -47.5t71.5 -15.5q60 0 87.5 30t27.5 100v76h-3
q-17 -39 -56 -66.5t-100 -27.5q-108 0 -168 65t-60 196q0 127 65.5 198t166.5 71q57 0 96 -24t57 -60h2v73h152v-493q0 -242 -269 -242z" />
    <glyph glyph-name="Gbreve" unicode="&#x11e;" horiz-adv-x="810" 
d="M405 815q-72 0 -118 38.5t-48 118.5h103q2 -29 20 -46t46 -17q27 0 45.5 16.5t21.5 46.5h97q-2 -80 -48 -118.5t-119 -38.5zM412 658q-90 0 -138.5 -71.5t-48.5 -207.5q0 -276 187 -276q78 0 123 45.5t51 127.5l1 14h-181v118h334v-408h-130v104h-4q-63 -120 -222 -120
q-161 0 -247.5 103.5t-86.5 283.5q0 185 99 295t263 110q138 0 218.5 -63t94.5 -180h-167q-8 56 -47 90.5t-99 34.5z" />
    <glyph glyph-name="gbreve" unicode="&#x11f;" horiz-adv-x="646" 
d="M426 244v58q0 64 -30.5 100.5t-81.5 36.5t-82 -41t-31 -120q0 -160 113 -160q50 0 81 35.5t31 90.5zM309 -199q-121 0 -184 44t-69 123h153q8 -32 30.5 -47.5t71.5 -15.5q60 0 87.5 30t27.5 100v76h-3q-17 -39 -56 -66.5t-100 -27.5q-108 0 -168 65t-60 196
q0 127 65.5 198t166.5 71q57 0 96 -24t57 -60h2v73h152v-493q0 -242 -269 -242zM292 612q-74 0 -120 44t-46 132h105q0 -36 17.5 -55t46.5 -19t47 19t18 55h99q0 -88 -46 -132t-121 -44z" />
    <glyph glyph-name="Gdotaccent" unicode="&#x120;" horiz-adv-x="810" 
d="M336 833v137h137v-137h-137zM412 658q-90 0 -138.5 -71.5t-48.5 -207.5q0 -276 187 -276q78 0 123 45.5t51 127.5l1 14h-181v118h334v-408h-130v104h-4q-63 -120 -222 -120q-161 0 -247.5 103.5t-86.5 283.5q0 185 99 295t263 110q138 0 218.5 -63t94.5 -180h-167
q-8 56 -47 90.5t-99 34.5z" />
    <glyph glyph-name="gdotaccent" unicode="&#x121;" horiz-adv-x="646" 
d="M426 244v58q0 64 -30.5 100.5t-81.5 36.5t-82 -41t-31 -120q0 -160 113 -160q50 0 81 35.5t31 90.5zM309 -199q-121 0 -184 44t-69 123h153q8 -32 30.5 -47.5t71.5 -15.5q60 0 87.5 30t27.5 100v76h-3q-17 -39 -56 -66.5t-100 -27.5q-108 0 -168 65t-60 196
q0 127 65.5 198t166.5 71q57 0 96 -24t57 -60h2v73h152v-493q0 -242 -269 -242zM223 636v137h137v-137h-137z" />
    <glyph glyph-name="Gcommaaccent" unicode="&#x122;" horiz-adv-x="810" 
d="M303 -220l24 156h154l-73 -156h-105zM412 658q-90 0 -138.5 -71.5t-48.5 -207.5q0 -276 187 -276q78 0 123 45.5t51 127.5l1 14h-181v118h334v-408h-130v104h-4q-63 -120 -222 -120q-161 0 -247.5 103.5t-86.5 283.5q0 185 99 295t263 110q138 0 218.5 -63t94.5 -180
h-167q-8 56 -47 90.5t-99 34.5z" />
    <glyph glyph-name="gcommaaccent" unicode="&#x123;" horiz-adv-x="646" 
d="M387 782l-27 -165h-157l79 165h105zM426 244v58q0 64 -30.5 100.5t-81.5 36.5t-82 -41t-31 -120q0 -160 113 -160q50 0 81 35.5t31 90.5zM309 -199q-121 0 -184 44t-69 123h153q8 -32 30.5 -47.5t71.5 -15.5q60 0 87.5 30t27.5 100v76h-3q-17 -39 -56 -66.5t-100 -27.5
q-108 0 -168 65t-60 196q0 127 65.5 198t166.5 71q57 0 96 -24t57 -60h2v73h152v-493q0 -242 -269 -242z" />
    <glyph glyph-name="Hcircumflex" unicode="&#x124;" horiz-adv-x="792" 
d="M241 318v-318h-164v765h164v-319h308v319h166v-765h-166v318h-308zM468 960l108 -133h-115l-66 56h-1l-64 -56h-106l108 133h136z" />
    <glyph glyph-name="hcircumflex" unicode="&#x125;" horiz-adv-x="641" 
d="M420 0v314q0 65 -16 88q-22 31 -69 31q-53 0 -80.5 -32t-27.5 -91v-310h-159v788h159v-338h2q20 41 63.5 69t104.5 28q95 0 138.5 -49t43.5 -150v-348h-159zM395 960l108 -133h-115l-66 56h-1l-64 -56h-106l108 133h136z" />
    <glyph glyph-name="Hbar" unicode="&#x126;" horiz-adv-x="792" 
d="M549 446v118h-308v-118h308zM241 318v-318h-164v564h-77v94h77v107h164v-107h308v107h166v-107h77v-94h-77v-564h-166v318h-308z" />
    <glyph glyph-name="hbar" unicode="&#x127;" horiz-adv-x="641" 
d="M227 310v-310h-159v607h-79v93h79v88h158v-88h151v-93h-151v-157h2q20 41 63.5 69t105.5 28q95 0 138.5 -49t43.5 -150v-348h-159v314q0 65 -16 88q-22 31 -69 31q-53 0 -80.5 -32t-27.5 -91z" />
    <glyph glyph-name="Itilde" unicode="&#x128;" horiz-adv-x="318" 
d="M77 0v765h164v-765h-164zM-31 819q4 155 116 155q34 0 80.5 -26t62.5 -26q35 0 49 53h71q-4 -155 -116 -155q-34 0 -80 26t-64 26q-35 0 -47 -53h-72z" />
    <glyph glyph-name="itilde" unicode="&#x129;" horiz-adv-x="295" 
d="M68 0v536h159v-536h-159zM-14 614q0 73 24 118.5t76 45.5q29 0 67 -25.5t52 -25.5q32 0 43 52h60q0 -165 -100 -165q-29 0 -66.5 25.5t-52.5 25.5q-32 0 -42 -51h-61z" />
    <glyph glyph-name="Imacron" unicode="&#x12a;" horiz-adv-x="318" 
d="M77 0v765h164v-765h-164zM-13 838v104h342v-104h-342z" />
    <glyph glyph-name="imacron" unicode="&#x12b;" horiz-adv-x="295" 
d="M68 0v536h159v-536h-159zM11 636v104h274v-104h-274z" />
    <glyph glyph-name="Ibreve" unicode="&#x12c;" horiz-adv-x="318" 
d="M77 0v765h164v-765h-164zM158 815q-72 0 -118 38.5t-48 118.5h103q2 -29 20 -46t46 -17q27 0 45.5 16.5t21.5 46.5h97q-2 -80 -48 -118.5t-119 -38.5z" />
    <glyph glyph-name="ibreve" unicode="&#x12d;" horiz-adv-x="295" 
d="M68 0v536h159v-536h-159zM148 612q-67 0 -108.5 44t-41.5 132h95q0 -36 15.5 -55t41.5 -19t42.5 19t16.5 55h89q0 -88 -41.5 -132t-108.5 -44z" />
    <glyph glyph-name="Iogonek" unicode="&#x12e;" horiz-adv-x="318" 
d="M77 0v765h164v-753q-67 -43 -67 -76q0 -34 51 -35v-89h-29q-142 0 -142 90q0 64 78 98h-55z" />
    <glyph glyph-name="iogonek" unicode="&#x12f;" horiz-adv-x="295" 
d="M67 629v144h161v-144h-161zM68 0v536h159v-527q-66 -39 -66 -73t51 -35v-89h-29q-142 0 -142 90q0 65 79 98h-52z" />
    <glyph glyph-name="Idotaccent" unicode="&#x130;" horiz-adv-x="318" 
d="M77 0v765h164v-765h-164zM90 833v137h137v-137h-137z" />
    <glyph glyph-name="dotlessi" unicode="&#x131;" horiz-adv-x="295" 
d="M68 0v536h159v-536h-159z" />
    <glyph glyph-name="IJ" unicode="&#x132;" horiz-adv-x="749" 
d="M404 -3h-53v130h27q85 0 112 31.5t27 106.5v500h162v-520q0 -136 -68.5 -192t-206.5 -56zM77 0v765h164v-765h-164z" />
    <glyph glyph-name="ij" unicode="&#x133;" horiz-adv-x="594" 
d="M67 629v144h161v-144h-161zM68 0v536h159v-536h-159zM366 629v144h161v-144h-161zM335 -206q-30 0 -75 9v111q10 -5 39 -5q36 0 52 18t16 58v551h159v-552q0 -190 -191 -190z" />
    <glyph glyph-name="Jcircumflex" unicode="&#x134;" horiz-adv-x="448" 
d="M370 960l108 -133h-115l-66 56h-1l-64 -56h-106l108 133h136zM96 -3h-63v130h37q90 0 118 31.5t28 106.5v500h162v-520q0 -136 -70.5 -192t-211.5 -56z" />
    <glyph glyph-name="jcircumflex" unicode="&#x135;" horiz-adv-x="299" 
d="M-35 -197v111q10 -5 39 -5q36 0 52 18t16 58v551h159v-552q0 -190 -191 -190q-30 0 -75 9zM206 788l99 -174h-98l-62 77h-1l-59 -77h-91l99 174h113z" />
    <glyph glyph-name="Kcommaaccent" unicode="&#x136;" horiz-adv-x="735" 
d="M282 -220l24 156h154l-73 -156h-105zM241 232v-232h-164v765h164v-341l279 341h183l-275 -320l287 -445h-188l-210 321z" />
    <glyph glyph-name="kcommaaccent" unicode="&#x137;" horiz-adv-x="598" 
d="M220 -220l24 156h154l-73 -156h-105zM224 139v-139h-156v788h156v-474l183 222h168l-179 -210l188 -326h-172l-122 219z" />
    <glyph glyph-name="kgreenlandic" unicode="&#x138;" horiz-adv-x="598" 
d="M224 139v-139h-156v536h156v-222l183 222h168l-179 -210l188 -326h-172l-122 219z" />
    <glyph glyph-name="Lacute" unicode="&#x139;" horiz-adv-x="610" 
d="M100 827l64 133h158l-103 -133h-119zM77 0v765h164v-637h330v-128h-494z" />
    <glyph glyph-name="lacute" unicode="&#x13a;" horiz-adv-x="295" 
d="M80 829l64 133h158l-103 -133h-119zM68 0v788h159v-788h-159z" />
    <glyph glyph-name="Lcommaaccent" unicode="&#x13b;" horiz-adv-x="610" 
d="M224 -220l24 156h154l-73 -156h-105zM77 0v765h164v-637h330v-128h-494z" />
    <glyph glyph-name="lcommaaccent" unicode="&#x13c;" horiz-adv-x="295" 
d="M46 -220l24 156h154l-73 -156h-105zM68 0v788h159v-788h-159z" />
    <glyph glyph-name="Lcaron" unicode="&#x13d;" horiz-adv-x="610" 
d="M339 577l16 211h128l-65 -211h-79zM77 0v765h164v-637h330v-128h-494z" />
    <glyph glyph-name="lcaron" unicode="&#x13e;" horiz-adv-x="295" 
d="M290 601l6 187h125l-56 -187h-75zM68 0v788h159v-788h-159z" />
    <glyph glyph-name="Ldot" unicode="&#x13f;" horiz-adv-x="610" 
d="M77 0v765h164v-637h330v-128h-494zM379 340v157h166v-157h-166z" />
    <glyph glyph-name="ldot" unicode="&#x140;" horiz-adv-x="522" 
d="M68 0v788h159v-788h-159zM327 325v149h159v-149h-159z" />
    <glyph glyph-name="Lslash" unicode="&#x141;" horiz-adv-x="610" 
d="M77 0v263l-79 -29v119l79 29v383h164v-323l222 81v-119l-222 -81v-195h330v-128h-494z" />
    <glyph glyph-name="lslash" unicode="&#x142;" horiz-adv-x="297" 
d="M228 0h-159v292l-74 -44v119l74 44v377h159v-282l76 45v-120l-76 -45v-386z" />
    <glyph glyph-name="Nacute" unicode="&#x143;" horiz-adv-x="789" 
d="M331 827l64 133h158l-103 -133h-119zM77 0v765h181l247 -414q17 -29 31 -57.5t19 -42.5l5 -14h3v528h150v-765h-173l-254 422q-18 30 -32.5 59t-19.5 43l-6 14h-3v-538h-148z" />
    <glyph glyph-name="nacute" unicode="&#x144;" horiz-adv-x="641" 
d="M282 614l51 174h158l-88 -174h-121zM420 0v313q0 66 -16 89q-22 31 -69 31q-53 0 -80.5 -32t-27.5 -91v-310h-159v536h153v-88h2q53 99 174 99q95 0 138.5 -49t43.5 -150v-348h-159z" />
    <glyph glyph-name="Ncommaaccent" unicode="&#x145;" horiz-adv-x="789" 
d="M294 -220l24 156h154l-73 -156h-105zM77 0v765h181l247 -414q17 -29 31 -57.5t19 -42.5l5 -14h3v528h150v-765h-173l-254 422q-18 30 -32.5 59t-19.5 43l-6 14h-3v-538h-148z" />
    <glyph glyph-name="ncommaaccent" unicode="&#x146;" horiz-adv-x="641" 
d="M223 -220l24 156h154l-73 -156h-105zM420 0v313q0 66 -16 89q-22 31 -69 31q-53 0 -80.5 -32t-27.5 -91v-310h-159v536h153v-88h2q53 99 174 99q95 0 138.5 -49t43.5 -150v-348h-159z" />
    <glyph glyph-name="Ncaron" unicode="&#x147;" horiz-adv-x="789" 
d="M320 827l-108 133h115l66 -56h1l64 56h106l-108 -133h-136zM77 0v765h181l247 -414q17 -29 31 -57.5t19 -42.5l5 -14h3v528h150v-765h-173l-254 422q-18 30 -32.5 59t-19.5 43l-6 14h-3v-538h-148z" />
    <glyph glyph-name="ncaron" unicode="&#x148;" horiz-adv-x="641" 
d="M273 614l-110 174h109l69 -77h1l66 77h101l-110 -174h-126zM420 0v313q0 66 -16 89q-22 31 -69 31q-53 0 -80.5 -32t-27.5 -91v-310h-159v536h153v-88h2q53 99 174 99q95 0 138.5 -49t43.5 -150v-348h-159z" />
    <glyph glyph-name="napostrophe" unicode="&#x149;" horiz-adv-x="641" 
d="M13 632l24 156h154l-73 -156h-105zM420 0v313q0 66 -16 89q-22 31 -69 31q-53 0 -80.5 -32t-27.5 -91v-310h-159v536h153v-88h2q53 99 174 99q95 0 138.5 -49t43.5 -150v-348h-159z" />
    <glyph glyph-name="Eng" unicode="&#x14a;" horiz-adv-x="789" 
d="M436 -188h-59v124h33q114 0 140 63l-263 423q-19 30 -33.5 59t-19.5 43l-6 14h-3v-538h-148v765h180l247 -400q18 -29 32 -57.5t19 -43.5l5 -14h3v515h150v-713q0 -131 -70 -185.5t-207 -54.5z" />
    <glyph glyph-name="eng" unicode="&#x14b;" horiz-adv-x="641" 
d="M388 -206q-37 0 -73 9v111q10 -5 37 -5q36 0 52 18t16 58v328q0 66 -16 89q-22 31 -69 31q-53 0 -80.5 -32t-27.5 -91v-310h-159v536h153v-88h2q53 99 174 99q95 0 138.5 -49t43.5 -150v-364q0 -190 -191 -190z" />
    <glyph glyph-name="Omacron" unicode="&#x14c;" horiz-adv-x="822" 
d="M239 838v104h342v-104h-342zM50 380q0 186 99 291t262 105q170 0 265.5 -103t95.5 -293q0 -187 -97.5 -291.5t-263.5 -104.5q-172 0 -266.5 103t-94.5 293zM411 104q88 0 136 70.5t48 205.5q0 134 -50.5 206t-133.5 72q-88 0 -135.5 -70.5t-47.5 -207.5q0 -276 183 -276z
" />
    <glyph glyph-name="omacron" unicode="&#x14d;" horiz-adv-x="619" 
d="M138 636v104h342v-104h-342zM309 -14q-127 0 -199 75.5t-72 206.5q0 132 73 206.5t199 74.5q124 0 197.5 -74.5t73.5 -206.5q0 -130 -75 -206t-197 -76zM310 442q-108 0 -108 -174q0 -175 108 -175q106 0 106 175q0 174 -106 174z" />
    <glyph glyph-name="Obreve" unicode="&#x14e;" horiz-adv-x="822" 
d="M410 815q-72 0 -118 38.5t-48 118.5h103q2 -29 20 -46t46 -17q27 0 45.5 16.5t21.5 46.5h97q-2 -80 -48 -118.5t-119 -38.5zM50 380q0 186 99 291t262 105q170 0 265.5 -103t95.5 -293q0 -187 -97.5 -291.5t-263.5 -104.5q-172 0 -266.5 103t-94.5 293zM411 104
q88 0 136 70.5t48 205.5q0 134 -50.5 206t-133.5 72q-88 0 -135.5 -70.5t-47.5 -207.5q0 -276 183 -276z" />
    <glyph glyph-name="obreve" unicode="&#x14f;" horiz-adv-x="619" 
d="M309 -14q-127 0 -199 75.5t-72 206.5q0 132 73 206.5t199 74.5q124 0 197.5 -74.5t73.5 -206.5q0 -130 -75 -206t-197 -76zM310 442q-108 0 -108 -174q0 -175 108 -175q106 0 106 175q0 174 -106 174zM309 612q-74 0 -120 44t-46 132h105q0 -36 17.5 -55t46.5 -19t47 19
t18 55h99q0 -88 -46 -132t-121 -44z" />
    <glyph glyph-name="Ohungarumlaut" unicode="&#x150;" horiz-adv-x="822" 
d="M440 831l35 133h126l-69 -133h-92zM275 831l22 133h125l-56 -133h-91zM50 380q0 186 99 291t262 105q170 0 265.5 -103t95.5 -293q0 -187 -97.5 -291.5t-263.5 -104.5q-172 0 -266.5 103t-94.5 293zM411 104q88 0 136 70.5t48 205.5q0 134 -50.5 206t-133.5 72
q-88 0 -135.5 -70.5t-47.5 -207.5q0 -276 183 -276z" />
    <glyph glyph-name="ohungarumlaut" unicode="&#x151;" horiz-adv-x="619" 
d="M339 614l52 174h127l-86 -174h-93zM175 614l39 174h128l-73 -174h-94zM309 -14q-127 0 -199 75.5t-72 206.5q0 132 73 206.5t199 74.5q124 0 197.5 -74.5t73.5 -206.5q0 -130 -75 -206t-197 -76zM310 442q-108 0 -108 -174q0 -175 108 -175q106 0 106 175q0 174 -106 174
z" />
    <glyph glyph-name="OE" unicode="&#x152;" horiz-adv-x="1156" 
d="M588 324v104q0 111 -45.5 170.5t-130.5 59.5q-84 0 -134 -69t-50 -209q0 -136 47.5 -206t134.5 -70q89 0 133.5 59.5t44.5 160.5zM587 77q-65 -92 -206 -92q-152 0 -242 101.5t-90 293.5q0 191 95.5 293.5t245.5 102.5q137 0 197 -96h1v85h501v-125h-336v-197h318v-122
h-318v-197h345v-124h-510v77h-1z" />
    <glyph glyph-name="oe" unicode="&#x153;" horiz-adv-x="972" 
d="M771 322v6q-8 122 -99 122t-103 -128h202zM310 442q-108 0 -108 -174q0 -175 108 -175q106 0 106 175q0 174 -106 174zM928 156q-12 -79 -80 -124.5t-175 -45.5q-123 0 -182 76q-62 -76 -182 -76q-127 0 -199 75.5t-72 206.5q0 132 73 206.5t199 74.5q122 0 184 -76
q60 76 178 76q132 0 196.5 -75.5t64.5 -200.5v-42h-364q10 -138 110 -138q73 0 93 63h156z" />
    <glyph glyph-name="Racute" unicode="&#x154;" horiz-adv-x="714" 
d="M294 827l64 133h158l-103 -133h-119zM241 408h114q59 0 96.5 29.5t37.5 93.5t-39 92t-92 28h-117v-243zM503 0l-144 291h-118v-291h-164v765h299q89 0 154 -28q127 -56 127 -197q0 -152 -148 -210v-2l171 -328h-177z" />
    <glyph glyph-name="racute" unicode="&#x155;" horiz-adv-x="427" 
d="M168 614l51 174h158l-88 -174h-121zM68 0v536h150v-113h2q22 58 71 90t106 32h9v-144h-28q-76 0 -114 -31t-38 -105v-265h-158z" />
    <glyph glyph-name="Rcommaaccent" unicode="&#x156;" horiz-adv-x="714" 
d="M257 -220l24 156h154l-73 -156h-105zM241 408h114q59 0 96.5 29.5t37.5 93.5t-39 92t-92 28h-117v-243zM503 0l-144 291h-118v-291h-164v765h299q89 0 154 -28q127 -56 127 -197q0 -152 -148 -210v-2l171 -328h-177z" />
    <glyph glyph-name="rcommaaccent" unicode="&#x157;" horiz-adv-x="427" 
d="M44 -220l24 156h154l-73 -156h-105zM68 0v536h150v-113h2q22 58 71 90t106 32h9v-144h-28q-76 0 -114 -31t-38 -105v-265h-158z" />
    <glyph glyph-name="Rcaron" unicode="&#x158;" horiz-adv-x="714" 
d="M282 827l-108 133h115l66 -56h1l64 56h106l-108 -133h-136zM241 408h114q59 0 96.5 29.5t37.5 93.5t-39 92t-92 28h-117v-243zM503 0l-144 291h-118v-291h-164v765h299q89 0 154 -28q127 -56 127 -197q0 -152 -148 -210v-2l171 -328h-177z" />
    <glyph glyph-name="rcaron" unicode="&#x159;" horiz-adv-x="427" 
d="M168 614l-110 174h109l69 -77h1l66 77h101l-110 -174h-126zM68 0v536h150v-113h2q22 58 71 90t106 32h9v-144h-28q-76 0 -114 -31t-38 -105v-265h-158z" />
    <glyph glyph-name="Sacute" unicode="&#x15a;" horiz-adv-x="699" 
d="M635 557h-168q-3 42 -32 71t-82 29t-84 -25.5t-31 -66.5q0 -39 23.5 -62t77.5 -33l116 -21q202 -37 202 -211q0 -123 -80 -188.5t-227 -65.5q-141 0 -220.5 63t-85.5 172h171q6 -52 42 -83.5t97 -31.5q65 0 99 29t34 75q0 40 -25 62.5t-84 33.5l-114 22
q-92 18 -144.5 72.5t-52.5 143.5q0 104 76.5 169t210.5 65q138 0 207.5 -61t73.5 -158zM288 827l64 133h158l-103 -133h-119z" />
    <glyph glyph-name="sacute" unicode="&#x15b;" horiz-adv-x="536" 
d="M197 614l51 174h158l-88 -174h-121zM484 387h-140q-2 27 -22 44t-55 17q-36 0 -55.5 -15.5t-19.5 -40.5q0 -46 62 -54l91 -12q155 -21 155 -158q0 -87 -64 -135t-169 -48q-114 0 -171.5 47t-63.5 124h146q4 -69 90 -69q39 0 62 15t23 44q0 25 -14 37.5t-50 17.5l-86 12
q-157 22 -157 160q0 75 57 125.5t165 50.5q101 0 156 -44t60 -118z" />
    <glyph glyph-name="Scircumflex" unicode="&#x15c;" horiz-adv-x="699" 
d="M422 960l108 -133h-115l-66 56h-1l-64 -56h-106l108 133h136zM635 557h-168q-3 42 -32 71t-82 29t-84 -25.5t-31 -66.5q0 -39 23.5 -62t77.5 -33l116 -21q202 -37 202 -211q0 -123 -80 -188.5t-227 -65.5q-141 0 -220.5 63t-85.5 172h171q6 -52 42 -83.5t97 -31.5
q65 0 99 29t34 75q0 40 -25 62.5t-84 33.5l-114 22q-92 18 -144.5 72.5t-52.5 143.5q0 104 76.5 169t210.5 65q138 0 207.5 -61t73.5 -158z" />
    <glyph glyph-name="scircumflex" unicode="&#x15d;" horiz-adv-x="536" 
d="M333 788l110 -174h-109l-69 77h-1l-66 -77h-101l110 174h126zM484 387h-140q-2 27 -22 44t-55 17q-36 0 -55.5 -15.5t-19.5 -40.5q0 -46 62 -54l91 -12q155 -21 155 -158q0 -87 -64 -135t-169 -48q-114 0 -171.5 47t-63.5 124h146q4 -69 90 -69q39 0 62 15t23 44
q0 25 -14 37.5t-50 17.5l-86 12q-157 22 -157 160q0 75 57 125.5t165 50.5q101 0 156 -44t60 -118z" />
    <glyph glyph-name="Scedilla" unicode="&#x15e;" horiz-adv-x="699" 
d="M350 -232q-49 0 -76.5 22.5t-29.5 56.5h77q7 -21 31 -21q32 0 32 32q0 31 -32 31q-17 0 -27 -13h-65l49 109q-122 10 -191 72t-74 162h171q6 -52 42 -83.5t97 -31.5q65 0 99 29t34 75q0 40 -25 62.5t-84 33.5l-114 22q-92 18 -144.5 72.5t-52.5 143.5q0 104 76.5 169
t210.5 65q138 0 207.5 -61t73.5 -158h-168q-3 42 -32 71t-82 29t-84 -25.5t-31 -66.5q0 -39 23.5 -62t77.5 -33l116 -21q202 -37 202 -211q0 -120 -77 -186t-219 -68l-20 -43h2q14 10 40 10q37 0 60.5 -24t23.5 -65q0 -39 -30 -66.5t-87 -27.5z" />
    <glyph glyph-name="scedilla" unicode="&#x15f;" horiz-adv-x="536" 
d="M261 -232q-49 0 -76.5 22.5t-29.5 56.5h77q7 -21 31 -21q32 0 32 32q0 31 -32 31q-17 0 -27 -13h-65l50 111q-91 10 -137.5 55.5t-51.5 113.5h146q4 -69 90 -69q39 0 62 15t23 44q0 25 -14 37.5t-50 17.5l-86 12q-157 22 -157 160q0 75 57 125.5t165 50.5q101 0 156 -44
t60 -118h-140q-2 27 -22 44t-55 17q-36 0 -55.5 -15.5t-19.5 -40.5q0 -46 62 -54l91 -12q155 -21 155 -158q0 -87 -63.5 -135t-164.5 -48l-20 -44h2q14 10 40 10q37 0 60.5 -24t23.5 -65q0 -39 -30 -66.5t-87 -27.5z" />
    <glyph glyph-name="Scaron" unicode="&#x160;" horiz-adv-x="699" 
d="M278 827l-108 133h115l66 -56h1l64 56h106l-108 -133h-136zM635 557h-168q-3 42 -32 71t-82 29t-84 -25.5t-31 -66.5q0 -39 23.5 -62t77.5 -33l116 -21q202 -37 202 -211q0 -123 -80 -188.5t-227 -65.5q-141 0 -220.5 63t-85.5 172h171q6 -52 42 -83.5t97 -31.5
q65 0 99 29t34 75q0 40 -25 62.5t-84 33.5l-114 22q-92 18 -144.5 72.5t-52.5 143.5q0 104 76.5 169t210.5 65q138 0 207.5 -61t73.5 -158z" />
    <glyph glyph-name="scaron" unicode="&#x161;" horiz-adv-x="536" 
d="M197 614l-110 174h109l69 -77h1l66 77h101l-110 -174h-126zM484 387h-140q-2 27 -22 44t-55 17q-36 0 -55.5 -15.5t-19.5 -40.5q0 -46 62 -54l91 -12q155 -21 155 -158q0 -87 -64 -135t-169 -48q-114 0 -171.5 47t-63.5 124h146q4 -69 90 -69q39 0 62 15t23 44
q0 25 -14 37.5t-50 17.5l-86 12q-157 22 -157 160q0 75 57 125.5t165 50.5q101 0 156 -44t60 -118z" />
    <glyph glyph-name="Tcommaaccent" unicode="&#x162;" horiz-adv-x="662" 
d="M231 -220l24 156h154l-73 -156h-105zM639 765v-129h-226v-636h-164v636h-226v129h616z" />
    <glyph glyph-name="tcommaaccent" unicode="&#x163;" horiz-adv-x="401" 
d="M148 -220l24 156h154l-73 -156h-105zM119 687h136v-151h120v-110h-118v-237q0 -41 17 -59.5t57 -18.5l45 4v-116q-63 -6 -106 -6q-170 0 -170 166v267h-79v109h18q51 0 65.5 19.5t14.5 91.5v41z" />
    <glyph glyph-name="Tcaron" unicode="&#x164;" horiz-adv-x="662" 
d="M262 827l-108 133h115l66 -56h1l64 56h106l-108 -133h-136zM639 765v-129h-226v-636h-164v636h-226v129h616z" />
    <glyph glyph-name="tcaron" unicode="&#x165;" horiz-adv-x="401" 
d="M339 601l6 187h125l-56 -187h-75zM119 687h136v-151h120v-110h-118v-237q0 -41 17 -59.5t57 -18.5l45 4v-116q-63 -6 -106 -6q-170 0 -170 166v267h-79v109h18q51 0 65.5 19.5t14.5 91.5v41z" />
    <glyph glyph-name="Tbar" unicode="&#x166;" horiz-adv-x="662" 
d="M413 372v-372h-164v372h-177v100h177v164h-226v129h616v-129h-226v-164h178v-100h-178z" />
    <glyph glyph-name="tbar" unicode="&#x167;" horiz-adv-x="401" 
d="M376 -1q-63 -6 -106 -6q-170 0 -170 166v71h-79v98h79v103h-79v104h18q51 0 65.5 19.5t14.5 91.5v41h136v-151h120v-105h-118v-103h118v-98h-118v-41q0 -41 17 -59.5t57 -18.5l45 4v-116z" />
    <glyph glyph-name="Utilde" unicode="&#x168;" horiz-adv-x="761" 
d="M69 267v498h164l-1 -446q0 -117 30 -155q40 -50 119 -50q84 0 123 50q13 17 19 48t6.5 47.5t0.5 59.5v446h162v-498q0 -141 -83.5 -212t-229.5 -71t-228 71t-82 212zM191 819q4 155 116 155q35 0 81 -26t62 -26q35 0 49 53h71q-4 -155 -116 -155q-34 0 -80 26t-64 26
q-35 0 -47 -53h-72z" />
    <glyph glyph-name="utilde" unicode="&#x169;" horiz-adv-x="637" 
d="M222 536v-313q0 -63 16 -88q21 -31 68 -31q105 0 105 139v293h159v-536h-153v87h-2q-50 -97 -168 -97q-96 0 -140 46.5t-44 142.5v357h159zM127 614q0 73 28.5 118.5t89.5 45.5q34 0 78.5 -25.5t61.5 -25.5q38 0 50 52h71q0 -74 -28.5 -119.5t-89.5 -45.5
q-34 0 -78.5 25.5t-61.5 25.5q-38 0 -49 -51h-72z" />
    <glyph glyph-name="Umacron" unicode="&#x16a;" horiz-adv-x="761" 
d="M69 267v498h164l-1 -446q0 -117 30 -155q40 -50 119 -50q84 0 123 50q13 17 19 48t6.5 47.5t0.5 59.5v446h162v-498q0 -141 -83.5 -212t-229.5 -71t-228 71t-82 212zM209 838v104h342v-104h-342z" />
    <glyph glyph-name="umacron" unicode="&#x16b;" horiz-adv-x="637" 
d="M222 536v-313q0 -63 16 -88q21 -31 68 -31q105 0 105 139v293h159v-536h-153v87h-2q-50 -97 -168 -97q-96 0 -140 46.5t-44 142.5v357h159zM145 636v104h342v-104h-342z" />
    <glyph glyph-name="Ubreve" unicode="&#x16c;" horiz-adv-x="761" 
d="M69 267v498h164l-1 -446q0 -117 30 -155q40 -50 119 -50q84 0 123 50q13 17 19 48t6.5 47.5t0.5 59.5v446h162v-498q0 -141 -83.5 -212t-229.5 -71t-228 71t-82 212zM380 815q-72 0 -118 38.5t-48 118.5h103q2 -29 20 -46t46 -17q27 0 45.5 16.5t21.5 46.5h97
q-2 -80 -48 -118.5t-119 -38.5z" />
    <glyph glyph-name="ubreve" unicode="&#x16d;" horiz-adv-x="637" 
d="M222 536v-313q0 -63 16 -88q21 -31 68 -31q105 0 105 139v293h159v-536h-153v87h-2q-50 -97 -168 -97q-96 0 -140 46.5t-44 142.5v357h159zM316 612q-74 0 -120 44t-46 132h105q0 -36 17.5 -55t46.5 -19t47 19t18 55h99q0 -88 -46 -132t-121 -44z" />
    <glyph glyph-name="Uring" unicode="&#x16e;" horiz-adv-x="761" 
d="M69 267v498h164l-1 -446q0 -117 30 -155q40 -50 119 -50q84 0 123 50q13 17 19 48t6.5 47.5t0.5 59.5v446h162v-498q0 -141 -83.5 -212t-229.5 -71t-228 71t-82 212zM380 797q-61 0 -96 33.5t-35 88.5t37 89.5t95 34.5q62 0 96.5 -34t34.5 -90q0 -55 -36.5 -88.5
t-95.5 -33.5zM380 980q-24 0 -38.5 -17t-14.5 -44t14.5 -44t39.5 -17q24 0 38 17t14 44q0 28 -14 44.5t-39 16.5z" />
    <glyph glyph-name="uring" unicode="&#x16f;" horiz-adv-x="637" 
d="M316 602q-61 0 -96 33.5t-35 89.5q0 54 37 88.5t95 34.5q62 0 96.5 -34t34.5 -89t-36.5 -89t-95.5 -34zM316 785q-24 0 -38.5 -16.5t-14.5 -44.5q0 -27 14.5 -43.5t39.5 -16.5q24 0 38 16.5t14 43.5q0 28 -14 44.5t-39 16.5zM222 536v-313q0 -63 16 -88q21 -31 68 -31
q105 0 105 139v293h159v-536h-153v87h-2q-50 -97 -168 -97q-96 0 -140 46.5t-44 142.5v357h159z" />
    <glyph glyph-name="Uhungarumlaut" unicode="&#x170;" horiz-adv-x="761" 
d="M410 831l35 133h126l-69 -133h-92zM245 831l22 133h125l-56 -133h-91zM69 267v498h164l-1 -446q0 -117 30 -155q40 -50 119 -50q84 0 123 50q13 17 19 48t6.5 47.5t0.5 59.5v446h162v-498q0 -141 -83.5 -212t-229.5 -71t-228 71t-82 212z" />
    <glyph glyph-name="uhungarumlaut" unicode="&#x171;" horiz-adv-x="637" 
d="M222 536v-313q0 -63 16 -88q21 -31 68 -31q105 0 105 139v293h159v-536h-153v87h-2q-50 -97 -168 -97q-96 0 -140 46.5t-44 142.5v357h159zM346 614l52 174h127l-86 -174h-93zM182 614l39 174h128l-73 -174h-94z" />
    <glyph glyph-name="Uogonek" unicode="&#x172;" horiz-adv-x="761" 
d="M69 267v498h164l-1 -446q0 -117 30 -155q39 -50 119 -50q86 0 123 50q5 6 8.5 13t6.5 15.5t5 15.5t3 18t1.5 17.5t1 19.5t0.5 18v20v18v446h162v-498q0 -119 -58.5 -186t-149.5 -84q-85 -16 -85 -61q0 -34 51 -35v-89h-29q-143 0 -143 90q0 56 66 85q-131 9 -203 78
t-72 202z" />
    <glyph glyph-name="uogonek" unicode="&#x173;" horiz-adv-x="637" 
d="M417 0v87h-2q-50 -97 -168 -97q-96 0 -140 46.5t-44 142.5v357h159v-313q0 -63 16 -88q21 -31 68 -31q105 0 105 139v293h159v-528q-65 -37 -65 -72q0 -33 55 -35v-89h-29q-146 0 -146 90q0 30 21 56t59 42h-48z" />
    <glyph glyph-name="Wcircumflex" unicode="&#x174;" horiz-adv-x="1067" 
d="M616 960l108 -133h-115l-66 56h-1l-64 -56h-106l108 133h136zM388 0h-164l-203 765h170l106 -435q8 -34 14 -66.5t7 -47.5l2 -15h2q5 52 26 128l119 436h150l120 -435l30 -129h1q5 52 23 128l105 436h150l-202 -765h-161l-123 452q-9 34 -15 64.5t-7 43.5l-2 13h-2
q-4 -44 -24 -120z" />
    <glyph glyph-name="wcircumflex" unicode="&#x175;" horiz-adv-x="860" 
d="M502 788l110 -174h-109l-69 77h-1l-66 -77h-101l110 174h126zM173 0l-156 536h153l71 -270q6 -24 11 -52.5t7 -44.5l2 -16h3q11 59 27 112l80 271h129l80 -271q7 -24 13.5 -52t9.5 -44l3 -16h4q9 59 23 112l70 271h139l-155 -536h-153l-65 213q-9 29 -18 69.5t-14 66.5
l-5 26h-2q-20 -98 -40 -162l-66 -213h-151z" />
    <glyph glyph-name="Ycircumflex" unicode="&#x176;" horiz-adv-x="697" 
d="M267 0v320l-256 445h181l161 -301h2l163 301h168l-255 -442v-323h-164zM427 960l108 -133h-115l-66 56h-1l-64 -56h-106l108 133h136z" />
    <glyph glyph-name="ycircumflex" unicode="&#x177;" horiz-adv-x="571" 
d="M217 -3l-200 539h164l88 -282q8 -26 14 -52t8 -40l2 -13h3q6 47 23 105l83 282h155l-188 -553q-34 -99 -84 -140.5t-150 -41.5q-58 0 -79 7v116q22 -5 54 -5q45 0 68.5 14.5t34.5 50.5zM362 788l110 -174h-109l-69 77h-1l-66 -77h-101l110 174h126z" />
    <glyph glyph-name="Ydieresis" unicode="&#x178;" horiz-adv-x="697" 
d="M267 0v320l-256 445h181l161 -301h2l163 301h168l-255 -442v-323h-164zM395 828v137h136v-137h-136zM180 828v137h136v-137h-136z" />
    <glyph glyph-name="Zacute" unicode="&#x179;" horiz-adv-x="658" 
d="M271 827l64 133h158l-103 -133h-119zM53 638v127h560v-113l-383 -524h389v-128h-583v113l384 525h-367z" />
    <glyph glyph-name="zacute" unicode="&#x17a;" horiz-adv-x="544" 
d="M209 614l51 174h158l-88 -174h-121zM54 421v115h448v-103l-268 -316h273v-117h-463v104l268 317h-258z" />
    <glyph glyph-name="Zdotaccent" unicode="&#x17b;" horiz-adv-x="658" 
d="M53 638v127h560v-113l-383 -524h389v-128h-583v113l384 525h-367zM265 833v137h137v-137h-137z" />
    <glyph glyph-name="zdotaccent" unicode="&#x17c;" horiz-adv-x="544" 
d="M54 421v115h448v-103l-268 -316h273v-117h-463v104l268 317h-258zM209 636v137h137v-137h-137z" />
    <glyph glyph-name="Zcaron" unicode="&#x17d;" horiz-adv-x="658" 
d="M260 827l-108 133h115l66 -56h1l64 56h106l-108 -133h-136zM53 638v127h560v-113l-383 -524h389v-128h-583v113l384 525h-367z" />
    <glyph glyph-name="zcaron" unicode="&#x17e;" horiz-adv-x="544" 
d="M209 614l-110 174h109l69 -77h1l66 77h101l-110 -174h-126zM54 421v115h448v-103l-268 -316h273v-117h-463v104l268 317h-258z" />
    <glyph glyph-name="florin" unicode="&#x192;" horiz-adv-x="477" 
d="M286 348l-71 -537h-153l69 537h-101v111h115l14 110q15 124 71 173.5t148 49.5q37 0 73 -6v-116q-16 4 -40 4q-41 0 -64.5 -21t-31.5 -84l-15 -110h119v-111h-133z" />
    <glyph glyph-name="Aringacute" unicode="&#x1fa;" horiz-adv-x="761" 
d="M373 624q-20 -80 -30 -111l-71 -223h202l-70 222q-9 30 -16.5 58t-9.5 41l-3 13h-2zM570 0l-56 170h-281l-56 -170h-157l267 765h184l271 -765h-172zM316 1069l64 133h158l-103 -133h-119zM379 797q-61 0 -96 33.5t-35 88.5t37 89.5t95 34.5q62 0 96.5 -34t34.5 -90
q0 -55 -36.5 -88.5t-95.5 -33.5zM379 980q-24 0 -38.5 -17t-14.5 -44t14.5 -44t39.5 -17q24 0 38 17t14 44q0 28 -14 44.5t-39 16.5z" />
    <glyph glyph-name="aringacute" unicode="&#x1fb;" horiz-adv-x="584" 
d="M256 94q44 0 75 34.5t31 97.5v17q-119 -7 -151 -29q-26 -17 -26 -54q0 -30 19 -48t52 -18zM203 377h-152q5 80 65.5 125.5t165.5 45.5q127 0 180 -52t53 -162v-185q0 -22 9 -31t34 -9v-110h-53q-60 0 -89.5 15.5t-41.5 58.5h-2q-54 -79 -162 -79q-84 0 -133 42t-49 117
q0 91 81 134q39 21 94.5 28.5t157.5 11.5v29q0 90 -79 90q-38 0 -57.5 -19t-21.5 -50zM297 584q-61 0 -96 33.5t-35 89.5q0 54 37 88.5t95 34.5q62 0 96.5 -34t34.5 -89t-36.5 -89t-95.5 -34zM297 767q-24 0 -38.5 -16.5t-14.5 -44.5q0 -27 14.5 -43.5t39.5 -16.5
q24 0 38 16.5t14 43.5q0 28 -14 44.5t-39 16.5zM242 864l64 133h158l-103 -133h-119z" />
    <glyph glyph-name="AEacute" unicode="&#x1fc;" horiz-adv-x="1093" 
d="M551 827l64 133h158l-103 -133h-119zM525 303v337h-47l-156 -337h203zM267 183l-85 -183h-170l372 765h642v-125h-336v-197h318v-122h-318v-197h345v-124h-510v183h-258z" />
    <glyph glyph-name="aeacute" unicode="&#x1fd;" horiz-adv-x="915" 
d="M389 614l51 174h158l-88 -174h-121zM714 322v6q-10 122 -100 122q-92 0 -103 -128h203zM256 94q45 0 76 35t31 97v13q-115 0 -152 -25q-26 -17 -26 -54q0 -30 19.5 -48t51.5 -18zM871 156q-13 -81 -78 -125.5t-173 -44.5q-154 0 -210 101h-2q-66 -93 -198 -93
q-84 0 -133 42t-49 117q0 91 81 134q64 34 252 37v32q0 90 -79 90q-75 0 -79 -69h-152q5 81 65.5 126t167.5 45q118 0 163 -68h2q56 69 167 69q132 0 195.5 -75.5t63.5 -200.5v-42h-364q5 -72 32 -105t78 -33q75 0 93 63h157z" />
    <glyph glyph-name="Oslashacute" unicode="&#x1fe;" horiz-adv-x="822" 
d="M411 660q-90 0 -138.5 -70.5t-48.5 -209.5q0 -82 14 -137l295 368q-46 49 -122 49zM411 101q90 0 139 71.5t49 207.5q0 89 -21 152l-300 -374q46 -57 133 -57zM772 380q0 -187 -97.5 -291.5t-263.5 -104.5q-133 0 -221 63l-58 -72h-108l105 131q-79 100 -79 274
q0 186 99 291t262 105q124 0 210 -56l58 73h108l-103 -129q88 -103 88 -284zM342 827l64 133h158l-103 -133h-119z" />
    <glyph glyph-name="oslashacute" unicode="&#x1ff;" horiz-adv-x="619" 
d="M310 445q-113 0 -113 -177q0 -41 6 -74l180 223q-26 28 -73 28zM310 91q112 0 112 177q0 36 -5 73l-181 -222q26 -28 74 -28zM581 268q0 -130 -75 -206t-197 -76q-87 0 -150 37l-50 -61h-94l87 108q-64 75 -64 198q0 132 73 206.5t199 74.5q87 0 150 -37l49 60h95
l-87 -108q64 -73 64 -196zM243 614l51 174h158l-88 -174h-121z" />
    <glyph glyph-name="Scommaaccent" unicode="&#x218;" horiz-adv-x="699" 
d="M251 -220l24 156h154l-73 -156h-105zM635 557h-168q-3 42 -32 71t-82 29t-84 -25.5t-31 -66.5q0 -39 23.5 -62t77.5 -33l116 -21q202 -37 202 -211q0 -123 -80 -188.5t-227 -65.5q-141 0 -220.5 63t-85.5 172h171q6 -52 42 -83.5t97 -31.5q65 0 99 29t34 75
q0 40 -25 62.5t-84 33.5l-114 22q-92 18 -144.5 72.5t-52.5 143.5q0 104 76.5 169t210.5 65q138 0 207.5 -61t73.5 -158z" />
    <glyph glyph-name="scommaaccent" unicode="&#x219;" horiz-adv-x="536" 
d="M166 -220l24 156h154l-73 -156h-105zM484 387h-140q-2 27 -22 44t-55 17q-36 0 -55.5 -15.5t-19.5 -40.5q0 -46 62 -54l91 -12q155 -21 155 -158q0 -87 -64 -135t-169 -48q-114 0 -171.5 47t-63.5 124h146q4 -69 90 -69q39 0 62 15t23 44q0 25 -14 37.5t-50 17.5l-86 12
q-157 22 -157 160q0 75 57 125.5t165 50.5q101 0 156 -44t60 -118z" />
    <glyph glyph-name="uni021A" unicode="&#x21a;" horiz-adv-x="662" 
d="M231 -220l24 156h154l-73 -156h-105zM639 765v-129h-226v-636h-164v636h-226v129h616z" />
    <glyph glyph-name="uni021B" unicode="&#x21b;" horiz-adv-x="401" 
d="M148 -220l24 156h154l-73 -156h-105zM119 687h136v-151h120v-110h-118v-237q0 -41 17 -59.5t57 -18.5l45 4v-116q-63 -6 -106 -6q-170 0 -170 166v267h-79v109h18q51 0 65.5 19.5t14.5 91.5v41z" />
    <glyph glyph-name="uni0237" unicode="&#x237;" horiz-adv-x="299" 
d="M-35 -197v111q10 -5 39 -5q36 0 52 18t16 58v551h159v-552q0 -190 -191 -190q-30 0 -75 9z" />
    <glyph glyph-name="circumflex" unicode="&#x2c6;" horiz-adv-x="369" 
d="M248 788l110 -174h-109l-69 77h-1l-66 -77h-101l110 174h126z" />
    <glyph glyph-name="caron" unicode="&#x2c7;" horiz-adv-x="369" 
d="M122 614l-110 174h109l69 -77h1l66 77h101l-110 -174h-126z" />
    <glyph glyph-name="breve" unicode="&#x2d8;" horiz-adv-x="369" 
d="M184 612q-74 0 -120 44t-46 132h105q0 -36 17.5 -55t46.5 -19t47 19t18 55h99q0 -88 -46 -132t-121 -44z" />
    <glyph glyph-name="dotaccent" unicode="&#x2d9;" horiz-adv-x="369" 
d="M116 636v137h137v-137h-137z" />
    <glyph glyph-name="ring" unicode="&#x2da;" horiz-adv-x="369" 
d="M188 602q-61 0 -96 33.5t-35 89.5q0 54 37 88.5t95 34.5q62 0 96.5 -34t34.5 -89t-36.5 -89t-95.5 -34zM188 785q-24 0 -38.5 -16.5t-14.5 -44.5q0 -27 14.5 -43.5t39.5 -16.5q24 0 38 16.5t14 43.5q0 28 -14 44.5t-39 16.5z" />
    <glyph glyph-name="ogonek" unicode="&#x2db;" horiz-adv-x="369" 
d="M198 9l64 -9q-50 -33 -50 -64q0 -34 51 -35v-89h-29q-143 0 -143 90q0 35 27 64t80 43z" />
    <glyph glyph-name="tilde" unicode="&#x2dc;" horiz-adv-x="369" 
d="M-5 614q0 73 28.5 118.5t89.5 45.5q34 0 78.5 -25.5t61.5 -25.5q38 0 50 52h71q0 -74 -28.5 -119.5t-89.5 -45.5q-34 0 -78.5 25.5t-61.5 25.5q-38 0 -49 -51h-72z" />
    <glyph glyph-name="hungarumlaut" unicode="&#x2dd;" horiz-adv-x="413" 
d="M208 614l52 174h127l-86 -174h-93zM44 614l39 174h128l-73 -174h-94z" />
    <glyph glyph-name="Wgrave" unicode="&#x1e80;" horiz-adv-x="1067" 
d="M539 960l64 -133h-120l-103 133h159zM388 0h-164l-203 765h170l106 -435q8 -34 14 -66.5t7 -47.5l2 -15h2q5 52 26 128l119 436h150l120 -435l30 -129h1q5 52 23 128l105 436h150l-202 -765h-161l-123 452q-9 34 -15 64.5t-7 43.5l-2 13h-2q-4 -44 -24 -120z" />
    <glyph glyph-name="wgrave" unicode="&#x1e81;" horiz-adv-x="860" 
d="M173 0l-156 536h153l71 -270q6 -24 11 -52.5t7 -44.5l2 -16h3q11 59 27 112l80 271h129l80 -271q7 -24 13.5 -52t9.5 -44l3 -16h4q9 59 23 112l70 271h139l-155 -536h-153l-65 213q-9 29 -18 69.5t-14 66.5l-5 26h-2q-20 -98 -40 -162l-66 -213h-151zM450 788l51 -174
h-121l-88 174h158z" />
    <glyph glyph-name="Wacute" unicode="&#x1e82;" horiz-adv-x="1067" 
d="M481 827l64 133h158l-103 -133h-119zM388 0h-164l-203 765h170l106 -435q8 -34 14 -66.5t7 -47.5l2 -15h2q5 52 26 128l119 436h150l120 -435l30 -129h1q5 52 23 128l105 436h150l-202 -765h-161l-123 452q-9 34 -15 64.5t-7 43.5l-2 13h-2q-4 -44 -24 -120z" />
    <glyph glyph-name="wacute" unicode="&#x1e83;" horiz-adv-x="860" 
d="M365 614l51 174h158l-88 -174h-121zM173 0l-156 536h153l71 -270q6 -24 11 -52.5t7 -44.5l2 -16h3q11 59 27 112l80 271h129l80 -271q7 -24 13.5 -52t9.5 -44l3 -16h4q9 59 23 112l70 271h139l-155 -536h-153l-65 213q-9 29 -18 69.5t-14 66.5l-5 26h-2q-20 -98 -40 -162
l-66 -213h-151z" />
    <glyph glyph-name="Wdieresis" unicode="&#x1e84;" horiz-adv-x="1067" 
d="M584 828v137h136v-137h-136zM369 828v137h136v-137h-136zM388 0h-164l-203 765h170l106 -435q8 -34 14 -66.5t7 -47.5l2 -15h2q5 52 26 128l119 436h150l120 -435l30 -129h1q5 52 23 128l105 436h150l-202 -765h-161l-123 452q-9 34 -15 64.5t-7 43.5l-2 13h-2
q-4 -44 -24 -120z" />
    <glyph glyph-name="wdieresis" unicode="&#x1e85;" horiz-adv-x="860" 
d="M471 636v137h137v-137h-137zM263 636v137h136v-137h-136zM173 0l-156 536h153l71 -270q6 -24 11 -52.5t7 -44.5l2 -16h3q11 59 27 112l80 271h129l80 -271q7 -24 13.5 -52t9.5 -44l3 -16h4q9 59 23 112l70 271h139l-155 -536h-153l-65 213q-9 29 -18 69.5t-14 66.5l-5 26
h-2q-20 -98 -40 -162l-66 -213h-151z" />
    <glyph glyph-name="Ygrave" unicode="&#x1ef2;" horiz-adv-x="697" 
d="M267 0v320l-256 445h181l161 -301h2l163 301h168l-255 -442v-323h-164zM349 960l64 -133h-120l-103 133h159z" />
    <glyph glyph-name="ygrave" unicode="&#x1ef3;" horiz-adv-x="571" 
d="M217 -3l-200 539h164l88 -282q8 -26 14 -52t8 -40l2 -13h3q6 47 23 105l83 282h155l-188 -553q-34 -99 -84 -140.5t-150 -41.5q-58 0 -79 7v116q22 -5 54 -5q45 0 68.5 14.5t34.5 50.5zM310 788l51 -174h-121l-88 174h158z" />
    <glyph glyph-name="uni2009" unicode="&#x2009;" horiz-adv-x="48" 
 />
    <glyph glyph-name="endash" unicode="&#x2013;" horiz-adv-x="524" 
d="M57 256v113h410v-113h-410z" />
    <glyph glyph-name="emdash" unicode="&#x2014;" horiz-adv-x="894" 
d="M57 258v109h780v-109h-780z" />
    <glyph glyph-name="quoteleft" unicode="&#x2018;" horiz-adv-x="289" 
d="M251 765l-59 -261h-162l120 261h101z" />
    <glyph glyph-name="quoteright" unicode="&#x2019;" horiz-adv-x="289" 
d="M38 504l60 261h161l-120 -261h-101z" />
    <glyph glyph-name="quotesinglbase" unicode="&#x201a;" horiz-adv-x="289" 
d="M40 -113l60 261h162l-121 -261h-101z" />
    <glyph glyph-name="quotedblleft" unicode="&#x201c;" horiz-adv-x="496" 
d="M457 765l-60 -261h-158l117 261h101zM249 765l-59 -261h-159l117 261h101z" />
    <glyph glyph-name="quotedblright" unicode="&#x201d;" horiz-adv-x="495" 
d="M249 504l60 261h158l-117 -261h-101zM41 504l60 261h158l-117 -261h-101z" />
    <glyph glyph-name="quotedblbase" unicode="&#x201e;" horiz-adv-x="494" 
d="M248 -113l59 261h159l-117 -261h-101zM40 -113l60 261h158l-117 -261h-101z" />
    <glyph glyph-name="dagger" unicode="&#x2020;" horiz-adv-x="334" 
d="M222 558v-268h-110v268h-87v105h87v102h110v-102h88v-105h-88z" />
    <glyph glyph-name="daggerdbl" unicode="&#x2021;" horiz-adv-x="334" 
d="M222 392v-102h-110v102h-87v93h87v85h-87v93h87v102h110v-102h88v-93h-88v-85h88v-93h-88z" />
    <glyph glyph-name="bullet" unicode="&#x2022;" horiz-adv-x="340" 
d="M169 185q-53 0 -86.5 34t-33.5 89q0 53 35.5 88t85.5 35q54 0 87.5 -34.5t33.5 -88.5t-35.5 -88.5t-86.5 -34.5z" />
    <glyph glyph-name="ellipsis" unicode="&#x2026;" horiz-adv-x="900" 
d="M670 0v159h169v-159h-169zM365 0v159h170v-159h-170zM61 0v159h169v-159h-169z" />
    <glyph glyph-name="perthousand" unicode="&#x2030;" horiz-adv-x="1317" 
d="M134 -40l534 821h114l-534 -821h-114zM230 381q-76 0 -125.5 47t-49.5 134q0 86 50.5 133t124.5 47q76 0 126.5 -46.5t50.5 -133.5q0 -86 -51 -133.5t-126 -47.5zM229 466q32 0 50.5 24.5t18.5 71.5t-18.5 72t-50.5 25q-67 0 -67 -97q0 -96 67 -96zM1085 -7
q-76 0 -125.5 47t-49.5 134t50 133.5t125 46.5q76 0 126 -46.5t50 -133.5q0 -86 -50.5 -133.5t-125.5 -47.5zM679 -7q-76 0 -125.5 47t-49.5 134t50 133.5t125 46.5q76 0 126 -46.5t50 -133.5q0 -86 -50.5 -133.5t-125.5 -47.5zM1084 78q32 0 50.5 24.5t18.5 71.5t-18.5 72
t-50.5 25q-68 0 -68 -97q0 -96 68 -96zM678 78q32 0 50.5 24.5t18.5 71.5t-18.5 72t-50.5 25q-68 0 -68 -97q0 -96 68 -96z" />
    <glyph glyph-name="uni2032" unicode="&#x2032;" horiz-adv-x="289" 
d="M57 504l21 261h162l-81 -261h-102z" />
    <glyph glyph-name="uni2033" unicode="&#x2033;" horiz-adv-x="495" 
d="M268 504l21 261h158l-78 -261h-101zM61 504l21 261h158l-78 -261h-101z" />
    <glyph glyph-name="guilsinglleft" unicode="&#x2039;" horiz-adv-x="313" 
d="M145 464h116l-97 -206l99 -201h-117l-108 204z" />
    <glyph glyph-name="guilsinglright" unicode="&#x203a;" horiz-adv-x="312" 
d="M168 57h-117l98 206l-99 201h117l107 -203z" />
    <glyph glyph-name="fraction" unicode="&#x2044;" horiz-adv-x="234" 
d="M-212 -40l547 821h111l-547 -821h-111z" />
    <glyph glyph-name="Euro" unicode="&#x20ac;" horiz-adv-x="716" 
d="M671 215q-4 -102 -75 -166t-199 -64q-248 0 -290 265h-78v77h71q-1 13 -1 40q0 28 1 41h-73v77h81q23 132 99 199t199 67q122 0 192 -64.5t76 -169.5h-164q-5 52 -32 87t-79 35q-54 0 -86 -37t-44 -117h179v-77h-185q-1 -12 -1 -39q0 -29 1 -42h187v-77h-181
q12 -80 43.5 -115.5t86.5 -35.5q102 0 114 116h158z" />
    <glyph glyph-name="trademark" unicode="&#x2122;" horiz-adv-x="713" 
d="M274 765v-66h-92v-240h-76v240h-91v66h259zM309 459v306h122l50 -157l11 -47h3q3 20 12 47l50 157h120v-306h-75v224h-3q-7 -27 -19 -62l-54 -162h-68l-56 161l-17 63h-4v-224h-72z" />
    <glyph glyph-name="onethird" unicode="&#x2153;" horiz-adv-x="917" 
d="M698 183h-50v71h41q26 0 43.5 14t17.5 38t-16 37.5t-41 13.5q-29 0 -43.5 -15t-15.5 -39h-113q2 55 45 95.5t134 40.5q78 0 122 -33t44 -84q0 -76 -85 -97v-2q96 -17 96 -103q0 -54 -47.5 -91.5t-132.5 -37.5q-93 0 -135.5 39t-44.5 97h116q2 -25 19.5 -39t43.5 -14
q30 0 48 16t18 40q0 25 -17 39t-47 14zM118 334v280h-94v76h14q42 0 66 17q24 18 24 58h105v-431h-115zM66 -40l547 821h111l-547 -821h-111z" />
    <glyph glyph-name="twothirds" unicode="&#x2154;" horiz-adv-x="1017" 
d="M797 183h-50v71h41q26 0 43.5 14t17.5 38t-16 37.5t-41 13.5q-29 0 -43.5 -15t-15.5 -39h-113q2 55 45 95.5t134 40.5q78 0 122 -33t44 -84q0 -76 -85 -97v-2q96 -17 96 -103q0 -54 -47.5 -91.5t-132.5 -37.5q-93 0 -135.5 39t-44.5 97h116q2 -25 19.5 -39t43.5 -14
q30 0 48 16t18 40q0 25 -17 39t-47 14zM147 614h-113q2 73 48 115t132 42t128.5 -35t42.5 -91q0 -46 -24 -79.5t-81 -78.5l-79 -65v-2h187v-86h-358v61l174 151q35 30 49 49.5t14 42.5q0 24 -14.5 38t-39.5 14q-66 0 -66 -76zM186 -40l547 821h111l-547 -821h-111z" />
    <glyph glyph-name="oneeighth" unicode="&#x215b;" horiz-adv-x="915" 
d="M526 319q0 54 43 86t125 32t125 -32t43 -87q0 -69 -66 -93v-2q83 -22 83 -102q0 -58 -48.5 -94t-136.5 -36q-93 0 -138.5 34.5t-45.5 95.5q0 79 82 102v2q-66 22 -66 94zM694 366q-59 0 -59 -56q0 -26 16.5 -41t42.5 -15t42.5 15t16.5 41q0 56 -59 56zM694 63
q31 0 50.5 16t19.5 46q0 31 -19 47t-51 16t-51.5 -16t-19.5 -47q0 -30 20 -46t51 -16zM118 334v280h-94v76h14q42 0 66 17q24 18 24 58h105v-431h-115zM65 -40l547 821h111l-547 -821h-111z" />
    <glyph glyph-name="threeeighths" unicode="&#x215c;" horiz-adv-x="992" 
d="M603 320q0 54 43 86t125 32t125 -32t43 -87q0 -69 -66 -93v-2q83 -22 83 -102q0 -58 -48.5 -94t-136.5 -36q-93 0 -138.5 34.5t-45.5 95.5q0 79 82 102v2q-66 22 -66 94zM771 367q-59 0 -59 -56q0 -26 16.5 -41t42.5 -15t42.5 15t16.5 41q0 56 -59 56zM771 64
q31 0 50.5 16t19.5 46q0 31 -19 47t-51 16t-51.5 -16t-19.5 -47q0 -30 20 -46t51 -16zM161 -40l547 821h111l-547 -821h-111zM218 517h-50v71h41q26 0 43.5 14t17.5 38t-16 37.5t-41 13.5q-29 0 -43.5 -15t-15.5 -39h-113q2 55 45 95.5t134 40.5q78 0 122 -33t44 -84
q0 -76 -85 -97v-2q96 -17 96 -103q0 -54 -47.5 -91.5t-132.5 -37.5q-93 0 -135.5 39t-44.5 97h116q2 -25 19.5 -39t43.5 -14q30 0 48 16t18 40q0 25 -17 39t-47 14z" />
    <glyph glyph-name="fiveeighths" unicode="&#x215d;" horiz-adv-x="988" 
d="M599 319q0 54 43 86t125 32t125 -32t43 -87q0 -69 -66 -93v-2q83 -22 83 -102q0 -58 -48.5 -94t-136.5 -36q-93 0 -138.5 34.5t-45.5 95.5q0 79 82 102v2q-66 22 -66 94zM767 366q-59 0 -59 -56q0 -26 16.5 -41t42.5 -15t42.5 15t16.5 41q0 56 -59 56zM767 63
q31 0 50.5 16t19.5 46q0 31 -19 47t-51 16t-51.5 -16t-19.5 -47q0 -30 20 -46t51 -16zM280 474q0 29 -18.5 47.5t-47.5 18.5q-40 0 -63 -29h-100l20 254h293v-88h-205l-9 -104h1q33 44 101 44q65 0 103 -35.5t38 -100.5q0 -69 -46.5 -112.5t-135.5 -43.5q-166 0 -176 134
h115q2 -25 19.5 -38t43.5 -13q29 0 48 17.5t19 48.5zM154 -40l547 821h111l-547 -821h-111z" />
    <glyph glyph-name="seveneighths" unicode="&#x215e;" horiz-adv-x="920" 
d="M531 319q0 54 43 86t125 32t125 -32t43 -87q0 -69 -66 -93v-2q83 -22 83 -102q0 -58 -48.5 -94t-136.5 -36q-93 0 -138.5 34.5t-45.5 95.5q0 79 82 102v2q-66 22 -66 94zM699 366q-59 0 -59 -56q0 -26 16.5 -41t42.5 -15t42.5 15t16.5 41q0 56 -59 56zM699 63
q31 0 50.5 16t19.5 46q0 31 -19 47t-51 16t-51.5 -16t-19.5 -47q0 -30 20 -46t51 -16zM61 334l169 343h-202v88h337v-62l-183 -369h-121zM63 -40l547 821h111l-547 -821h-111z" />
    <glyph glyph-name="minus" unicode="&#x2212;" horiz-adv-x="632" 
d="M76 300v116h480v-116h-480z" />
    <glyph glyph-name="approxequal" unicode="&#x2248;" horiz-adv-x="633" 
d="M80 380q0 71 35 118t101 47q35 0 104 -23t90 -23q40 0 46 50h91q0 -73 -32 -119t-95 -46q-37 0 -106.5 23t-89.5 23q-41 0 -45 -50h-99zM80 181q0 72 34.5 118.5t101.5 46.5q35 0 104 -23t90 -23q40 0 46 50h91q0 -72 -32 -118.5t-95 -46.5q-37 0 -106.5 23t-89.5 23
q-41 0 -45 -50h-99z" />
    <glyph glyph-name="notequal" unicode="&#x2260;" horiz-adv-x="633" 
d="M292 195l-48 -105h-94l48 105h-122v115h175l41 90h-216v115h269l51 111h94l-51 -111h117v-115h-170l-41 -90h211v-115h-264z" />
    <glyph glyph-name="lessequal" unicode="&#x2264;" horiz-adv-x="633" 
d="M560 167l-496 223v83l496 223v-126l-316 -135l316 -138v-130zM560 0h-496v115h496v-115z" />
    <glyph glyph-name="greaterequal" unicode="&#x2265;" horiz-adv-x="633" 
d="M73 696l496 -223v-83l-496 -223v126l316 136l-316 137v130zM569 0h-496v115h496v-115z" />
    <glyph glyph-name="uni24C5" unicode="&#x24c5;" horiz-adv-x="899" 
d="M55 380q0 169 112.5 283t281.5 114t282 -114t113 -283q0 -168 -113 -282t-282 -114t-281.5 113.5t-112.5 282.5zM449 41q141 0 235.5 97.5t94.5 241.5t-94.5 242t-235.5 98t-235 -97.5t-94 -242.5q0 -144 94 -241.5t235 -97.5zM405 172h-105v422h172q77 0 121.5 -37
t44.5 -106q0 -73 -45.5 -110t-123.5 -37h-64v-132zM405 381h54q78 0 78 69q0 67 -77 67h-55v-136z" />
    <glyph glyph-name="quotedblright.sc" horiz-adv-x="495" 
d="M249 383l60 261h158l-117 -261h-101zM41 383l60 261h158l-117 -261h-101z" />
    <glyph glyph-name="Ibreve.sc" horiz-adv-x="319" 
d="M80 0v644h159v-644h-159zM160 711q-74 0 -120 44t-46 132h105q0 -36 17.5 -55t46.5 -19t47 19t18 55h99q0 -88 -46 -132t-121 -44z" />
    <glyph glyph-name="exclamdown.uc" horiz-adv-x="330" 
d="M225 522l32 -545h-184l33 545h119zM78 765h175v-152h-175v152z" />
    <glyph glyph-name="hyphen.uc" horiz-adv-x="425" 
d="M57 300v121h312v-121h-312z" />
    <glyph glyph-name="endash.uc" horiz-adv-x="524" 
d="M57 301v113h410v-113h-410z" />
    <glyph glyph-name="emdash.uc" horiz-adv-x="894" 
d="M57 303v109h780v-109h-780z" />
    <glyph glyph-name="guilsinglleft.uc" horiz-adv-x="313" 
d="M145 524h116l-97 -206l99 -201h-117l-108 204z" />
    <glyph glyph-name="guilsinglright.uc" horiz-adv-x="312" 
d="M168 117h-117l98 206l-99 201h117l107 -203z" />
    <glyph glyph-name="guillemotleft.uc" horiz-adv-x="531" 
d="M364 524h116l-97 -206l98 -201h-116l-108 204zM145 524h116l-97 -206l99 -201h-117l-108 204z" />
    <glyph glyph-name="guillemotright.uc" horiz-adv-x="544" 
d="M175 117h-118l99 206l-100 201h118l106 -203zM399 117h-116l97 206l-98 201h116l108 -203z" />
    <glyph glyph-name="parenleft.uc" horiz-adv-x="366" 
d="M343 -100h-114q-161 224 -161 459t161 459h114q-132 -233 -132 -459q0 -224 132 -459z" />
    <glyph glyph-name="parenright.uc" horiz-adv-x="357" 
d="M23 -100q132 235 132 459q0 226 -132 459h113q161 -221 161 -459t-161 -459h-113z" />
    <glyph glyph-name="space_uni0326" horiz-adv-x="369" 
d="M109 -207l24 156h154l-73 -156h-105z" />
    <glyph glyph-name="grave.uc" horiz-adv-x="368" 
d="M202 960l64 -133h-120l-103 133h159z" />
    <glyph glyph-name="bracketleft.uc" horiz-adv-x="386" 
d="M97 -100v918h264v-96h-133v-726h133v-96h-264z" />
    <glyph glyph-name="bracketright.uc" horiz-adv-x="386" 
d="M289 818v-918h-264v96h133v726h-133v96h264z" />
    <glyph glyph-name="braceleft.uc" horiz-adv-x="413" 
d="M72 303h-30v109h30q33 0 46.5 15.5t13.5 52.5v153q0 107 59.5 148t196.5 41v-92q-78 0 -104 -24t-26 -88v-128q0 -113 -80 -129v-4q80 -17 80 -132v-125q0 -64 26 -88t104 -24v-92q-136 0 -196 40t-60 141v158q0 37 -13.5 52.5t-46.5 15.5z" />
    <glyph glyph-name="braceright.uc" horiz-adv-x="413" 
d="M372 415v-109h-30q-34 0 -47 -15.5t-13 -52.5v-153q0 -107 -60 -148t-197 -41v92q78 0 104.5 24t26.5 88v129q0 112 80 128v4q-80 17 -80 132v125q0 64 -26.5 88t-104.5 24v92q136 0 196.5 -40t60.5 -141v-158q0 -37 13 -52.5t47 -15.5h30z" />
    <glyph glyph-name="slash.uc" horiz-adv-x="559" 
d="M-5 -91l432 902h120l-432 -902h-120z" />
    <glyph glyph-name="backslash.uc" horiz-adv-x="559" 
d="M443 -91l-431 902h120l431 -902h-120z" />
    <glyph glyph-name="bar.uc" horiz-adv-x="289" 
d="M89 -91v902h108v-902h-108z" />
    <glyph glyph-name="acute.uc" horiz-adv-x="368" 
d="M93 827l64 133h158l-103 -133h-119z" />
    <glyph glyph-name="at.uc" horiz-adv-x="1022" 
d="M720 126q-58 0 -95.5 25t-43.5 72h-3q-54 -95 -155 -95q-74 0 -115 47t-41 131q0 109 62.5 193t162.5 84q46 0 77 -21t42 -53h2l11 58h128l-59 -277q-9 -43 5.5 -66.5t49.5 -23.5q54 0 92.5 54t38.5 160q0 143 -100.5 238t-254.5 95q-164 0 -278 -118.5t-114 -292.5
t102.5 -279t263.5 -105q153 0 257 84l44 -45q-124 -104 -308 -104q-191 0 -314 124.5t-123 324.5q0 204 136 340t336 136q188 0 310.5 -109.5t122.5 -282.5q0 -146 -69 -220t-170 -74zM468 218q36 0 66.5 32t40.5 84l9 44q9 48 -8 82t-57 34q-56 0 -87 -59t-31 -129
q0 -88 67 -88z" />
    <glyph glyph-name="f.short" horiz-adv-x="371" 
d="M251 426v-426h-155v426h-77v110h77v72q0 101 50 143.5t143 42.5q48 0 78 -6v-111q-9 3 -44 3q-37 0 -54.5 -18t-17.5 -62v-64h105v-110h-105z" />
    <glyph glyph-name="f_f.short" horiz-adv-x="735" 
d="M251 426v-426h-155v426h-77v110h77v64q0 102 49.5 144t143.5 42q48 0 78 -6v-111q-12 4 -44 4q-37 0 -54.5 -18t-17.5 -62v-57h209v72q0 101 50 143.5t143 42.5q48 0 78 -6v-111q-9 3 -44 3q-37 0 -54.5 -18t-17.5 -62v-64h105v-110h-105v-426h-155v426h-209z" />
    <glyph glyph-name="macron.uc" horiz-adv-x="369" 
d="M13 838v104h342v-104h-342z" />
    <glyph glyph-name="circumflex.uc" horiz-adv-x="369" 
d="M253 960l108 -133h-115l-66 56h-1l-64 -56h-106l108 133h136z" />
    <glyph glyph-name="caron.uc" horiz-adv-x="369" 
d="M117 827l-108 133h115l66 -56h1l64 56h106l-108 -133h-136z" />
    <glyph glyph-name="breve.uc" horiz-adv-x="369" 
d="M184 815q-72 0 -118 38.5t-48 118.5h103q2 -29 20 -46t46 -17q27 0 45.5 16.5t21.5 46.5h97q-2 -80 -48 -118.5t-119 -38.5z" />
    <glyph glyph-name="caron.alt" horiz-adv-x="369" 
d="M132 601l6 187h125l-56 -187h-75z" />
    <glyph glyph-name="dotaccent.uc" horiz-adv-x="369" 
d="M116 833v137h137v-137h-137z" />
    <glyph glyph-name="ring.uc" horiz-adv-x="369" 
d="M188 797q-61 0 -96 33.5t-35 88.5t37 89.5t95 34.5q62 0 96.5 -34t34.5 -90q0 -55 -36.5 -88.5t-95.5 -33.5zM188 980q-24 0 -38.5 -17t-14.5 -44t14.5 -44t39.5 -17q24 0 38 17t14 44q0 28 -14 44.5t-39 16.5z" />
    <glyph glyph-name="sterling.tab" 
d="M565 126v-126h-518v92l40 29q49 36 62 74t-5 107h-104v97h70l-9 27q-36 105 -12.5 177.5t86.5 110.5t152 38q233 0 238 -223h-150q-4 115 -88 115q-61 0 -81.5 -51t4.5 -139l15 -55h177v-97h-152q14 -102 -64 -165l-11 -9v-2h350z" />
    <glyph glyph-name="tilde.uc" horiz-adv-x="369" 
d="M-5 819q4 155 116 155q35 0 81 -26t62 -26q35 0 49 53h71q-4 -155 -116 -155q-34 0 -80 26t-64 26q-35 0 -47 -53h-72z" />
    <glyph glyph-name="cent.tab" 
d="M413 199h140q-4 -95 -60 -148.5t-151 -61.5v-105h-69v104q-111 10 -170 83.5t-59 196.5q0 121 60 195t169 84v88h69v-87q95 -8 150 -60.5t58 -143.5h-141q-7 83 -67 101v-352q67 20 71 106zM273 94v350q-82 -26 -82 -174q0 -151 82 -176z" />
    <glyph glyph-name="plus.tab" 
d="M362 300v-196h-125v196h-190v116h190v194h125v-194h191v-116h-191z" />
    <glyph glyph-name="minus.tab" 
d="M60 300v116h480v-116h-480z" />
    <glyph glyph-name="multiply.tab" 
d="M133 95l-86 86l169 166l-168 166l86 87l166 -168l166 168l86 -85l-168 -167l168 -166l-86 -87l-167 169z" />
    <glyph glyph-name="divide.tab" 
d="M223 492v143h153v-143h-153zM60 300v116h480v-116h-480zM376 78h-153v144h153v-144z" />
    <glyph glyph-name="equal.tab" 
d="M60 400v115h480v-115h-480zM540 195h-480v115h480v-115z" />
    <glyph glyph-name="less.tab" 
d="M547 45l-497 252v72l497 253v-130l-316 -156l316 -157v-134z" />
    <glyph glyph-name="greater.tab" 
d="M53 618l497 -252v-71l-497 -253v130l316 156l-316 157v133z" />
    <glyph glyph-name="florin.tab" 
d="M362 348l-71 -537h-153l68 537h-101v111h115l14 110q15 124 71.5 173.5t147.5 49.5q43 0 73 -6v-116q-12 4 -40 4q-40 0 -63.5 -21t-31.5 -84l-15 -110h119v-111h-133z" />
    <glyph glyph-name="plusminus.tab" 
d="M362 369v-170h-125v170h-190v116h190v168h125v-168h191v-116h-191zM47 0v115h506v-115h-506z" />
    <glyph glyph-name="notequal.tab" 
d="M275 195l-48 -105h-94l48 105h-121v115h174l41 90h-215v115h268l51 111h94l-51 -111h118v-115h-171l-41 -90h212v-115h-265z" />
    <glyph glyph-name="approxequal.tab" 
d="M66 380q0 71 35 118t101 47q35 0 104 -23t90 -23q41 0 46 50h92q0 -73 -32 -119t-96 -46q-37 0 -106.5 23t-89.5 23q-39 0 -45 -50h-99zM66 181q0 72 35 118.5t101 46.5q35 0 104 -23t90 -23q41 0 46 50h92q0 -72 -32.5 -118.5t-95.5 -46.5q-37 0 -106.5 23t-89.5 23
q-39 0 -45 -50h-99z" />
    <glyph glyph-name="lessequal.tab" 
d="M547 167l-497 223v83l497 223v-126l-317 -135l317 -138v-130zM547 0h-497v115h497v-115z" />
    <glyph glyph-name="greaterequal.tab" 
d="M53 696l497 -223v-83l-497 -223v126l317 136l-317 137v130zM550 0h-497v115h497v-115z" />
    <glyph glyph-name="period.tab" horiz-adv-x="300" 
d="M65 0v159h169v-159h-169z" />
    <glyph glyph-name="comma.tab" horiz-adv-x="300" 
d="M38 -117l52 276h164l-110 -276h-106z" />
    <glyph glyph-name="colon.tab" horiz-adv-x="300" 
d="M66 368v159h167v-159h-167zM233 0h-167v159h167v-159z" />
    <glyph glyph-name="semicolon.tab" horiz-adv-x="300" 
d="M80 368v159h167v-159h-167zM135 -117h-106l52 276h164z" />
    <glyph glyph-name="hungarumlaut.uc" horiz-adv-x="413" 
d="M217 831l35 133h126l-69 -133h-92zM52 831l22 133h125l-56 -133h-91z" />
    <glyph glyph-name="currency.tab" 
d="M210 348q0 -42 24.5 -68.5t63.5 -26.5q40 0 64.5 26.5t24.5 68.5t-24.5 68.5t-64.5 26.5q-39 0 -63.5 -26.5t-24.5 -68.5zM113 348q0 42 18 83l-97 96l86 86l96 -98q38 19 82 19t84 -20l98 100l86 -86l-101 -98q19 -38 19 -82q0 -46 -19 -82l100 -98l-86 -86l-98 99
q-36 -18 -83 -18q-45 0 -82 17l-97 -99l-85 86l98 96q-19 40 -19 85z" />
    <glyph glyph-name="percent.tab" horiz-adv-x="900" 
d="M128 -40l534 821h113l-534 -821h-113zM222 381q-72 0 -119.5 47.5t-47.5 133.5t48 133t119 47q72 0 120 -46.5t48 -133.5q0 -86 -48.5 -133.5t-119.5 -47.5zM221 466q64 0 64 96q0 97 -64 97q-62 0 -62 -97q0 -96 62 -96zM677 -7q-73 0 -120 47.5t-47 133.5t48 133
t119 47q72 0 120 -46.5t48 -133.5q0 -86 -48.5 -133.5t-119.5 -47.5zM676 78q63 0 63 96q0 97 -63 97t-63 -97q0 -96 63 -96z" />
    <glyph glyph-name="perthousand.tab" horiz-adv-x="1200" 
d="M92 -40l534 821h114l-534 -821h-114zM55 562q0 86 45.5 133t111.5 47q68 0 113 -46.5t45 -133.5q0 -86 -45.5 -133.5t-112.5 -47.5q-68 0 -112.5 47t-44.5 134zM211 466q59 0 59 96q0 47 -15.5 72t-43.5 25q-57 0 -57 -97q0 -96 57 -96zM987 -7q-68 0 -112 47t-44 134
q0 86 45 133t111 47q68 0 113 -46.5t45 -133.5q0 -86 -45.5 -133.5t-112.5 -47.5zM617 -7q-68 0 -112.5 47t-44.5 134t44.5 133.5t112.5 46.5q67 0 112 -46.5t45 -133.5q0 -86 -45 -133.5t-112 -47.5zM986 78q27 0 43 24.5t16 71.5t-16 72t-43 25q-58 0 -58 -97
q0 -47 15.5 -71.5t42.5 -24.5zM616 78q27 0 42.5 24.5t15.5 71.5t-15.5 72t-42.5 25q-58 0 -58 -97q0 -96 58 -96z" />
    <glyph glyph-name="idotaccent" horiz-adv-x="295" 
d="M67 629v144h161v-144h-161zM68 0v536h159v-536h-159z" />
    <glyph glyph-name="A.sc" horiz-adv-x="688" 
d="M337 514q0 -1 -1 -6t-3.5 -14.5t-6 -21.5l-9 -30.5l-11.5 -38.5l-54 -165h168l-54 165q-11 32 -17.5 60t-8.5 39l-1 12h-2zM501 0l-45 132h-240l-46 -132h-151l236 644h177l237 -644h-168z" />
    <glyph glyph-name="AE.sc" horiz-adv-x="966" 
d="M459 254v277h-38l-131 -277h169zM241 151l-72 -151h-157l325 644h559v-113h-281v-154h267v-110h-267v-155h290v-112h-446v151h-218z" />
    <glyph glyph-name="B.sc" horiz-adv-x="666" 
d="M367 0h-287v644h285q227 0 227 -161q0 -55 -33 -89.5t-80 -47.5v-3q62 -10 102.5 -50.5t40.5 -103.5q0 -92 -68.5 -140.5t-186.5 -48.5zM239 381h100q100 0 100 81q0 38 -26 58.5t-72 20.5h-102v-160zM239 106h118q107 0 107 90q0 84 -109 84h-116v-174z" />
    <glyph glyph-name="C.sc" horiz-adv-x="694" 
d="M366 544q-65 0 -102.5 -56.5t-37.5 -167.5q0 -223 137 -223q52 0 82 32.5t35 92.5h161q-4 -111 -78 -173.5t-199 -62.5q-154 0 -230.5 86t-76.5 240q0 158 82.5 249.5t227.5 91.5q131 0 201 -59.5t74 -173.5h-163q-9 124 -113 124z" />
    <glyph glyph-name="D.sc" horiz-adv-x="708" 
d="M80 0v644h238q155 0 245 -78t90 -236q0 -161 -90.5 -245.5t-243.5 -84.5h-239zM239 111h75q171 0 171 216q0 207 -167 207h-79v-423z" />
    <glyph glyph-name="Dcroat.sc" horiz-adv-x="727" 
d="M340 0h-240v273h-61v99h61v272h238q155 0 245 -78t90 -236q0 -160 -90.5 -245t-242.5 -85zM260 111h74q171 0 171 216q0 207 -167 207h-78v-162h130v-99h-130v-162z" />
    <glyph glyph-name="E.sc" horiz-adv-x="594" 
d="M80 0v644h445v-113h-286v-154h271v-110h-271v-155h295v-112h-454z" />
    <glyph glyph-name="Eng.sc" horiz-adv-x="718" 
d="M388 -166h-57v113h42q51 0 78 11.5t37 38.5l-204 327q-17 27 -31.5 55t-20.5 43l-7 14h-3v-436h-142v644h170l187 -316q16 -28 30 -55t19 -40l6 -13h3v424h143v-596q0 -120 -62.5 -167t-187.5 -47z" />
    <glyph glyph-name="Eth.sc" horiz-adv-x="727" 
d="M340 0h-240v273h-61v99h61v272h238q155 0 245 -78t90 -236q0 -160 -90.5 -245t-242.5 -85zM260 111h74q171 0 171 216q0 207 -167 207h-78v-162h130v-99h-130v-162z" />
    <glyph glyph-name="F.sc" horiz-adv-x="566" 
d="M239 239v-239h-159v644h436v-116h-277v-176h260v-113h-260z" />
    <glyph glyph-name="G.sc" horiz-adv-x="727" 
d="M373 546q-72 0 -111.5 -57.5t-39.5 -169.5q0 -224 149 -224q63 0 101.5 35.5t38.5 98.5v10h-142v106h286v-345h-117v86h-3q-55 -99 -188 -99q-144 0 -217.5 87t-73.5 236q0 157 86.5 250t232.5 93q124 0 194.5 -55.5t78.5 -153.5h-161q-6 48 -35.5 75t-78.5 27z" />
    <glyph glyph-name="H.sc" horiz-adv-x="725" 
d="M239 263v-263h-159v644h159v-265h246v265h160v-644h-160v263h-246z" />
    <glyph glyph-name="I.sc" horiz-adv-x="319" 
d="M80 0v644h159v-644h-159z" />
    <glyph glyph-name="IJ.sc" horiz-adv-x="711" 
d="M389 -2h-48v119h24q72 0 94.5 26.5t22.5 87.5v413h157v-431q0 -119 -63 -167t-187 -48zM80 0v644h159v-644h-159z" />
    <glyph glyph-name="J.sc" horiz-adv-x="420" 
d="M99 -2h-63v119h36q73 0 96 26.5t23 87.5v413h157v-431q0 -119 -62.5 -167t-186.5 -48z" />
    <glyph glyph-name="K.sc" horiz-adv-x="678" 
d="M239 189v-189h-159v644h159v-284l237 284h167l-232 -274l239 -370h-180l-167 263z" />
    <glyph glyph-name="L.sc" horiz-adv-x="571" 
d="M80 0v644h159v-525h274v-119h-433z" />
    <glyph glyph-name="M.sc" horiz-adv-x="880" 
d="M80 0v644h225l107 -332l26 -99h3q9 46 26 99l105 332h228v-644h-153v504h-2q-15 -64 -41 -145l-114 -359h-112l-115 360q-12 36 -21.5 72t-13.5 54l-4 18h-3v-504h-141z" />
    <glyph glyph-name="N.sc" horiz-adv-x="718" 
d="M80 0v644h170l186 -317q16 -28 30 -55t20 -40l6 -14h3v426h143v-644h-161l-193 324l-31 56t-21 42l-7 15h-3v-437h-142z" />
    <glyph glyph-name="O.sc" horiz-adv-x="742" 
d="M57 320q0 156 85 244.5t229 88.5q150 0 232 -87t82 -246q0 -157 -84 -245t-230 -88q-153 0 -233.5 86.5t-80.5 246.5zM371 96q71 0 108.5 57t37.5 167q0 109 -40 167.5t-106 58.5q-145 0 -145 -226q0 -224 145 -224z" />
    <glyph glyph-name="OE.sc" horiz-adv-x="1022" 
d="M518 265v105q0 80 -37.5 128t-102.5 48q-66 0 -108 -55.5t-42 -169.5q0 -110 39 -167.5t109 -57.5q69 0 105.5 45t36.5 124zM514 65q-51 -77 -170 -77q-133 0 -210 85.5t-77 246.5q0 159 82.5 246t211.5 87q53 0 97.5 -21t66.5 -60h2v72h435v-113h-281v-154h267v-110
h-267v-155h290v-112h-444v65h-3z" />
    <glyph glyph-name="Oslash.sc" horiz-adv-x="742" 
d="M371 549q-152 0 -152 -229q0 -62 11 -111l244 296q-38 44 -103 44zM371 93q74 0 113.5 57.5t39.5 169.5q0 66 -14 114l-246 -299q38 -42 107 -42zM685 320q0 -157 -84 -245t-230 -88q-113 0 -187 51l-49 -59h-95l89 108q-72 86 -72 233q0 156 85 244.5t229 88.5
q108 0 185 -49l53 64h95l-93 -113q74 -86 74 -235z" />
    <glyph glyph-name="P.sc" horiz-adv-x="616" 
d="M312 214h-73v-214h-159v644h246q118 0 186.5 -51t68.5 -159q0 -220 -269 -220zM239 325h75q55 0 85.5 27.5t30.5 81.5q0 103 -115 103h-76v-212z" />
    <glyph glyph-name="Q.sc" horiz-adv-x="741" 
d="M57 320q0 156 84.5 245t230.5 88q148 0 230.5 -87.5t83.5 -245.5q-1 -94 -33 -164t-93 -103v-4q47 -6 77.5 -29t52.5 -67l-131 -72q-34 61 -65.5 85.5t-79.5 24.5q-10 0 -22.5 -1t-21.5 -1q-154 0 -233.5 85.5t-79.5 245.5zM371 94q146 0 146 224q0 110 -39.5 169
t-105.5 59q-146 0 -146 -228q0 -224 145 -224z" />
    <glyph glyph-name="R.sc" horiz-adv-x="663" 
d="M239 344h89q49 0 81 24t32 76q0 48 -31.5 72.5t-79.5 24.5h-91v-197zM457 0l-127 245h-91v-245h-159v644h268q78 0 132 -20q53 -18 88 -61.5t35 -109.5q0 -131 -127 -177v-2l150 -274h-169z" />
    <glyph glyph-name="S.sc" horiz-adv-x="630" 
d="M563 469h-156q-2 33 -25.5 55t-66.5 22q-40 0 -65.5 -19.5t-25.5 -52.5q0 -32 19.5 -49.5t61.5 -24.5l105 -17q170 -28 170 -180q0 -105 -72.5 -161t-195.5 -56q-122 0 -192.5 54.5t-72.5 144.5h158q3 -42 32 -66.5t80 -24.5q53 0 79 22t26 59q0 62 -85 77l-104 18
q-78 13 -122 59.5t-44 124.5q0 86 66.5 142.5t183.5 56.5q122 0 181 -50t65 -134z" />
    <glyph glyph-name="T.sc" horiz-adv-x="592" 
d="M564 644v-120h-188v-524h-160v524h-188v120h536z" />
    <glyph glyph-name="Tbar.sc" horiz-adv-x="592" 
d="M564 644v-120h-188v-131h145v-90h-145v-303h-160v303h-147v90h147v131h-188v120h536z" />
    <glyph glyph-name="Thorn.sc" horiz-adv-x="613" 
d="M318 237h6q48 2 74.5 25.5t26.5 67.5q0 90 -105 90h-81v-183h79zM334 133h-95v-133h-159v644h159v-122h104q108 0 171 -46.5t63 -143.5q0 -104 -65 -151.5t-178 -47.5z" />
    <glyph glyph-name="U.sc" horiz-adv-x="693" 
d="M74 228v416h158v-393q0 -76 22 -106q29 -40 94 -40q67 0 96 41q20 28 20 105v393h155v-416q0 -120 -72.5 -181t-199.5 -61q-131 0 -202 59.5t-71 182.5z" />
    <glyph glyph-name="V.sc" horiz-adv-x="652" 
d="M238 0l-221 644h167l120 -385q10 -32 16.5 -61t7.5 -42l2 -14h3q6 46 29 118l121 384h152l-219 -644h-178z" />
    <glyph glyph-name="W.sc" horiz-adv-x="927" 
d="M346 0h-156l-170 644h164l78 -337q7 -29 12 -61t6 -50l2 -17h2q6 56 24 121l93 344h142l95 -347q8 -29 14 -58.5t8 -44.5l3 -15h2q4 57 19 122l77 343h146l-169 -644h-153l-98 356q-8 28 -13 57t-6 44l-2 15h-2q-4 -54 -21 -116z" />
    <glyph glyph-name="X.sc" horiz-adv-x="677" 
d="M19 0l228 333l-204 311h178l122 -201h1l127 201h162l-207 -306l228 -338h-186l-139 222h-2l-144 -222h-164z" />
    <glyph glyph-name="Y.sc" horiz-adv-x="623" 
d="M233 0v271l-220 373h171l133 -248h2l132 248h159l-219 -373v-271h-158z" />
    <glyph glyph-name="Z.sc" horiz-adv-x="606" 
d="M62 528v116h494v-104l-325 -423h328v-117h-513v104l326 424h-310z" />
    <glyph glyph-name="ampersand.sc" horiz-adv-x="703" 
d="M251 495q0 -25 10 -42t44 -53q38 25 56 48t18 53q0 28 -17 45t-45 17q-30 0 -48 -19t-18 -49zM247 282l-4 -3q-55 -37 -55 -90q0 -45 27.5 -70.5t73.5 -25.5q58 0 101 43zM652 0h-33q-53 0 -84.5 12.5t-67.5 46.5q-78 -72 -195 -72q-108 0 -167 49.5t-59 134.5
q0 106 138 185q-35 35 -51 67t-16 73q0 67 54 112t147 45q88 0 138.5 -40t50.5 -101q0 -56 -31.5 -92.5t-103.5 -85.5l87 -90q8 16 46 105h136q-74 -155 -96 -191q28 -28 48.5 -35.5t58.5 -7.5v-115z" />
    <glyph glyph-name="uni0237.sc" horiz-adv-x="420" 
d="M99 -2h-63v119h36q73 0 96 26.5t23 87.5v413h157v-431q0 -119 -62.5 -167t-186.5 -48z" />
    <glyph glyph-name="exclam.sc" horiz-adv-x="345" 
d="M117 206l-31 438h172l-31 -438h-110zM252 0h-160v134h160v-134z" />
    <glyph glyph-name="exclamdown.sc" horiz-adv-x="345" 
d="M252 644v-134h-160v134h160zM227 438l31 -438h-172l32 438h109z" />
    <glyph glyph-name="germandbls.sc" horiz-adv-x="1259" 
d="M563 469h-156q-2 33 -25.5 55t-66.5 22q-40 0 -65.5 -19.5t-25.5 -52.5q0 -32 19.5 -49.5t61.5 -24.5l105 -17q170 -28 170 -180q0 -105 -72.5 -161t-195.5 -56q-122 0 -192.5 54.5t-72.5 144.5h158q3 -42 32 -66.5t80 -24.5q53 0 79 22t26 59q0 62 -85 77l-104 18
q-78 13 -122 59.5t-44 124.5q0 86 66.5 142.5t183.5 56.5q122 0 181 -50t65 -134zM1193 469h-156q-2 33 -25.5 55t-66.5 22q-40 0 -65.5 -19.5t-25.5 -52.5q0 -32 19.5 -49.5t61.5 -24.5l105 -17q170 -28 170 -180q0 -105 -72.5 -161t-195.5 -56q-122 0 -192.5 54.5
t-72.5 144.5h158q3 -42 32 -66.5t80 -24.5q53 0 79 22t26 59q0 62 -85 77l-104 18q-78 13 -122 59.5t-44 124.5q0 86 66.5 142.5t183.5 56.5q122 0 181 -50t65 -134z" />
    <glyph glyph-name="question.sc" horiz-adv-x="566" 
d="M347 206h-128v42q0 31 10 51.5t39 44.5l53 43q28 23 38 41t10 44q0 33 -22.5 54t-62.5 21q-49 0 -74.5 -29.5t-25.5 -83.5h-137q-2 97 61 158t179 61q109 0 169 -49t60 -127q0 -56 -22 -93.5t-67 -72.5l-58 -45q-15 -12 -18.5 -20t-3.5 -28v-12zM201 0v138h161v-138h-161
z" />
    <glyph glyph-name="questiondown.sc" horiz-adv-x="566" 
d="M364 644v-137h-161v137h161zM278 -9q-109 0 -169 49t-60 128q0 55 22 91.5t67 73.5l58 46q15 12 18.5 19.5t3.5 27.5v12h128v-42q0 -31 -10 -51.5t-39 -44.5l-53 -43q-28 -22 -38 -40.5t-10 -44.5q0 -33 22.5 -53.5t61.5 -20.5q101 0 101 112h137q2 -97 -61 -158
t-179 -61z" />
    <glyph glyph-name="quotedblleft.sc" horiz-adv-x="496" 
d="M457 644l-60 -261h-158l117 261h101zM249 644l-59 -261h-159l117 261h101z" />
    <glyph glyph-name="space.tab" horiz-adv-x="300" 
 />
    <glyph glyph-name="quoteleft.sc" horiz-adv-x="289" 
d="M251 644l-59 -261h-162l120 261h101z" />
    <glyph glyph-name="quoteright.sc" horiz-adv-x="289" 
d="M38 383l60 261h161l-120 -261h-101z" />
    <glyph glyph-name="Lslash.sc" horiz-adv-x="571" 
d="M80 0v216l-64 -22v106l64 22v322h159v-266l187 65v-105l-187 -66v-153h274v-119h-433z" />
    <glyph glyph-name="AEacute.sc" horiz-adv-x="966" 
d="M497 713l51 174h158l-88 -174h-121zM459 254v277h-38l-131 -277h169zM241 151l-72 -151h-157l325 644h559v-113h-281v-154h267v-110h-267v-155h290v-112h-446v151h-218z" />
    <glyph glyph-name="Aacute.sc" horiz-adv-x="688" 
d="M283 713l51 174h158l-88 -174h-121zM337 514q0 -1 -1 -6t-3.5 -14.5t-6 -21.5l-9 -30.5l-11.5 -38.5l-54 -165h168l-54 165q-11 32 -17.5 60t-8.5 39l-1 12h-2zM501 0l-45 132h-240l-46 -132h-151l236 644h177l237 -644h-168z" />
    <glyph glyph-name="Abreve.sc" horiz-adv-x="688" 
d="M337 514q0 -1 -1 -6t-3.5 -14.5t-6 -21.5l-9 -30.5l-11.5 -38.5l-54 -165h168l-54 165q-11 32 -17.5 60t-8.5 39l-1 12h-2zM501 0l-45 132h-240l-46 -132h-151l236 644h177l237 -644h-168zM343 711q-74 0 -120 44t-46 132h105q0 -36 17.5 -55t46.5 -19t47 19t18 55h99
q0 -88 -46 -132t-121 -44z" />
    <glyph glyph-name="Acircumflex.sc" horiz-adv-x="688" 
d="M411 887l110 -174h-109l-69 77h-1l-66 -77h-101l110 174h126zM337 514q0 -1 -1 -6t-3.5 -14.5t-6 -21.5l-9 -30.5l-11.5 -38.5l-54 -165h168l-54 165q-11 32 -17.5 60t-8.5 39l-1 12h-2zM501 0l-45 132h-240l-46 -132h-151l236 644h177l237 -644h-168z" />
    <glyph glyph-name="Adieresis.sc" horiz-adv-x="688" 
d="M379 735v137h137v-137h-137zM171 735v137h136v-137h-136zM337 514q0 -1 -1 -6t-3.5 -14.5t-6 -21.5l-9 -30.5l-11.5 -38.5l-54 -165h168l-54 165q-11 32 -17.5 60t-8.5 39l-1 12h-2zM501 0l-45 132h-240l-46 -132h-151l236 644h177l237 -644h-168z" />
    <glyph glyph-name="Agrave.sc" horiz-adv-x="688" 
d="M337 514q0 -1 -1 -6t-3.5 -14.5t-6 -21.5l-9 -30.5l-11.5 -38.5l-54 -165h168l-54 165q-11 32 -17.5 60t-8.5 39l-1 12h-2zM501 0l-45 132h-240l-46 -132h-151l236 644h177l237 -644h-168zM359 887l51 -174h-121l-88 174h158z" />
    <glyph glyph-name="Amacron.sc" horiz-adv-x="688" 
d="M337 514q0 -1 -1 -6t-3.5 -14.5t-6 -21.5l-9 -30.5l-11.5 -38.5l-54 -165h168l-54 165q-11 32 -17.5 60t-8.5 39l-1 12h-2zM501 0l-45 132h-240l-46 -132h-151l236 644h177l237 -644h-168zM172 735v104h342v-104h-342z" />
    <glyph glyph-name="Aogonek.sc" horiz-adv-x="688" 
d="M666 -188h-29q-142 0 -142 90q0 59 72 98h-65l-46 132h-240l-46 -132h-151l236 644h177l235 -640q-52 -36 -52 -67q0 -35 51 -36v-89zM337 514q0 -1 -1 -6t-3.5 -14.5t-6 -21.5l-9 -30.5l-11.5 -38.5l-54 -165h168l-54 165q-11 32 -17.5 60t-8.5 39l-1 12h-2z" />
    <glyph glyph-name="Aring.sc" horiz-adv-x="688" 
d="M343 701q-61 0 -96 33.5t-35 89.5q0 54 37 88.5t95 34.5q62 0 96.5 -34t34.5 -89t-36.5 -89t-95.5 -34zM343 884q-24 0 -38.5 -16.5t-14.5 -44.5q0 -27 14.5 -43.5t39.5 -16.5q24 0 38 16.5t14 43.5q0 28 -14 44.5t-39 16.5zM337 514q0 -1 -1 -6t-3.5 -14.5t-6 -21.5
l-9 -30.5l-11.5 -38.5l-54 -165h168l-54 165q-11 32 -17.5 60t-8.5 39l-1 12h-2zM501 0l-45 132h-240l-46 -132h-151l236 644h177l237 -644h-168z" />
    <glyph glyph-name="uni01FA.sc" horiz-adv-x="688" 
d="M343 701q-61 0 -96 33.5t-35 89.5q0 54 37 88.5t95 34.5q62 0 96.5 -34t34.5 -89t-36.5 -89t-95.5 -34zM343 884q-24 0 -38.5 -16.5t-14.5 -44.5q0 -27 14.5 -43.5t39.5 -16.5q24 0 38 16.5t14 43.5q0 28 -14 44.5t-39 16.5zM337 514q0 -1 -1 -6t-3.5 -14.5t-6 -21.5
l-9 -30.5l-11.5 -38.5l-54 -165h168l-54 165q-11 32 -17.5 60t-8.5 39l-1 12h-2zM501 0l-45 132h-240l-46 -132h-151l236 644h177l237 -644h-168zM282 986l64 133h158l-103 -133h-119z" />
    <glyph glyph-name="Atilde.sc" horiz-adv-x="688" 
d="M337 514q0 -1 -1 -6t-3.5 -14.5t-6 -21.5l-9 -30.5l-11.5 -38.5l-54 -165h168l-54 165q-11 32 -17.5 60t-8.5 39l-1 12h-2zM501 0l-45 132h-240l-46 -132h-151l236 644h177l237 -644h-168zM154 713q0 73 28.5 118.5t89.5 45.5q34 0 78.5 -25.5t61.5 -25.5q38 0 50 52h71
q0 -74 -28.5 -119.5t-89.5 -45.5q-34 0 -78.5 25.5t-61.5 25.5q-38 0 -49 -51h-72z" />
    <glyph glyph-name="Cacute.sc" horiz-adv-x="694" 
d="M303 713l51 174h158l-88 -174h-121zM366 544q-65 0 -102.5 -56.5t-37.5 -167.5q0 -223 137 -223q52 0 82 32.5t35 92.5h161q-4 -111 -78 -173.5t-199 -62.5q-154 0 -230.5 86t-76.5 240q0 158 82.5 249.5t227.5 91.5q131 0 201 -59.5t74 -173.5h-163q-9 124 -113 124z
" />
    <glyph glyph-name="Ccaron.sc" horiz-adv-x="694" 
d="M294 713l-110 174h109l69 -77h1l66 77h101l-110 -174h-126zM366 544q-65 0 -102.5 -56.5t-37.5 -167.5q0 -223 137 -223q52 0 82 32.5t35 92.5h161q-4 -111 -78 -173.5t-199 -62.5q-154 0 -230.5 86t-76.5 240q0 158 82.5 249.5t227.5 91.5q131 0 201 -59.5t74 -173.5
h-163q-9 124 -113 124z" />
    <glyph glyph-name="Ccedilla.sc" horiz-adv-x="694" 
d="M363 -232q-49 0 -76.5 22.5t-29.5 56.5h77q7 -21 31 -21q32 0 32 32q0 31 -32 31q-17 0 -27 -13h-65l50 112q-133 11 -199.5 96t-66.5 228q0 158 82.5 249.5t227.5 91.5q131 0 201 -59.5t74 -173.5h-163q-9 124 -113 124q-65 0 -102.5 -56.5t-37.5 -167.5
q0 -223 137 -223q52 0 82 32.5t35 92.5h161q-4 -109 -74.5 -171t-191.5 -65l-21 -45h2q14 10 40 10q37 0 60.5 -24t23.5 -65q0 -39 -30 -66.5t-87 -27.5z" />
    <glyph glyph-name="Ccircumflex.sc" horiz-adv-x="694" 
d="M431 887l110 -174h-109l-69 77h-1l-66 -77h-101l110 174h126zM366 544q-65 0 -102.5 -56.5t-37.5 -167.5q0 -223 137 -223q52 0 82 32.5t35 92.5h161q-4 -111 -78 -173.5t-199 -62.5q-154 0 -230.5 86t-76.5 240q0 158 82.5 249.5t227.5 91.5q131 0 201 -59.5t74 -173.5
h-163q-9 124 -113 124z" />
    <glyph glyph-name="Cdotaccent.sc" horiz-adv-x="694" 
d="M366 544q-65 0 -102.5 -56.5t-37.5 -167.5q0 -223 137 -223q52 0 82 32.5t35 92.5h161q-4 -111 -78 -173.5t-199 -62.5q-154 0 -230.5 86t-76.5 240q0 158 82.5 249.5t227.5 91.5q131 0 201 -59.5t74 -173.5h-163q-9 124 -113 124zM294 735v137h137v-137h-137z" />
    <glyph glyph-name="Dcaron.sc" horiz-adv-x="708" 
d="M80 0v644h238q155 0 245 -78t90 -236q0 -161 -90.5 -245.5t-243.5 -84.5h-239zM239 111h75q171 0 171 216q0 207 -167 207h-79v-423zM269 713l-110 174h109l69 -77h1l66 77h101l-110 -174h-126z" />
    <glyph glyph-name="Eacute.sc" horiz-adv-x="594" 
d="M247 713l51 174h158l-88 -174h-121zM80 0v644h445v-113h-286v-154h271v-110h-271v-155h295v-112h-454z" />
    <glyph glyph-name="Ecaron.sc" horiz-adv-x="594" 
d="M238 713l-110 174h109l69 -77h1l66 77h101l-110 -174h-126zM80 0v644h445v-113h-286v-154h271v-110h-271v-155h295v-112h-454z" />
    <glyph glyph-name="Ecircumflex.sc" horiz-adv-x="594" 
d="M374 887l110 -174h-109l-69 77h-1l-66 -77h-101l110 174h126zM80 0v644h445v-113h-286v-154h271v-110h-271v-155h295v-112h-454z" />
    <glyph glyph-name="Edieresis.sc" horiz-adv-x="594" 
d="M343 735v137h137v-137h-137zM135 735v137h136v-137h-136zM80 0v644h445v-113h-286v-154h271v-110h-271v-155h295v-112h-454z" />
    <glyph glyph-name="Edotaccent.sc" horiz-adv-x="594" 
d="M238 735v137h137v-137h-137zM80 0v644h445v-113h-286v-154h271v-110h-271v-155h295v-112h-454z" />
    <glyph glyph-name="Egrave.sc" horiz-adv-x="594" 
d="M322 887l51 -174h-121l-88 174h158zM80 0v644h445v-113h-286v-154h271v-110h-271v-155h295v-112h-454z" />
    <glyph glyph-name="Emacron.sc" horiz-adv-x="594" 
d="M136 735v104h342v-104h-342zM80 0v644h445v-113h-286v-154h271v-110h-271v-155h295v-112h-454z" />
    <glyph glyph-name="Eogonek.sc" horiz-adv-x="594" 
d="M535 -99v-89h-29q-143 0 -143 90q0 65 80 98h-363v644h445v-113h-286v-154h271v-110h-271v-155h295v-112q-50 -33 -50 -64q0 -34 51 -35z" />
    <glyph glyph-name="Gbreve.sc" horiz-adv-x="727" 
d="M373 546q-72 0 -111.5 -57.5t-39.5 -169.5q0 -224 149 -224q63 0 101.5 35.5t38.5 98.5v10h-142v106h286v-345h-117v86h-3q-55 -99 -188 -99q-144 0 -217.5 87t-73.5 236q0 157 86.5 250t232.5 93q124 0 194.5 -55.5t78.5 -153.5h-161q-6 48 -35.5 75t-78.5 27zM362 711
q-74 0 -120 44t-46 132h105q0 -36 17.5 -55t46.5 -19t47 19t18 55h99q0 -88 -46 -132t-121 -44z" />
    <glyph glyph-name="Gcircumflex.sc" horiz-adv-x="727" 
d="M429 887l110 -174h-109l-69 77h-1l-66 -77h-101l110 174h126zM373 546q-72 0 -111.5 -57.5t-39.5 -169.5q0 -224 149 -224q63 0 101.5 35.5t38.5 98.5v10h-142v106h286v-345h-117v86h-3q-55 -99 -188 -99q-144 0 -217.5 87t-73.5 236q0 157 86.5 250t232.5 93
q124 0 194.5 -55.5t78.5 -153.5h-161q-6 48 -35.5 75t-78.5 27z" />
    <glyph glyph-name="Gcommaaccent.sc" horiz-adv-x="727" 
d="M262 -220l24 156h154l-73 -156h-105zM373 546q-72 0 -111.5 -57.5t-39.5 -169.5q0 -224 149 -224q63 0 101.5 35.5t38.5 98.5v10h-142v106h286v-345h-117v86h-3q-55 -99 -188 -99q-144 0 -217.5 87t-73.5 236q0 157 86.5 250t232.5 93q124 0 194.5 -55.5t78.5 -153.5
h-161q-6 48 -35.5 75t-78.5 27z" />
    <glyph glyph-name="Gdotaccent.sc" horiz-adv-x="727" 
d="M373 546q-72 0 -111.5 -57.5t-39.5 -169.5q0 -224 149 -224q63 0 101.5 35.5t38.5 98.5v10h-142v106h286v-345h-117v86h-3q-55 -99 -188 -99q-144 0 -217.5 87t-73.5 236q0 157 86.5 250t232.5 93q124 0 194.5 -55.5t78.5 -153.5h-161q-6 48 -35.5 75t-78.5 27zM293 735
v137h137v-137h-137z" />
    <glyph glyph-name="Hcircumflex.sc" horiz-adv-x="725" 
d="M430 887l110 -174h-109l-69 77h-1l-66 -77h-101l110 174h126zM239 263v-263h-159v644h159v-265h246v265h160v-644h-160v263h-246z" />
    <glyph glyph-name="Iacute.sc" horiz-adv-x="319" 
d="M100 713l51 174h158l-88 -174h-121zM80 0v644h159v-644h-159z" />
    <glyph glyph-name="questiondown.uc" horiz-adv-x="591" 
d="M188 185q0 -42 27 -67t75 -25q53 0 85.5 33.5t32.5 109.5h152q2 -120 -69.5 -193.5t-203.5 -73.5q-128 0 -191.5 58t-63.5 150q0 65 25 108.5t79 87.5l67 56q17 13 22.5 23.5t5.5 30.5v43h137v-64q0 -47 -10.5 -68.5t-50.5 -53.5l-57 -47q-32 -27 -47 -50t-15 -58z
M212 765h175v-152h-175v152z" />
    <glyph glyph-name="Icircumflex.sc" horiz-adv-x="319" 
d="M227 887l110 -174h-109l-69 77h-1l-66 -77h-101l110 174h126zM80 0v644h159v-644h-159z" />
    <glyph glyph-name="Idieresis.sc" horiz-adv-x="319" 
d="M196 735v137h137v-137h-137zM-12 735v137h136v-137h-136zM80 0v644h159v-644h-159z" />
    <glyph glyph-name="Igrave.sc" horiz-adv-x="319" 
d="M80 0v644h159v-644h-159zM175 887l51 -174h-121l-88 174h158z" />
    <glyph glyph-name="Imacron.sc" horiz-adv-x="319" 
d="M80 0v644h159v-644h-159zM-11 735v104h342v-104h-342z" />
    <glyph glyph-name="Iogonek.sc" horiz-adv-x="319" 
d="M238 -188h-29q-142 0 -142 90q0 66 79 98h-66v644h159v-641q-52 -35 -52 -66q0 -35 51 -36v-89z" />
    <glyph glyph-name="Itilde.sc" horiz-adv-x="319" 
d="M80 0v644h159v-644h-159zM-29 713q0 73 28.5 118.5t89.5 45.5q34 0 78.5 -25.5t61.5 -25.5q38 0 50 52h71q0 -74 -28.5 -119.5t-89.5 -45.5q-34 0 -78.5 25.5t-61.5 25.5q-38 0 -49 -51h-72z" />
    <glyph glyph-name="Jcircumflex.sc" horiz-adv-x="420" 
d="M337 887l110 -174h-109l-69 77h-1l-66 -77h-101l110 174h126zM99 -2h-63v119h36q73 0 96 26.5t23 87.5v413h157v-431q0 -119 -62.5 -167t-186.5 -48z" />
    <glyph glyph-name="Kcommaaccent.sc" horiz-adv-x="678" 
d="M258 -220l24 156h154l-73 -156h-105zM239 189v-189h-159v644h159v-284l237 284h167l-232 -274l239 -370h-180l-167 263z" />
    <glyph glyph-name="Lacute.sc" horiz-adv-x="571" 
d="M80 0v644h159v-525h274v-119h-433zM103 713l51 174h158l-88 -174h-121z" />
    <glyph glyph-name="Lcaron.sc" horiz-adv-x="571" 
d="M80 0v644h159v-525h274v-119h-433zM314 457l6 187h125l-56 -187h-75z" />
    <glyph glyph-name="Lcommaaccent.sc" horiz-adv-x="571" 
d="M80 0v644h159v-525h274v-119h-433zM196 -220l24 156h154l-73 -156h-105z" />
    <glyph glyph-name="Nacute.sc" horiz-adv-x="718" 
d="M299 713l51 174h158l-88 -174h-121zM80 0v644h170l186 -317q16 -28 30 -55t20 -40l6 -14h3v426h143v-644h-161l-193 324l-31 56t-21 42l-7 15h-3v-437h-142z" />
    <glyph glyph-name="Ncaron.sc" horiz-adv-x="718" 
d="M290 713l-110 174h109l69 -77h1l66 77h101l-110 -174h-126zM80 0v644h170l186 -317q16 -28 30 -55t20 -40l6 -14h3v426h143v-644h-161l-193 324l-31 56t-21 42l-7 15h-3v-437h-142z" />
    <glyph glyph-name="Ncommaaccent.sc" horiz-adv-x="718" 
d="M259 -220l24 156h154l-73 -156h-105zM80 0v644h170l186 -317q16 -28 30 -55t20 -40l6 -14h3v426h143v-644h-161l-193 324l-31 56t-21 42l-7 15h-3v-437h-142z" />
    <glyph glyph-name="Ntilde.sc" horiz-adv-x="718" 
d="M80 0v644h170l186 -317q16 -28 30 -55t20 -40l6 -14h3v426h143v-644h-161l-193 324l-31 56t-21 42l-7 15h-3v-437h-142zM170 713q0 73 28.5 118.5t89.5 45.5q34 0 78.5 -25.5t61.5 -25.5q38 0 50 52h71q0 -74 -28.5 -119.5t-89.5 -45.5q-34 0 -78.5 25.5t-61.5 25.5
q-38 0 -49 -51h-72z" />
    <glyph glyph-name="Oacute.sc" horiz-adv-x="742" 
d="M57 320q0 156 85 244.5t229 88.5q150 0 232 -87t82 -246q0 -157 -84 -245t-230 -88q-153 0 -233.5 86.5t-80.5 246.5zM371 96q71 0 108.5 57t37.5 167q0 109 -40 167.5t-106 58.5q-145 0 -145 -226q0 -224 145 -224zM311 713l51 174h158l-88 -174h-121z" />
    <glyph glyph-name="Obreve.sc" horiz-adv-x="742" 
d="M57 320q0 156 85 244.5t229 88.5q150 0 232 -87t82 -246q0 -157 -84 -245t-230 -88q-153 0 -233.5 86.5t-80.5 246.5zM371 96q71 0 108.5 57t37.5 167q0 109 -40 167.5t-106 58.5q-145 0 -145 -226q0 -224 145 -224zM371 711q-74 0 -120 44t-46 132h105q0 -36 17.5 -55
t46.5 -19t47 19t18 55h99q0 -88 -46 -132t-121 -44z" />
    <glyph glyph-name="Ocircumflex.sc" horiz-adv-x="742" 
d="M439 887l110 -174h-109l-69 77h-1l-66 -77h-101l110 174h126zM57 320q0 156 85 244.5t229 88.5q150 0 232 -87t82 -246q0 -157 -84 -245t-230 -88q-153 0 -233.5 86.5t-80.5 246.5zM371 96q71 0 108.5 57t37.5 167q0 109 -40 167.5t-106 58.5q-145 0 -145 -226
q0 -224 145 -224z" />
    <glyph glyph-name="Odieresis.sc" horiz-adv-x="742" 
d="M407 735v137h137v-137h-137zM199 735v137h136v-137h-136zM57 320q0 156 85 244.5t229 88.5q150 0 232 -87t82 -246q0 -157 -84 -245t-230 -88q-153 0 -233.5 86.5t-80.5 246.5zM371 96q71 0 108.5 57t37.5 167q0 109 -40 167.5t-106 58.5q-145 0 -145 -226
q0 -224 145 -224z" />
    <glyph glyph-name="Ograve.sc" horiz-adv-x="742" 
d="M57 320q0 156 85 244.5t229 88.5q150 0 232 -87t82 -246q0 -157 -84 -245t-230 -88q-153 0 -233.5 86.5t-80.5 246.5zM371 96q71 0 108.5 57t37.5 167q0 109 -40 167.5t-106 58.5q-145 0 -145 -226q0 -224 145 -224zM386 887l51 -174h-121l-88 174h158z" />
    <glyph glyph-name="Ohungarumlaut.sc" horiz-adv-x="742" 
d="M57 320q0 156 85 244.5t229 88.5q150 0 232 -87t82 -246q0 -157 -84 -245t-230 -88q-153 0 -233.5 86.5t-80.5 246.5zM371 96q71 0 108.5 57t37.5 167q0 109 -40 167.5t-106 58.5q-145 0 -145 -226q0 -224 145 -224zM401 713l52 174h127l-86 -174h-93zM237 713l39 174
h128l-73 -174h-94z" />
    <glyph glyph-name="Omacron.sc" horiz-adv-x="742" 
d="M57 320q0 156 85 244.5t229 88.5q150 0 232 -87t82 -246q0 -157 -84 -245t-230 -88q-153 0 -233.5 86.5t-80.5 246.5zM371 96q71 0 108.5 57t37.5 167q0 109 -40 167.5t-106 58.5q-145 0 -145 -226q0 -224 145 -224zM200 735v104h342v-104h-342z" />
    <glyph glyph-name="Oslashacute.sc" horiz-adv-x="742" 
d="M312 713l51 174h158l-88 -174h-121zM371 549q-152 0 -152 -229q0 -62 11 -111l244 296q-38 44 -103 44zM371 93q74 0 113.5 57.5t39.5 169.5q0 66 -14 114l-246 -299q38 -42 107 -42zM685 320q0 -157 -84 -245t-230 -88q-113 0 -187 51l-49 -59h-95l89 108
q-72 86 -72 233q0 156 85 244.5t229 88.5q108 0 185 -49l53 64h95l-93 -113q74 -86 74 -235z" />
    <glyph glyph-name="Otilde.sc" horiz-adv-x="742" 
d="M57 320q0 156 85 244.5t229 88.5q150 0 232 -87t82 -246q0 -157 -84 -245t-230 -88q-153 0 -233.5 86.5t-80.5 246.5zM371 96q71 0 108.5 57t37.5 167q0 109 -40 167.5t-106 58.5q-145 0 -145 -226q0 -224 145 -224zM182 713q0 73 28.5 118.5t89.5 45.5q34 0 78.5 -25.5
t61.5 -25.5q38 0 50 52h71q0 -74 -28.5 -119.5t-89.5 -45.5q-34 0 -78.5 25.5t-61.5 25.5q-38 0 -49 -51h-72z" />
    <glyph glyph-name="Racute.sc" horiz-adv-x="663" 
d="M258 713l51 174h158l-88 -174h-121zM239 344h89q49 0 81 24t32 76q0 48 -31.5 72.5t-79.5 24.5h-91v-197zM457 0l-127 245h-91v-245h-159v644h268q78 0 132 -20q53 -18 88 -61.5t35 -109.5q0 -131 -127 -177v-2l150 -274h-169z" />
    <glyph glyph-name="Rcaron.sc" horiz-adv-x="663" 
d="M249 713l-110 174h109l69 -77h1l66 77h101l-110 -174h-126zM239 344h89q49 0 81 24t32 76q0 48 -31.5 72.5t-79.5 24.5h-91v-197zM457 0l-127 245h-91v-245h-159v644h268q78 0 132 -20q53 -18 88 -61.5t35 -109.5q0 -131 -127 -177v-2l150 -274h-169z" />
    <glyph glyph-name="Rcommaaccent.sc" horiz-adv-x="656" 
d="M238 -207l24 156h154l-73 -156h-105zM239 344h89q49 0 81 24t32 76q0 48 -31.5 72.5t-79.5 24.5h-91v-197zM457 0l-127 245h-91v-245h-159v644h268q78 0 132 -20q53 -18 88 -61.5t35 -109.5q0 -131 -127 -177v-2l150 -274h-169z" />
    <glyph glyph-name="Sacute.sc" horiz-adv-x="630" 
d="M256 713l51 174h158l-88 -174h-121zM563 469h-156q-2 33 -25.5 55t-66.5 22q-40 0 -65.5 -19.5t-25.5 -52.5q0 -32 19.5 -49.5t61.5 -24.5l105 -17q170 -28 170 -180q0 -105 -72.5 -161t-195.5 -56q-122 0 -192.5 54.5t-72.5 144.5h158q3 -42 32 -66.5t80 -24.5
q53 0 79 22t26 59q0 62 -85 77l-104 18q-78 13 -122 59.5t-44 124.5q0 86 66.5 142.5t183.5 56.5q122 0 181 -50t65 -134z" />
    <glyph glyph-name="Scaron.sc" horiz-adv-x="630" 
d="M247 713l-110 174h109l69 -77h1l66 77h101l-110 -174h-126zM563 469h-156q-2 33 -25.5 55t-66.5 22q-40 0 -65.5 -19.5t-25.5 -52.5q0 -32 19.5 -49.5t61.5 -24.5l105 -17q170 -28 170 -180q0 -105 -72.5 -161t-195.5 -56q-122 0 -192.5 54.5t-72.5 144.5h158
q3 -42 32 -66.5t80 -24.5q53 0 79 22t26 59q0 62 -85 77l-104 18q-78 13 -122 59.5t-44 124.5q0 86 66.5 142.5t183.5 56.5q122 0 181 -50t65 -134z" />
    <glyph glyph-name="Scedilla.sc" horiz-adv-x="630" 
d="M316 -232q-49 0 -76.5 22.5t-29.5 56.5h77q7 -21 31 -21q32 0 32 32q0 31 -32 31q-17 0 -27 -13h-65l50 111q-106 8 -166.5 61.5t-62.5 136.5h158q3 -42 32 -66.5t80 -24.5q53 0 79 22t26 59q0 62 -85 77l-104 18q-78 13 -122 59.5t-44 124.5q0 86 66.5 142.5t183.5 56.5
q122 0 181 -50t65 -134h-156q-2 33 -25.5 55t-66.5 22q-40 0 -65.5 -19.5t-25.5 -52.5q0 -32 19.5 -49.5t61.5 -24.5l105 -17q170 -28 170 -180q0 -101 -68 -157t-184 -60l-21 -45h2q14 10 40 10q37 0 60.5 -24t23.5 -65q0 -39 -30 -66.5t-87 -27.5z" />
    <glyph glyph-name="Scircumflex.sc" horiz-adv-x="630" 
d="M384 887l110 -174h-109l-69 77h-1l-66 -77h-101l110 174h126zM563 469h-156q-2 33 -25.5 55t-66.5 22q-40 0 -65.5 -19.5t-25.5 -52.5q0 -32 19.5 -49.5t61.5 -24.5l105 -17q170 -28 170 -180q0 -105 -72.5 -161t-195.5 -56q-122 0 -192.5 54.5t-72.5 144.5h158
q3 -42 32 -66.5t80 -24.5q53 0 79 22t26 59q0 62 -85 77l-104 18q-78 13 -122 59.5t-44 124.5q0 86 66.5 142.5t183.5 56.5q122 0 181 -50t65 -134z" />
    <glyph glyph-name="Scommaaccent.sc" horiz-adv-x="630" 
d="M217 -220l24 156h154l-73 -156h-105zM563 469h-156q-2 33 -25.5 55t-66.5 22q-40 0 -65.5 -19.5t-25.5 -52.5q0 -32 19.5 -49.5t61.5 -24.5l105 -17q170 -28 170 -180q0 -105 -72.5 -161t-195.5 -56q-122 0 -192.5 54.5t-72.5 144.5h158q3 -42 32 -66.5t80 -24.5
q53 0 79 22t26 59q0 62 -85 77l-104 18q-78 13 -122 59.5t-44 124.5q0 86 66.5 142.5t183.5 56.5q122 0 181 -50t65 -134z" />
    <glyph glyph-name="Tcaron.sc" horiz-adv-x="592" 
d="M564 644v-120h-188v-524h-160v524h-188v120h536zM227 713l-110 174h109l69 -77h1l66 77h101l-110 -174h-126z" />
    <glyph glyph-name="Tcommaaccent.sc" horiz-adv-x="592" 
d="M564 644v-120h-188v-524h-160v524h-188v120h536zM196 -220l24 156h154l-73 -156h-105z" />
    <glyph glyph-name="Uacute.sc" horiz-adv-x="693" 
d="M286 713l51 174h158l-88 -174h-121zM74 228v416h158v-393q0 -76 22 -106q29 -40 94 -40q67 0 96 41q20 28 20 105v393h155v-416q0 -120 -72.5 -181t-199.5 -61q-131 0 -202 59.5t-71 182.5z" />
    <glyph glyph-name="Ubreve.sc" horiz-adv-x="693" 
d="M74 228v416h158v-393q0 -76 22 -106q29 -40 94 -40q67 0 96 41q20 28 20 105v393h155v-416q0 -120 -72.5 -181t-199.5 -61q-131 0 -202 59.5t-71 182.5zM346 711q-74 0 -120 44t-46 132h105q0 -36 17.5 -55t46.5 -19t47 19t18 55h99q0 -88 -46 -132t-121 -44z" />
    <glyph glyph-name="Ucircumflex.sc" horiz-adv-x="693" 
d="M414 887l110 -174h-109l-69 77h-1l-66 -77h-101l110 174h126zM74 228v416h158v-393q0 -76 22 -106q29 -40 94 -40q67 0 96 41q20 28 20 105v393h155v-416q0 -120 -72.5 -181t-199.5 -61q-131 0 -202 59.5t-71 182.5z" />
    <glyph glyph-name="Udieresis.sc" horiz-adv-x="693" 
d="M382 735v137h137v-137h-137zM174 735v137h136v-137h-136zM74 228v416h158v-393q0 -76 22 -106q29 -40 94 -40q67 0 96 41q20 28 20 105v393h155v-416q0 -120 -72.5 -181t-199.5 -61q-131 0 -202 59.5t-71 182.5z" />
    <glyph glyph-name="Ugrave.sc" horiz-adv-x="693" 
d="M362 887l51 -174h-121l-88 174h158zM74 228v416h158v-393q0 -76 22 -106q29 -40 94 -40q67 0 96 41q20 28 20 105v393h155v-416q0 -120 -72.5 -181t-199.5 -61q-131 0 -202 59.5t-71 182.5z" />
    <glyph glyph-name="Uhungarumlaut.sc" horiz-adv-x="693" 
d="M376 713l52 174h127l-86 -174h-93zM212 713l39 174h128l-73 -174h-94zM74 228v416h158v-393q0 -76 22 -106q29 -40 94 -40q67 0 96 41q20 28 20 105v393h155v-416q0 -120 -72.5 -181t-199.5 -61q-131 0 -202 59.5t-71 182.5z" />
    <glyph glyph-name="Umacron.sc" horiz-adv-x="693" 
d="M175 735v104h342v-104h-342zM74 228v416h158v-393q0 -76 22 -106q29 -40 94 -40q67 0 96 41q20 28 20 105v393h155v-416q0 -120 -72.5 -181t-199.5 -61q-131 0 -202 59.5t-71 182.5z" />
    <glyph glyph-name="Uogonek.sc" horiz-adv-x="693" 
d="M74 228v416h158v-393q0 -76 22 -106q29 -40 94 -40q67 0 96 41q20 28 20 105v393h155v-416q0 -185 -173 -230q-87 -21 -87 -70q0 -34 52 -34v-89h-29q-143 0 -143 90q0 60 70 92v1q-235 18 -235 240z" />
    <glyph glyph-name="Uring.sc" horiz-adv-x="693" 
d="M346 701q-61 0 -96 33.5t-35 89.5q0 54 37 88.5t95 34.5q62 0 96.5 -34t34.5 -89t-36.5 -89t-95.5 -34zM346 884q-24 0 -38.5 -16.5t-14.5 -44.5q0 -27 14.5 -43.5t39.5 -16.5q24 0 38 16.5t14 43.5q0 28 -14 44.5t-39 16.5zM74 228v416h158v-393q0 -76 22 -106
q29 -40 94 -40q67 0 96 41q20 28 20 105v393h155v-416q0 -120 -72.5 -181t-199.5 -61q-131 0 -202 59.5t-71 182.5z" />
    <glyph glyph-name="Utilde.sc" horiz-adv-x="693" 
d="M74 228v416h158v-393q0 -76 22 -106q29 -40 94 -40q67 0 96 41q20 28 20 105v393h155v-416q0 -120 -72.5 -181t-199.5 -61q-131 0 -202 59.5t-71 182.5zM157 713q0 73 28.5 118.5t89.5 45.5q34 0 78.5 -25.5t61.5 -25.5q38 0 50 52h71q0 -74 -28.5 -119.5t-89.5 -45.5
q-34 0 -78.5 25.5t-61.5 25.5q-38 0 -49 -51h-72z" />
    <glyph glyph-name="Wacute.sc" horiz-adv-x="927" 
d="M346 0h-156l-170 644h164l78 -337q7 -29 12 -61t6 -50l2 -17h2q6 56 24 121l93 344h142l95 -347q8 -29 14 -58.5t8 -44.5l3 -15h2q4 57 19 122l77 343h146l-169 -644h-153l-98 356q-8 28 -13 57t-6 44l-2 15h-2q-4 -54 -21 -116zM412 713l51 174h158l-88 -174h-121z" />
    <glyph glyph-name="Wcircumflex.sc" horiz-adv-x="927" 
d="M531 887l110 -174h-109l-69 77h-1l-66 -77h-101l110 174h126zM346 0h-156l-170 644h164l78 -337q7 -29 12 -61t6 -50l2 -17h2q6 56 24 121l93 344h142l95 -347q8 -29 14 -58.5t8 -44.5l3 -15h2q4 57 19 122l77 343h146l-169 -644h-153l-98 356q-8 28 -13 57t-6 44l-2 15
h-2q-4 -54 -21 -116z" />
    <glyph glyph-name="Wdieresis.sc" horiz-adv-x="927" 
d="M499 735v137h137v-137h-137zM291 735v137h136v-137h-136zM346 0h-156l-170 644h164l78 -337q7 -29 12 -61t6 -50l2 -17h2q6 56 24 121l93 344h142l95 -347q8 -29 14 -58.5t8 -44.5l3 -15h2q4 57 19 122l77 343h146l-169 -644h-153l-98 356q-8 28 -13 57t-6 44l-2 15h-2
q-4 -54 -21 -116z" />
    <glyph glyph-name="Wgrave.sc" horiz-adv-x="927" 
d="M346 0h-156l-170 644h164l78 -337q7 -29 12 -61t6 -50l2 -17h2q6 56 24 121l93 344h142l95 -347q8 -29 14 -58.5t8 -44.5l3 -15h2q4 57 19 122l77 343h146l-169 -644h-153l-98 356q-8 28 -13 57t-6 44l-2 15h-2q-4 -54 -21 -116zM479 887l51 -174h-121l-88 174h158z" />
    <glyph glyph-name="Yacute.sc" horiz-adv-x="623" 
d="M252 713l51 174h158l-88 -174h-121zM233 0v271l-220 373h171l133 -248h2l132 248h159l-219 -373v-271h-158z" />
    <glyph glyph-name="Ycircumflex.sc" horiz-adv-x="623" 
d="M380 887l110 -174h-109l-69 77h-1l-66 -77h-101l110 174h126zM233 0v271l-220 373h171l133 -248h2l132 248h159l-219 -373v-271h-158z" />
    <glyph glyph-name="Ydieresis.sc" horiz-adv-x="623" 
d="M348 735v137h137v-137h-137zM140 735v137h136v-137h-136zM233 0v271l-220 373h171l133 -248h2l132 248h159l-219 -373v-271h-158z" />
    <glyph glyph-name="Ygrave.sc" horiz-adv-x="623" 
d="M233 0v271l-220 373h171l133 -248h2l132 248h159l-219 -373v-271h-158zM328 887l51 -174h-121l-88 174h158z" />
    <glyph glyph-name="Zacute.sc" horiz-adv-x="606" 
d="M244 713l51 174h158l-88 -174h-121zM62 528v116h494v-104l-325 -423h328v-117h-513v104l326 424h-310z" />
    <glyph glyph-name="Zcaron.sc" horiz-adv-x="606" 
d="M235 713l-110 174h109l69 -77h1l66 77h101l-110 -174h-126zM62 528v116h494v-104l-325 -423h328v-117h-513v104l326 424h-310z" />
    <glyph glyph-name="Zdotaccent.sc" horiz-adv-x="606" 
d="M62 528v116h494v-104l-325 -423h328v-117h-513v104l326 424h-310zM236 735v137h137v-137h-137z" />
    <glyph glyph-name="Ldot.sc" horiz-adv-x="571" 
d="M379 298v129h133v-129h-133zM80 0v644h159v-525h274v-119h-433z" />
    <glyph glyph-name="napostrophe.sc" horiz-adv-x="718" 
d="M80 0v644h170l186 -317q17 -28 31 -55t19 -40l6 -14h3v426h143v-644h-161l-193 324q-17 27 -32 55.5t-21 42.5l-6 15h-3v-437h-142z" />
    <glyph glyph-name="Hbar.sc" horiz-adv-x="725" 
d="M485 378v95h-246v-95h246zM239 263v-263h-159v473h-65v84h65v87h159v-87h246v87h160v-87h66v-84h-66v-473h-160v263h-246z" />
    <glyph glyph-name="Idotaccent.sc" horiz-adv-x="319" 
d="M80 0v644h159v-644h-159zM91 735v137h137v-137h-137z" />
    <glyph glyph-name="Ebreve.sc" horiz-adv-x="594" 
d="M80 0v644h445v-113h-286v-154h271v-110h-271v-155h295v-112h-454zM300 711q-74 0 -120 44t-46 132h105q0 -36 17.5 -55t46.5 -19t47 19t18 55h99q0 -88 -46 -132t-121 -44z" />
    <glyph glyph-name="yen.tab" 
d="M222 0v148h-185v76h185v81h-187v76h173l-197 360h176l118 -240h2l121 240h161l-199 -360h173v-76h-185v-81h187v-76h-187v-148h-156z" />
    <glyph glyph-name="eight.den" horiz-adv-x="440" 
d="M52 319q0 54 43 86t125 32t125 -32t43 -87q0 -69 -66 -93v-2q83 -22 83 -102q0 -58 -48.5 -94t-136.5 -36q-93 0 -138.5 34.5t-45.5 95.5q0 79 82 102v2q-66 22 -66 94zM220 366q-59 0 -59 -56q0 -26 16.5 -41t42.5 -15t42.5 15t16.5 41q0 56 -59 56zM220 63
q31 0 50.5 16t19.5 46q0 31 -19 47t-51 16t-51.5 -16t-19.5 -47q0 -30 20 -46t51 -16z" />
    <glyph glyph-name="five.den" horiz-adv-x="433" 
d="M280 140q0 29 -18.5 47.5t-47.5 18.5q-40 0 -63 -29h-100l20 254h293v-88h-205l-9 -104h1q33 44 101 44q65 0 103 -35.5t38 -100.5q0 -69 -46.5 -112.5t-135.5 -43.5q-166 0 -176 134h115q2 -25 19.5 -38t43.5 -13q29 0 48 17.5t19 48.5z" />
    <glyph glyph-name="four.den" horiz-adv-x="450" 
d="M133 170h126v184h-3q-12 -32 -35 -63zM418 90h-56v-90h-107v90h-226v76l196 265h137v-256h56v-85z" />
    <glyph glyph-name="nine.den" horiz-adv-x="449" 
d="M219 357q-27 0 -47.5 -17.5t-20.5 -50.5q0 -34 19.5 -52t48.5 -18q30 0 49 18t19 52q0 32 -20.5 50t-47.5 18zM42 107l114 1q9 -40 58 -40q78 0 78 127h-2q-31 -49 -105 -49q-62 0 -104 35t-42 104q0 64 48 107.5t136 43.5q90 0 139.5 -54.5t49.5 -156.5
q0 -115 -53.5 -174.5t-150.5 -59.5q-74 0 -117.5 32.5t-48.5 83.5z" />
    <glyph glyph-name="one.den" horiz-adv-x="305" 
d="M118 0v280h-94v76h14q42 0 66 17q24 18 24 58h105v-431h-115z" />
    <glyph glyph-name="seven.den" horiz-adv-x="390" 
d="M61 0l169 343h-202v88h337v-62l-183 -369h-121z" />
    <glyph glyph-name="six.den" horiz-adv-x="451" 
d="M405 325h-113q-8 36 -52 36q-79 0 -82 -128h2q39 55 113 55q64 0 102.5 -36t38.5 -104q0 -66 -47.5 -111.5t-135.5 -45.5q-89 0 -139.5 51.5t-50.5 159.5q0 113 55 173.5t146 60.5q147 0 163 -111zM234 69q28 0 48 18.5t20 54.5q0 34 -18.5 53.5t-49.5 19.5
q-32 0 -50.5 -18.5t-18.5 -54.5t20 -54.5t49 -18.5z" />
    <glyph glyph-name="three.den" horiz-adv-x="437" 
d="M218 183h-50v71h41q26 0 43.5 14t17.5 38t-16 37.5t-41 13.5q-29 0 -43.5 -15t-15.5 -39h-113q2 55 45 95.5t134 40.5q78 0 122 -33t44 -84q0 -76 -85 -97v-2q96 -17 96 -103q0 -54 -47.5 -91.5t-132.5 -37.5q-93 0 -135.5 39t-44.5 97h116q2 -25 19.5 -39t43.5 -14
q30 0 48 16t18 40q0 25 -17 39t-47 14z" />
    <glyph glyph-name="two.den" horiz-adv-x="430" 
d="M147 280h-113q2 73 48 115t132 42t128.5 -35t42.5 -91q0 -45 -24 -78t-81 -80l-79 -65v-2h187v-86h-358v61l174 151q36 31 49.5 50.5t13.5 41.5q0 24 -14.5 38t-39.5 14q-66 0 -66 -76z" />
    <glyph glyph-name="zero.den" horiz-adv-x="475" 
d="M40 213q0 110 53 167.5t143 57.5q199 0 199 -225q0 -110 -52 -166.5t-147 -56.5q-196 0 -196 223zM236 74q72 0 72 140q0 142 -72 142q-70 0 -70 -142q0 -79 18 -109.5t52 -30.5z" />
    <glyph glyph-name="zero.num" horiz-adv-x="475" 
d="M40 547q0 110 53 167.5t143 57.5q199 0 199 -225q0 -110 -52 -166.5t-147 -56.5q-196 0 -196 223zM236 408q72 0 72 140q0 142 -72 142q-70 0 -70 -142q0 -79 18 -109.5t52 -30.5z" />
    <glyph glyph-name="one.num" horiz-adv-x="305" 
d="M118 334v280h-94v76h14q42 0 66 17q24 18 24 58h105v-431h-115z" />
    <glyph glyph-name="two.num" horiz-adv-x="430" 
d="M147 614h-113q2 73 48 115t132 42t128.5 -35t42.5 -91q0 -46 -24 -79.5t-81 -78.5l-79 -65v-2h187v-86h-358v61l174 151q35 30 49 49.5t14 42.5q0 24 -14.5 38t-39.5 14q-66 0 -66 -76z" />
    <glyph glyph-name="three.num" horiz-adv-x="437" 
d="M218 517h-50v71h41q26 0 43.5 14t17.5 38t-16 37.5t-41 13.5q-29 0 -43.5 -15t-15.5 -39h-113q2 55 45 95.5t134 40.5q78 0 122 -33t44 -84q0 -76 -85 -97v-2q96 -17 96 -103q0 -54 -47.5 -91.5t-132.5 -37.5q-93 0 -135.5 39t-44.5 97h116q2 -25 19.5 -39t43.5 -14
q30 0 48 16t18 40q0 25 -17 39t-47 14z" />
    <glyph glyph-name="four.num" horiz-adv-x="450" 
d="M133 504h126v184h-3q-12 -32 -35 -63zM418 424h-56v-90h-107v90h-226v76l196 265h137v-256h56v-85z" />
    <glyph glyph-name="five.num" horiz-adv-x="433" 
d="M280 474q0 29 -18.5 47.5t-47.5 18.5q-40 0 -63 -29h-100l20 254h293v-88h-205l-9 -104h1q33 44 101 44q65 0 103 -35.5t38 -100.5q0 -69 -46.5 -112.5t-135.5 -43.5q-166 0 -176 134h115q2 -25 19.5 -38t43.5 -13q29 0 48 17.5t19 48.5z" />
    <glyph glyph-name="six.num" horiz-adv-x="451" 
d="M405 659h-113q-8 36 -52 36q-79 0 -82 -128h2q39 55 113 55q64 0 102.5 -36t38.5 -104q0 -66 -47.5 -111.5t-135.5 -45.5q-89 0 -139.5 51.5t-50.5 159.5q0 113 55 173.5t146 60.5q147 0 163 -111zM234 403q28 0 48 18.5t20 54.5q0 34 -18.5 53.5t-49.5 19.5
q-32 0 -50.5 -18.5t-18.5 -54.5t20 -54.5t49 -18.5z" />
    <glyph glyph-name="seven.num" horiz-adv-x="390" 
d="M61 334l169 343h-202v88h337v-62l-183 -369h-121z" />
    <glyph glyph-name="eight.num" horiz-adv-x="440" 
d="M52 653q0 54 43 86t125 32t125 -32t43 -87q0 -69 -66 -93v-2q83 -22 83 -102q0 -58 -48.5 -94t-136.5 -36q-93 0 -138.5 34.5t-45.5 95.5q0 79 82 102v2q-66 22 -66 94zM220 700q-59 0 -59 -56q0 -26 16.5 -41t42.5 -15t42.5 15t16.5 41q0 56 -59 56zM220 397
q31 0 50.5 16t19.5 46q0 31 -19 47t-51 16t-51.5 -16t-19.5 -47q0 -30 20 -46t51 -16z" />
    <glyph glyph-name="nine.num" horiz-adv-x="449" 
d="M219 691q-27 0 -47.5 -17.5t-20.5 -50.5q0 -34 19.5 -52t48.5 -18q30 0 49 18t19 52q0 32 -20.5 50t-47.5 18zM42 441l114 1q9 -40 58 -40q78 0 78 127h-2q-31 -49 -105 -49q-62 0 -104 35t-42 104q0 64 48 107.5t136 43.5q90 0 139.5 -54.5t49.5 -156.5
q0 -115 -53.5 -174.5t-150.5 -59.5q-74 0 -117.5 32.5t-48.5 83.5z" />
    <glyph glyph-name="minus.num" horiz-adv-x="408" 
d="M58 512v59h294v-59h-294z" />
    <glyph glyph-name="plus.num" horiz-adv-x="410" 
d="M236 513v-113h-63v113h-119v57h119v112h63v-112h119v-57h-119z" />
    <glyph glyph-name="minus.den" horiz-adv-x="420" 
d="M57 169v78h305v-78h-305z" />
    <glyph glyph-name="plus.den" horiz-adv-x="420" 
d="M255 169v-115h-91v115h-118v78h118v114h91v-114h119v-78h-119z" />
    <glyph glyph-name="parenleft.tab" horiz-adv-x="300" 
d="M327 -130h-114q-146 209 -146 459t146 459h114q-130 -237 -130 -459q0 -220 130 -459z" />
    <glyph glyph-name="parenright.tab" horiz-adv-x="300" 
d="M-27 -130q130 237 130 459q0 220 -130 459h114q147 -210 147 -459t-147 -459h-114z" />
    <glyph glyph-name="bracketleft.tab" horiz-adv-x="300" 
d="M71 -130v918h245v-96h-120v-726h120v-96h-245z" />
    <glyph glyph-name="bracketright.tab" horiz-adv-x="300" 
d="M229 788v-918h-245v96h120v726h-120v96h245z" />
    <glyph glyph-name="braceleft.tab" horiz-adv-x="300" 
d="M40 273h-22v109h22q34 0 47.5 15.5t12.5 52.5l-4 153q-4 110 42 149.5t179 39.5v-92q-75 0 -90 -21t-12 -91l4 -128q4 -112 -83 -129v-4q88 -19 83 -132l-4 -125q-3 -70 12 -91t90 -21v-92q-132 0 -178 38t-43 143l4 158q1 37 -12.5 52.5t-47.5 15.5z" />
    <glyph glyph-name="braceright.tab" horiz-adv-x="300" 
d="M282 385v-109h-22q-34 0 -47.5 -15.5t-12.5 -52.5l4 -153q4 -110 -42 -149.5t-179 -39.5v92q75 0 90 21t12 91l-4 129q-4 111 83 128v4q-88 19 -83 132l4 125q3 70 -12 91t-90 21v92q132 0 178.5 -38t42.5 -143l-4 -158q-1 -37 12.5 -52.5t47.5 -15.5h22z" />
    <glyph glyph-name="eight.sub" horiz-adv-x="440" 
d="M52 259q0 54 43 86t125 32t125 -32t43 -87q0 -69 -66 -93v-2q83 -22 83 -102q0 -58 -48.5 -94t-136.5 -36q-93 0 -138.5 34.5t-45.5 95.5q0 79 82 102v2q-66 22 -66 94zM220 306q-59 0 -59 -56q0 -26 16.5 -41t42.5 -15t42.5 15t16.5 41q0 56 -59 56zM220 3q31 0 50.5 16
t19.5 46q0 31 -19 47t-51 16t-51.5 -16t-19.5 -47q0 -30 20 -46t51 -16z" />
    <glyph glyph-name="eight.sup" horiz-adv-x="440" 
d="M52 703q0 54 43 86t125 32t125 -32t43 -87q0 -69 -66 -93v-2q83 -22 83 -102q0 -58 -48.5 -94t-136.5 -36q-93 0 -138.5 34.5t-45.5 95.5q0 79 82 102v2q-66 22 -66 94zM220 750q-59 0 -59 -56q0 -26 16.5 -41t42.5 -15t42.5 15t16.5 41q0 56 -59 56zM220 447
q31 0 50.5 16t19.5 46q0 31 -19 47t-51 16t-51.5 -16t-19.5 -47q0 -30 20 -46t51 -16z" />
    <glyph glyph-name="five.sub" horiz-adv-x="433" 
d="M280 80q0 29 -18.5 47.5t-47.5 18.5q-40 0 -63 -29h-100l20 254h293v-88h-205l-9 -104h1q33 44 101 44q65 0 103 -35.5t38 -100.5q0 -69 -46.5 -112.5t-135.5 -43.5q-166 0 -176 134h115q2 -25 19.5 -38t43.5 -13q29 0 48 17.5t19 48.5z" />
    <glyph glyph-name="five.sup" horiz-adv-x="433" 
d="M280 524q0 29 -18.5 47.5t-47.5 18.5q-40 0 -63 -29h-100l20 254h293v-88h-205l-9 -104h1q33 44 101 44q65 0 103 -35.5t38 -100.5q0 -69 -46.5 -112.5t-135.5 -43.5q-166 0 -176 134h115q2 -25 19.5 -38t43.5 -13q29 0 48 17.5t19 48.5z" />
    <glyph glyph-name="four.sub" horiz-adv-x="450" 
d="M133 110h126v184h-3q-12 -32 -35 -63zM418 30h-56v-90h-107v90h-226v76l196 265h137v-256h56v-85z" />
    <glyph glyph-name="four.sup" horiz-adv-x="450" 
d="M133 554h126v184h-3q-12 -32 -35 -63zM418 474h-56v-90h-107v90h-226v76l196 265h137v-256h56v-85z" />
    <glyph glyph-name="minus.sub" horiz-adv-x="420" 
d="M57 109v78h305v-78h-305z" />
    <glyph glyph-name="minus.sup" horiz-adv-x="420" 
d="M57 553v78h305v-78h-305z" />
    <glyph glyph-name="nine.sub" horiz-adv-x="449" 
d="M219 297q-27 0 -47.5 -17.5t-20.5 -50.5q0 -34 19.5 -52t48.5 -18q30 0 49 18t19 52q0 32 -20.5 50t-47.5 18zM42 47l114 1q9 -40 58 -40q78 0 78 127h-2q-31 -49 -105 -49q-62 0 -104 35t-42 104q0 64 48 107.5t136 43.5q90 0 139.5 -54.5t49.5 -156.5
q0 -115 -53.5 -174.5t-150.5 -59.5q-74 0 -117.5 32.5t-48.5 83.5z" />
    <glyph glyph-name="nine.sup" horiz-adv-x="449" 
d="M219 741q-27 0 -47.5 -17.5t-20.5 -50.5q0 -34 19.5 -52t48.5 -18q30 0 49 18t19 52q0 32 -20.5 50t-47.5 18zM42 491l114 1q9 -40 58 -40q78 0 78 127h-2q-31 -49 -105 -49q-62 0 -104 35t-42 104q0 64 48 107.5t136 43.5q90 0 139.5 -54.5t49.5 -156.5
q0 -115 -53.5 -174.5t-150.5 -59.5q-74 0 -117.5 32.5t-48.5 83.5z" />
    <glyph glyph-name="one.sub" horiz-adv-x="305" 
d="M118 -60v280h-94v76h14q42 0 66 17q24 18 24 58h105v-431h-115z" />
    <glyph glyph-name="one.sup" horiz-adv-x="305" 
d="M118 384v280h-94v76h14q42 0 66 17q24 18 24 58h105v-431h-115z" />
    <glyph glyph-name="plus.sub" horiz-adv-x="420" 
d="M255 109v-115h-91v115h-118v78h118v114h91v-114h119v-78h-119z" />
    <glyph glyph-name="plus.sup" horiz-adv-x="420" 
d="M255 553v-115h-91v115h-118v78h118v114h91v-114h119v-78h-119z" />
    <glyph glyph-name="seven.sub" horiz-adv-x="390" 
d="M61 -60l169 343h-202v88h337v-62l-183 -369h-121z" />
    <glyph glyph-name="seven.sup" horiz-adv-x="390" 
d="M61 384l169 343h-202v88h337v-62l-183 -369h-121z" />
    <glyph glyph-name="six.sub" horiz-adv-x="451" 
d="M405 265h-113q-8 36 -52 36q-79 0 -82 -128h2q39 55 113 55q64 0 102.5 -36t38.5 -104q0 -66 -47.5 -111.5t-135.5 -45.5q-89 0 -139.5 51.5t-50.5 159.5q0 113 55 173.5t146 60.5q147 0 163 -111zM234 9q28 0 48 18.5t20 54.5q0 34 -18.5 53.5t-49.5 19.5
q-32 0 -50.5 -18.5t-18.5 -54.5t20 -54.5t49 -18.5z" />
    <glyph glyph-name="six.sup" horiz-adv-x="451" 
d="M405 709h-113q-8 36 -52 36q-79 0 -82 -128h2q39 55 113 55q64 0 102.5 -36t38.5 -104q0 -66 -47.5 -111.5t-135.5 -45.5q-89 0 -139.5 51.5t-50.5 159.5q0 113 55 173.5t146 60.5q147 0 163 -111zM234 453q28 0 48 18.5t20 54.5q0 34 -18.5 53.5t-49.5 19.5
q-32 0 -50.5 -18.5t-18.5 -54.5t20 -54.5t49 -18.5z" />
    <glyph glyph-name="three.sub" horiz-adv-x="437" 
d="M218 123h-50v71h41q26 0 43.5 14t17.5 38t-16 37.5t-41 13.5q-29 0 -43.5 -15t-15.5 -39h-113q2 55 45 95.5t134 40.5q78 0 122 -33t44 -84q0 -76 -85 -97v-2q96 -17 96 -103q0 -54 -47.5 -91.5t-132.5 -37.5q-93 0 -135.5 39t-44.5 97h116q2 -25 19.5 -39t43.5 -14
q30 0 48 16t18 40q0 25 -17 39t-47 14z" />
    <glyph glyph-name="three.sup" horiz-adv-x="437" 
d="M218 567h-50v71h41q26 0 43.5 14t17.5 38t-16 37.5t-41 13.5q-29 0 -43.5 -15t-15.5 -39h-113q2 55 45 95.5t134 40.5q78 0 122 -33t44 -84q0 -76 -85 -97v-2q96 -17 96 -103q0 -54 -47.5 -91.5t-132.5 -37.5q-93 0 -135.5 39t-44.5 97h116q2 -25 19.5 -39t43.5 -14
q30 0 48 16t18 40q0 25 -17 39t-47 14z" />
    <glyph glyph-name="two.sub" horiz-adv-x="430" 
d="M147 220h-113q2 73 48 115t132 42t128.5 -35t42.5 -91q0 -46 -24 -79.5t-81 -78.5l-79 -65v-2h187v-86h-358v61l174 151q35 30 49 49.5t14 42.5q0 24 -14.5 38t-39.5 14q-66 0 -66 -76z" />
    <glyph glyph-name="two.sup" horiz-adv-x="430" 
d="M147 664h-113q2 73 48 115t132 42t128.5 -35t42.5 -91q0 -46 -24 -79.5t-81 -78.5l-79 -65v-2h187v-86h-358v61l174 151q35 30 49 49.5t14 42.5q0 24 -14.5 38t-39.5 14q-66 0 -66 -76z" />
    <glyph glyph-name="zero.sub" horiz-adv-x="475" 
d="M40 153q0 110 53 167.5t143 57.5q199 0 199 -225q0 -110 -52 -166.5t-147 -56.5q-196 0 -196 223zM236 14q72 0 72 140q0 142 -72 142q-70 0 -70 -142q0 -79 18 -109.5t52 -30.5z" />
    <glyph glyph-name="zero.sup" horiz-adv-x="475" 
d="M40 597q0 110 53 167.5t143 57.5q199 0 199 -225q0 -110 -52 -166.5t-147 -56.5q-196 0 -196 223zM236 458q72 0 72 140q0 142 -72 142q-70 0 -70 -142q0 -79 18 -109.5t52 -30.5z" />
    <glyph glyph-name="Q.old" horiz-adv-x="822" 
d="M597 -99l-76 99q-51 -16 -110 -16q-172 0 -266.5 103t-94.5 293q0 186 99 291t262 105q170 0 265.5 -103t95.5 -293q0 -226 -139 -326l62 -82zM228 380q0 -279 183 -279q11 0 31 2l-62 80l99 72l69 -90q47 68 47 215q0 134 -50.5 206t-133.5 72q-88 0 -135.5 -70.5
t-47.5 -207.5z" />
    <glyph glyph-name="Q.scold" horiz-adv-x="742" 
d="M538 -89l-68 92q-48 -16 -99 -16q-153 0 -233.5 86.5t-80.5 246.5q0 156 85 244.5t229 88.5q150 0 232 -87t82 -246q0 -180 -121 -269l59 -80zM224 318q0 -227 147 -227q17 0 32 3l-61 82l86 59l60 -81q31 57 31 164q0 110 -40.5 169t-107.5 59q-147 0 -147 -228z" />
    <glyph glyph-name="Euro.tab" 
d="M577 215q-2 -99 -65 -164.5t-173 -65.5q-114 0 -175.5 65.5t-77.5 199.5h-71v77h65q-1 13 -1 40q0 28 1 41h-65v77h72q37 266 261 266q106 0 164.5 -64t63.5 -170h-130q-20 116 -101 116q-46 0 -72 -36t-36 -112h158v-77h-163q-1 -12 -1 -39q0 -29 1 -42h164v-77h-158
q21 -145 108 -145q83 0 100 110h131z" />
    <glyph glyph-name="dollar.tab" 
d="M265 456v184q-44 -7 -66 -32t-22 -60q0 -74 86 -92h2zM330 102h4q48 8 71.5 34.5t23.5 62.5q0 78 -95 96l-4 1v-194zM330 -116h-66v105q-108 8 -171 66.5t-71 159.5h144q12 -97 101 -112v205l-23 5q-102 20 -154 72t-52 147q0 88 59.5 147.5t167.5 67.5v81h66v-81
q110 -8 165.5 -65t62.5 -147h-145q-7 90 -86 104v-196l21 -4q117 -23 169.5 -74.5t52.5 -143.5q0 -103 -61.5 -164t-179.5 -68v-105z" />
    <glyph glyph-name="dieresis.uc" horiz-adv-x="369" 
d="M224 828v137h136v-137h-136zM9 828v137h136v-137h-136z" />
    <glyph glyph-name="zero.tab" 
d="M34 368q0 186 70 284.5t194 98.5q131 0 199.5 -96.5t68.5 -286.5q0 -187 -69.5 -285t-198.5 -98q-130 0 -197 96.5t-67 286.5zM299 109q110 0 110 258q0 136 -27 198t-82 62q-110 0 -110 -260q0 -137 27 -197.5t82 -60.5z" />
    <glyph glyph-name="one.tab" 
d="M546 0h-452v123h155v385h-153v102h16q77 0 114 30q39 30 41 102h138v-619h141v-123z" />
    <glyph glyph-name="nine.tab" 
d="M291 631q-44 0 -74 -32t-30 -97q0 -61 29.5 -95t74.5 -34q48 0 77 33t29 96q0 62 -30.5 95.5t-75.5 33.5zM45 181h141q21 -78 98 -78q63 0 94 58.5t33 178.5h-2q-49 -75 -155 -75q-93 0 -158 61.5t-65 173.5q0 107 71.5 179.5t194.5 72.5q131 0 199.5 -89t68.5 -268
q0 -202 -73 -306t-208 -104q-109 0 -168 52t-71 144z" />
    <glyph glyph-name="eight.tab" 
d="M51 550q0 88 66 145t183 57t183 -57t66 -145q0 -62 -30.5 -104.5t-80.5 -60.5v-3q61 -16 98 -61.5t37 -118.5q0 -94 -76 -156t-197 -62q-127 0 -200 60.5t-73 156.5q0 72 37.5 118.5t97.5 62.5v3q-49 16 -80 59.5t-31 105.5zM300 641q-44 0 -72.5 -27.5t-28.5 -77.5
q0 -49 29 -77.5t72 -28.5q44 0 72 28t28 78t-28.5 77.5t-71.5 27.5zM300 92q51 0 84.5 30.5t33.5 84.5t-33 84t-85 30q-51 0 -84 -30t-33 -84t33.5 -84.5t83.5 -30.5z" />
    <glyph glyph-name="seven.tab" 
d="M99 0l284 614h-348v127h528v-90l-301 -651h-163z" />
    <glyph glyph-name="six.tab" 
d="M554 563h-148q-7 34 -31 53.5t-59 19.5q-61 0 -92.5 -58.5t-37.5 -179.5h3q56 85 166 85q93 0 153 -62.5t60 -172.5q0 -115 -67.5 -189t-196.5 -74q-125 0 -197 84.5t-72 265.5q0 205 73.5 311t212.5 106q104 0 164.5 -53t68.5 -136zM308 104q45 0 75 34t30 99
q0 62 -29 96.5t-76 34.5q-48 0 -77 -33t-29 -98q0 -66 29.5 -99.5t76.5 -33.5z" />
    <glyph glyph-name="five.tab" 
d="M40 209h151q9 -105 111 -105q49 0 82 35t33 101q0 64 -32 100t-82 36q-71 0 -105 -57h-134l22 422h439v-126h-310l-10 -183h2q53 59 144 59q95 0 156 -64.5t61 -177.5q0 -116 -68 -190t-198 -74q-69 0 -120.5 19t-80.5 52t-43.5 70.5t-17.5 82.5z" />
    <glyph glyph-name="space_uni0326.alt" horiz-adv-x="369" 
d="M280 782l-27 -165h-157l79 165h105z" />
    <glyph glyph-name="four.tab" 
d="M163 284h189v320h-3q-12 -37 -44 -90zM578 164h-85v-164h-145v164h-325v111l296 466h174v-455h85v-122z" />
    <glyph glyph-name="three.tab" 
d="M294 319h-56v113h47q48 0 77.5 27.5t29.5 74.5q0 44 -26 71t-72 27q-51 0 -79.5 -28.5t-31.5 -79.5h-145q3 95 68 162t192 67q117 0 181 -57t64 -147q0 -56 -31 -99t-87 -64v-2q138 -40 138 -178q0 -94 -70.5 -157.5t-195.5 -63.5q-69 0 -121 19t-82 52t-45.5 72
t-18.5 85h153q5 -51 37 -78.5t79 -27.5q50 0 82.5 29t32.5 77q0 50 -31 78t-89 28z" />
    <glyph glyph-name="uni021A.sc" horiz-adv-x="592" 
d="M564 644v-120h-188v-524h-160v524h-188v120h536zM196 -220l24 156h154l-73 -156h-105z" />
    <glyph glyph-name="two.tab" 
d="M198 497h-152q1 120 71.5 187.5t192.5 67.5t184 -59.5t62 -150.5q0 -78 -34.5 -135.5t-122.5 -139.5l-148 -139v-1h305v-127h-524v92l251 249q64 63 90 105t26 86q0 47 -25 73.5t-69 26.5q-46 0 -76.5 -31t-30.5 -104z" />
    </font>
</defs>
</svg>
